<?xml version="1.0" encoding="UTF-8"?>
<svg width="397px" height="59px" viewBox="0 0 397 59" version="1.1" xmlns="http://www.w3.org/2000/svg" xmlns:xlink="http://www.w3.org/1999/xlink">
    <!-- Generator: Sketch 51.3 (57544) - http://www.bohemiancoding.com/sketch -->
    <title>字體-專業職人工程師</title>
    <desc>Created with Sketch.</desc>
    <defs></defs>
    <g id="Page-1" stroke="none" stroke-width="1" fill="none" fill-rule="evenodd">
        <g id="Superbil-LandingPage" transform="translate(-605.000000, -171.000000)" fill="#FFFFFF" fill-rule="nonzero">
            <g id="字體-專業職人工程師" transform="translate(605.000000, 171.000000)">
                <g id="人-41221" transform="translate(175.000000, 3.000000)">
                    <g id="Group" transform="translate(28.000000, 27.000000) scale(-1, 1) rotate(-180.000000) translate(-28.000000, -27.000000) ">
                        <path d="M55.9737089,5.60769231 C55.9737089,5.42596154 55.9211268,5.29615385 55.8422535,5.19230769 C55.7633803,5.08846154 55.6450704,5.03653846 55.513615,5.03653846 L52.9502347,5.03653846 C52.4244131,5.03653846 52.0169014,4.98461538 51.7408451,4.88076923 C51.4647887,4.77692308 51.0967136,4.50432692 50.6629108,4.07596154 C50.2685446,3.68653846 49.8741784,3.49182692 49.4798122,3.49182692 C49.0065728,3.49182692 48.3624413,3.81634615 47.5737089,4.46538462 C43.9455399,7.58076923 40.856338,10.8908654 38.3061033,14.3956731 C35.7558685,17.9004808 33.5474178,22.2230769 31.628169,27.3764423 C29.7220657,32.5168269 28.1577465,38.8384615 26.9220657,46.3283654 C26.0544601,39.7471154 25.2657277,34.4509615 24.5558685,30.4269231 C23.6356808,25.3125 22.7023474,21.5221154 21.7690141,19.0038462 C20.8356808,16.4855769 19.284507,14.0581731 17.141784,11.6697115 C15.1173709,9.41105769 12.9877934,7.46394231 10.7004695,5.82836538 C8.41314554,4.19278846 5.17934272,2.31057692 0.972769953,0.181730769 C0.880751174,0.129807692 0.749295775,0.116826923 0.578403756,0.116826923 C0.407511737,0.116826923 0.276056338,0.16875 0.184037559,0.272596154 C0.0920187793,0.376442308 0.0525821596,0.50625 0.0525821596,0.636057692 C0.0525821596,0.817788462 0.144600939,0.960576923 0.315492958,1.09038462 C4.16713615,3.68653846 7.21690141,5.94519231 9.45164319,7.84038462 C11.686385,9.73557692 13.8422535,12.1110577 15.8929577,14.9149038 C17.286385,16.8620192 18.4037559,18.9519231 19.2056338,21.2105769 C20.0075117,23.45625 20.7699531,26.6625 21.4666667,30.8163462 C22.4657277,36.6966346 23.3201878,42.6288462 24.0300469,48.6 C24.1089202,49.5475962 24.1615023,50.1576923 24.1615023,50.4173077 C24.1615023,51.0663462 24.0957746,51.6375 23.9643192,52.1307692 C23.8328638,52.6240385 23.6356808,53.2211538 23.37277,53.9221154 C25.7389671,53.7923077 27.658216,53.4028846 29.1568075,52.7538462 C29.4985915,52.5331731 29.6826291,52.2735577 29.6826291,51.975 C29.6826291,51.4557692 29.3408451,51.13125 28.6309859,51.0014423 C28.0525822,50.8716346 27.6976526,50.6509615 27.513615,50.3524038 C29.143662,43.0831731 30.8657277,36.95625 32.7061033,31.9846154 C34.5464789,27 36.6366197,22.7942308 38.9896714,19.3673077 C41.342723,15.9403846 44.1032864,12.9548077 47.2976526,10.4365385 C48.743662,9.32019231 50.1107981,8.42451923 51.399061,7.77548077 C52.6873239,7.12644231 54.0807512,6.55528846 55.5793427,6.08798077 C55.8422535,6.02307692 55.9737089,5.86730769 55.9737089,5.60769231 Z" id="Shape"></path>
                    </g>
                </g>
                <g id="工-41222" transform="translate(232.000000, 8.000000)">
                    <g id="Group" transform="translate(27.500000, 21.000000) scale(-1, 1) rotate(-180.000000) translate(-27.500000, -21.000000) ">
                        <path d="M54.9346793,3.64770642 C54.9346793,3.31376147 54.6995249,3.01834862 54.2553444,2.81284404 C53.8111639,2.60733945 53.1971496,2.50458716 52.4524941,2.5559633 C50.8064133,2.63302752 49.2517815,2.68440367 47.8147268,2.68440367 C46.9002375,2.68440367 45.2149644,2.63302752 42.7850356,2.5559633 L31.3539192,2.04220183 C23.0451306,1.73394495 16.5391924,1.46422018 11.888361,1.20733945 C10.7517815,1.1559633 9.27553444,0.937614679 7.44655582,0.500917431 C6.57125891,0.295412844 5.85273159,0.166972477 5.29097387,0.11559633 C3.94536817,0.0385321101 2.82185273,0.231192661 1.92042755,0.693577982 C1.01900238,1.1559633 0.39192399,2.04220183 0,3.3266055 C2.05106888,2.86422018 4.44180523,2.62018349 7.18527316,2.62018349 C8.45249406,2.62018349 9.40617577,2.63302752 10.0593824,2.68440367 L25.1484561,3.26238532 L25.1484561,36.8495413 C20.6543943,36.6825688 17.4406176,36.5284404 15.4809976,36.4 C14.5665083,36.3614679 12.8812352,36.1688073 10.4513064,35.8220183 C10.2814727,35.7834862 9.99406176,35.7577982 9.60213777,35.7577982 C7.81235154,35.7577982 6.70190024,36.7724771 6.27078385,38.7761468 C8.2304038,38.3137615 10.9085511,38.0697248 14.3052257,38.0697248 C17.9109264,38.0697248 25.2268409,38.3137615 36.2529691,38.7761468 L38.6045131,38.840367 C39.3361045,38.8917431 39.9631829,39.0844037 40.45962,39.4568807 C40.9691211,39.8293578 41.7137767,40.6642202 42.7066508,42 L47.2137767,38.853211 C47.5273159,38.6477064 47.6710214,38.4036697 47.6710214,38.146789 C47.6710214,37.812844 47.435867,37.5302752 46.9916865,37.3504587 C46.5475059,37.1706422 45.8420428,37.106422 44.9275534,37.1963303 C43.4904988,37.3247706 41.9097387,37.3889908 40.1591449,37.3889908 C38.9833729,37.3889908 38.1211401,37.3761468 37.5463183,37.3247706 C33.8361045,37.1577982 30.7529691,37.0550459 28.2707838,37.0036697 L28.2707838,3.39082569 L43.1638955,4.09724771 C44.3396675,4.17431193 45.2019002,4.30275229 45.7505938,4.48256881 C46.2992874,4.66238532 46.7434679,4.94495413 47.1223278,5.38165138 C47.5011876,5.81834862 48.1413302,6.66605505 49.0558195,7.95045872 L54.216152,4.67522936 C54.6864608,4.36697248 54.9346793,4.03302752 54.9346793,3.64770642 Z" id="Shape"></path>
                    </g>
                </g>
                <g id="師-41224" transform="translate(347.000000, 1.000000)">
                    <g id="Group" transform="translate(25.000000, 28.500000) scale(-1, 1) rotate(-180.000000) translate(-25.000000, -28.500000) ">
                        <path d="M18.961039,23.7327273 C18.961039,23.2922727 18.7142857,22.9684091 18.2467532,22.7611364 C17.8571429,22.5538636 17.5844156,22.3077273 17.4415584,22.0486364 C17.2987013,21.7895455 17.2077922,21.4009091 17.2077922,20.8827273 L17.1428571,10.9725 C17.1428571,10.1175 17.1558442,9.405 17.2077922,8.835 L17.2077922,8.38159091 C17.2077922,7.78568182 17.0779221,7.33227273 16.8181818,7.02136364 C16.4285714,6.555 15.9090909,6.1275 15.2597403,5.79068182 C15.0519481,5.66113636 14.8701299,5.59636364 14.7402597,5.59636364 C14.4285714,5.59636364 14.2857143,5.8425 14.2857143,6.30886364 L14.2857143,10.7134091 L4.41558442,9.93613636 C4.45454545,7.81159091 4.48051948,5.47977273 4.48051948,2.94068182 C4.48051948,2.4225 4.28571429,2.16340909 3.8961039,2.16340909 C3.72727273,2.16340909 3.54545455,2.24113636 3.37662338,2.4225 C2.85714286,2.94068182 2.33766234,3.57545455 1.81818182,4.30090909 C1.51948052,4.74136364 1.36363636,5.14295455 1.36363636,5.53159091 C1.36363636,5.79068182 1.38961039,5.985 1.42857143,6.11454545 C1.55844156,6.94363636 1.62337662,7.73386364 1.62337662,8.51113636 L1.55844156,22.3725 L1.42857143,41.0918182 C1.42857143,42.1281818 1.36363636,43.1645455 1.23376623,44.2009091 C1.14285714,44.8486364 1,45.6 0.779220779,46.4290909 C0.558441558,47.2581818 0.324675325,47.9059091 0.0649350649,48.3463636 C1.36363636,48.2945455 2.42857143,47.9318182 3.24675325,47.2452273 C3.54545455,47.025 3.80519481,46.6752273 4.02597403,46.2088636 L5.38961039,46.3384091 C6,48.8775 6.46753247,51.2352273 6.81818182,53.3986364 C6.94805195,54.0463636 7.01298701,54.6940909 7.01298701,55.3418182 C7.01298701,55.9895455 6.97402597,56.5077273 6.88311688,56.8963636 C9.2987013,56.2875 11.1168831,55.6138636 12.3376623,54.8884091 C12.5454545,54.7977273 12.6623377,54.6293182 12.6623377,54.3702273 C12.6623377,54.15 12.5454545,53.9686364 12.3376623,53.8261364 C12.1298701,53.6706818 11.8701299,53.5929545 11.5584416,53.5929545 C11.1688312,53.5929545 10.8831169,53.5411364 10.6753247,53.4375 C10.4805195,53.3209091 10.3116883,53.1265909 10.1818182,52.8156818 C9.06493506,50.2636364 7.98701299,48.1520455 7,46.4679545 L11.2207792,46.7918182 C11.8701299,46.8306818 12.3246753,46.9861364 12.5844156,47.2452273 C12.8441558,47.5043182 13.3766234,48.1909091 14.2077922,49.3179545 L17.974026,46.8565909 C18.3116883,46.6752273 18.4935065,46.4161364 18.4935065,46.0793182 C18.4935065,45.6388636 18.2467532,45.315 17.7792208,45.1077273 C17.3896104,44.8875 17.1168831,44.6543182 16.974026,44.3952273 C16.8311688,44.1361364 16.7402597,43.7475 16.7402597,43.2293182 L16.6753247,35.1327273 C16.6753247,34.4331818 16.6883117,33.8372727 16.7402597,33.3190909 L16.7402597,33.06 C16.7402597,32.49 16.5584416,31.9977273 16.2207792,31.5702273 C15.7532468,31.0002273 15.2987013,30.5338636 14.8571429,30.1452273 C14.7272727,30.0156818 14.5974026,29.9509091 14.4675325,29.9509091 C14.2857143,29.9509091 14.1428571,30.0545455 14.012987,30.2359091 C13.8831169,30.4172727 13.8181818,30.6375 13.8181818,30.8577273 L13.8181818,34.1611364 L4.27272727,33.3838636 C4.27272727,29.2772727 4.2987013,26.1034091 4.33766234,23.8622727 L11.5454545,24.4452273 C12.1948052,24.4840909 12.6493506,24.6395455 12.9090909,24.8986364 C13.1688312,25.1577273 13.7012987,25.8443182 14.5324675,26.9713636 L18.4285714,24.51 C18.7792208,24.3415909 18.961039,24.0825 18.961039,23.7327273 Z M50,50.5486364 C50,50.2895455 49.8831169,50.0693182 49.6363636,49.9009091 C49.3896104,49.7195455 49.038961,49.6547727 48.5714286,49.7065909 C48,49.7454545 47.2077922,49.7713636 46.1688312,49.7713636 C45.4415584,49.7713636 43.8311688,49.7065909 41.3636364,49.5770455 L35.2597403,49.1884091 L35.2597403,38.4361364 L40.1948052,38.8247727 C40.974026,38.8636364 41.5194805,39.0320455 41.8571429,39.3170455 C42.1818182,39.5890909 42.6623377,40.2756818 43.3116883,41.3638636 L47.2727273,38.8377273 C47.6103896,38.6175 47.7922078,38.3843182 47.7922078,38.1252273 C47.7922078,37.8143182 47.4805195,37.4775 46.8831169,37.0888636 C46.3116883,36.7390909 45.974026,36.4540909 45.8441558,36.2468182 C45.7142857,36.0265909 45.6493506,35.5990909 45.6493506,34.9513636 L45.5844156,16.4263636 C45.5844156,15.4677273 45.5324675,14.7422727 45.4545455,14.2240909 C45.3766234,13.7059091 45.2077922,13.3043182 45,12.9934091 C44.1688312,11.8275 43.2597403,11.2445455 42.2727273,11.2445455 C42.012987,11.2445455 41.8051948,11.3222727 41.6493506,11.4777273 C41.4935065,11.6331818 41.3766234,11.8922727 41.2857143,12.2809091 C41.2337662,12.5918182 41.1298701,12.8120455 40.9220779,12.9934091 C40.7142857,13.1747727 40.4285714,13.3302273 40.038961,13.5115909 C39.5974026,13.7188636 38.7402597,14.0815909 37.4415584,14.5479545 C37.1038961,14.6775 36.9220779,14.8847727 36.9220779,15.1956818 C36.9220779,15.3252273 36.987013,15.4418182 37.1168831,15.5195455 C37.2467532,15.5972727 37.3896104,15.6361364 37.5714286,15.5843182 C37.8831169,15.5325 38.4025974,15.4547727 39.1558442,15.3252273 C39.9090909,15.1956818 40.7012987,15.1309091 41.5194805,15.1309091 C41.987013,15.1309091 42.3116883,15.3122727 42.4935065,15.6490909 C42.6753247,15.9859091 42.7662338,16.5688636 42.8181818,17.3979545 C42.8961039,19.3411364 42.9480519,25.7536364 42.9480519,36.6354545 C42.9480519,37.1018182 42.8441558,37.4127273 42.6623377,37.5422727 C42.4805195,37.6718182 41.987013,37.7106818 41.2077922,37.6718182 L35.2337662,37.2184091 L35.2337662,7.42295455 L35.2337662,3.99 C35.2337662,3.67909091 35.2857143,2.62977273 35.3636364,0.816136364 L35.3636364,0.751363636 C35.3636364,0.544090909 35.2857143,0.362727273 35.1298701,0.233181818 C34.974026,0.103636364 34.7922078,0.0388636364 34.5844156,0.0388636364 C34.1948052,0.0388636364 33.8701299,0.233181818 33.6103896,0.621818182 C33.1688312,1.21772727 32.6493506,2.09863636 32.0519481,3.21272727 C31.8701299,3.52363636 31.7922078,3.86045455 31.7922078,4.24909091 C31.7922078,4.45636364 31.8571429,4.75431818 31.987013,5.09113636 C32.3766234,5.86840909 32.5714286,6.91772727 32.5714286,8.265 L32.5714286,37.0240909 C31.974026,36.9722727 31.2207792,36.8297727 30.3636364,36.5706818 C29.7922078,36.3504545 29.3116883,36.2468182 28.8701299,36.2468182 C27.6233766,36.2468182 26.7792208,36.9334091 26.3376623,38.3195455 C27.8961039,38.2288636 28.8571429,38.19 29.1948052,38.19 L31.5324675,38.2547727 C31.974026,38.2547727 32.3116883,38.2677273 32.5714286,38.3195455 L32.5714286,49.0070455 C31.7402597,48.9552273 29.9220779,48.8256818 27.1168831,48.6184091 L24.7792208,48.3593182 C23.7402597,48.1779545 23.038961,48.1002273 22.7012987,48.1002273 C21.012987,48.1002273 19.974026,48.9163636 19.5844156,50.5615909 C20.5714286,50.3025 21.8441558,50.1081818 23.3506494,49.9786364 C24.8571429,49.8490909 26.1298701,49.8231818 27.1168831,49.9138636 L31.012987,50.1729545 C38.1558442,50.6393182 41.6753247,50.8854545 41.5974026,50.8854545 C42.3766234,50.9243182 42.974026,51.1186364 43.4155844,51.4684091 C43.8571429,51.8052273 44.5194805,52.6084091 45.4285714,53.865 L49.3246753,51.4684091 C49.7922078,51.1963636 50,50.8984091 50,50.5486364 Z M6.36363636,45.2372727 C5.84415584,45.1465909 5.15584416,45.0559091 4.28571429,44.9781818 L4.28571429,44.8486364 L4.22077922,42.3225 C4.22077922,39.5502273 4.24675325,37.0111364 4.28571429,34.6793182 L13.8311688,35.3918182 L13.8311688,44.9134091 C13.8311688,45.2113636 13.7532468,45.4315909 13.5714286,45.5611364 C13.3896104,45.6906818 13.1168831,45.7554545 12.7272727,45.7554545 C11.7662338,45.7554545 9.66233766,45.5870455 6.36363636,45.2372727 Z M24.961039,38.3713636 C25.1038961,38.0215909 25.1948052,37.6588636 25.1948052,37.2702273 C25.1948052,36.8815909 25.1818182,36.4670455 25.1298701,36.0006818 C25.0779221,35.5343182 25.0649351,35.0809091 25.0649351,34.6015909 L25.1298701,15.2345455 C25.1298701,12.9804545 25.1428571,11.2834091 25.1948052,10.1175 L25.1948052,10.0527273 C25.1948052,9.53454545 24.9480519,9.27545455 24.4805195,9.27545455 C24.1428571,9.27545455 23.8311688,9.41795455 23.5714286,9.72886364 L22.1428571,11.7368182 C21.8311688,12.1772727 21.6883117,12.5659091 21.6883117,12.9027273 C21.6883117,13.2136364 21.8051948,13.5634091 22.012987,14.0038636 C22.4025974,14.9884091 22.5974026,16.1931818 22.5974026,17.5663636 C22.5974026,26.8029545 22.5454545,32.8915909 22.4675325,35.8322727 C22.4155844,37.2961364 22.0779221,38.8247727 21.4285714,40.4311364 C22.5974026,40.3404545 23.5844156,39.9259091 24.4155844,39.2004545 C24.6233766,39.0061364 24.8181818,38.7211364 24.961039,38.3713636 Z M14.2857143,11.9440909 L14.2857143,22.5668182 C14.2857143,22.8777273 14.2077922,23.085 14.025974,23.2145455 C13.8441558,23.3440909 13.5714286,23.4088636 13.1818182,23.4088636 C12.2727273,23.4088636 10.2077922,23.2275 7.01298701,22.8906818 C5.80519481,22.7093182 4.90909091,22.6186364 4.35064935,22.5668182 L4.41558442,11.2315909 L14.2857143,11.9440909 Z" id="Shape"></path>
                    </g>
                </g>
                <g id="專-41218">
                    <g id="Group" transform="translate(28.500000, 29.000000) scale(-1, 1) rotate(-180.000000) translate(-28.500000, -29.000000) ">
                        <path d="M3.47241379,50.2752212 C6.39448276,49.5823009 8.91034483,49.2871681 11.0068966,49.3769912 C12.657931,49.4154867 17.7027586,49.7106195 26.1413793,50.2752212 L26.1413793,52.5849558 C26.1413793,54.6765487 25.8793103,56.4473451 25.3551724,57.910177 C27.3993103,57.6920354 29.0241379,57.3969027 30.2034483,57.0119469 C31.042069,56.7039823 31.4482759,56.3831858 31.4482759,56.0495575 C31.4482759,55.7929204 31.3434483,55.6004425 31.16,55.4721239 C30.9765517,55.3438053 30.6227586,55.2154867 30.137931,55.0871681 C29.7972414,54.9973451 29.5482759,54.8946903 29.4172414,54.7663717 C29.2862069,54.6380531 29.2075862,54.3557522 29.1551724,53.9323009 C29.1027586,53.4960177 29.0896552,52.9185841 29.0896552,52.2 L29.0896552,50.5318584 L42.3241379,51.4300885 C43.1889655,51.5070796 43.9096552,51.7380531 44.4468966,52.0973451 C44.9841379,52.4566372 45.7048276,53.3035398 46.5696552,54.6380531 L51.0903448,52.0716814 C51.6668966,51.7637168 51.942069,51.4044248 51.942069,50.9809735 C51.942069,50.5061947 51.4965517,50.2752212 50.6317241,50.2752212 L44.4075862,50.1469027 C41.9965517,50.0570796 36.8862069,49.7106195 29.0765517,49.120354 L29.0765517,44.95 L37.2006897,45.6557522 C38.0393103,45.7327434 38.6289655,45.9252212 38.9696552,46.1946903 C39.3103448,46.4641593 39.8737931,47.1057522 40.6075862,48.0938053 L44.8006897,45.7199115 C45.1151724,45.5402655 45.2593103,45.2836283 45.2593103,44.95 C45.2593103,44.6035398 45.1282759,44.3725664 44.8662069,44.2442478 C43.8703448,43.679646 43.3462069,43.0380531 43.2937931,42.319469 C43.1627586,41.0362832 43.0972414,38.9831858 43.0972414,36.160177 L43.0972414,33.7862832 C43.0972414,33.439823 43.1103448,33.0420354 43.1234483,32.6057522 C43.1365517,32.169469 43.1365517,31.7331858 43.0972414,31.3482301 C42.9662069,30.45 42.4551724,29.6800885 41.5903448,29.0384956 C41.3282759,28.8588496 41.0793103,28.7818584 40.8696552,28.7818584 C40.6862069,28.7818584 40.542069,28.8331858 40.4110345,28.9358407 C40.28,29.0384956 40.2275862,29.2053097 40.28,29.4234513 L40.3455172,31.0915929 L29.0765517,30.45 L29.0765517,25.3814159 C30.9896552,25.5482301 32.4310345,25.6637168 33.4006897,25.7022124 L40.0834483,26.279646 C39.1662069,26.7929204 38.0655172,27.3190265 36.8075862,27.8836283 C36.4931034,28.0119469 36.3489655,28.2044248 36.3489655,28.4610619 C36.3489655,28.6663717 36.4275862,28.8460177 36.6110345,28.9743363 C36.7944828,29.1026549 37.0041379,29.1411504 37.2662069,29.1026549 C41.3806897,28.0247788 44.1848276,27.0880531 45.6786207,26.279646 C47.1724138,25.4712389 47.9324138,24.5473451 47.9324138,23.5207965 C47.9324138,22.9561947 47.7489655,22.5455752 47.382069,22.2376106 C47.0151724,21.929646 46.5172414,21.7884956 45.9144828,21.7884956 C45.2593103,21.7884956 44.4862069,21.9938053 43.6213793,22.4300885 C43.5427586,22.9946903 43.3462069,23.5079646 43.0710345,23.9699115 C42.7958621,24.4446903 42.2717241,24.9066372 41.5248276,25.3814159 L41.4593103,25.3814159 C31.7103448,23.6362832 22.1972414,22.4300885 12.8937931,21.7884956 C12.2386207,21.7371681 11.7668966,21.6088496 11.4786207,21.4035398 C11.1903448,21.1982301 11.0331034,20.7619469 10.9806897,20.120354 C10.8496552,19.2734513 10.4958621,18.8371681 9.93241379,18.8371681 C9.40827586,18.8371681 8.97586207,19.209292 8.62206897,19.9278761 C7.87517241,21.4676991 7.31172414,22.930531 6.91862069,24.290708 C11.1510345,24.380531 17.5455172,24.6756637 26.1151724,25.1889381 L26.1151724,30.2575221 L15.8289655,29.6800885 L16.0255172,26.7929204 L16.0255172,26.7287611 C16.0255172,26.3438053 15.8813793,26.1513274 15.5668966,26.1513274 C15.3048276,26.1513274 15.1082759,26.2283186 14.9772414,26.4079646 C14.1386207,27.3061947 13.6013793,27.9606195 13.3393103,28.3969027 C13.2082759,28.6022124 13.1427586,28.9486726 13.1427586,29.4234513 C13.1427586,34.6331858 13.0117241,38.6623894 12.7496552,41.4853982 C12.6186207,43.230531 12.1862069,44.770354 11.4393103,46.1048673 C11.5703448,46.1433628 11.7668966,46.1690265 12.0289655,46.1690265 C12.8675862,46.1690265 13.6144828,45.9252212 14.322069,45.4247788 C15.0296552,44.9243363 15.4227586,44.3725664 15.5013793,43.7309735 C15.5537931,43.5513274 15.5668966,43.2561947 15.5668966,42.8327434 C15.5668966,42.5247788 15.5537931,42.1269912 15.5013793,41.6137168 C15.4489655,41.1004425 15.4489655,40.6641593 15.5013793,40.330531 C15.5537931,39.6376106 15.58,38.5084071 15.6324138,36.8915929 C15.6848276,35.2747788 15.697931,34.0557522 15.697931,33.1960177 C15.7503448,32.6314159 15.7634483,31.8615044 15.7634483,30.8862832 L26.1151724,31.4637168 L26.1151724,37.1738938 C25.3289655,37.0840708 24.7917241,37.0455752 24.4772414,37.0455752 L22.5117241,36.8530973 C21.9351724,36.7632743 21.3848276,36.6734513 20.8082759,36.5707965 C20.2317241,36.4553097 19.8386207,36.4168142 19.6289655,36.4168142 C19.1834483,36.4168142 18.7903448,36.5579646 18.4496552,36.8659292 C18.1089655,37.1610619 17.86,37.610177 17.7289655,38.2132743 C18.5937931,37.9951327 19.5634483,37.8924779 20.6117241,37.8924779 C21.5289655,37.8924779 22.3282759,37.9053097 22.9965517,37.9566372 C23.6648276,37.9951327 24.2544828,38.0336283 24.7262069,38.0849558 C25.3289655,38.1619469 25.7875862,38.2132743 26.102069,38.2132743 L26.102069,43.5384956 L24.9882759,43.4743363 C22.9441379,43.2946903 21.5944828,43.1278761 20.9917241,42.9610619 C20.4675862,42.7429204 19.877931,42.6402655 19.2227586,42.6402655 C18.7510345,42.6402655 18.2924138,42.7942478 17.8862069,43.1278761 C17.48,43.4615044 17.1786207,43.9106195 16.9951724,44.5137168 C18.3055172,44.4238938 19.2227586,44.3853982 19.7468966,44.3853982 L22.1710345,44.4495575 L26.102069,44.7061947 L26.102069,48.940708 C25.1324138,48.850885 24.3855172,48.8123894 23.8089655,48.8123894 L12.802069,48.0424779 C12.3696552,47.9911504 11.4917241,47.85 10.1813793,47.5933628 C9.88,47.5420354 9.36896552,47.4650442 8.63517241,47.3367257 C7.90137931,47.2084071 7.40344828,47.1442478 7.08896552,47.1442478 C5.17586207,47.1185841 3.95724138,48.1707965 3.47241379,50.2752212 Z M30.7931034,43.9106195 L29.0896552,43.7823009 L29.0896552,38.3929204 L31.5137931,38.5853982 C31.8544828,38.6238938 32.2213793,38.8292035 32.562069,39.2013274 C32.9027586,39.5606195 33.4006897,40.240708 34.0034483,41.2287611 L37.4758621,39.1115044 C37.6855172,39.0216814 37.8034483,38.8035398 37.8034483,38.4699115 C37.8034483,38.2902655 37.7510345,38.149115 37.6724138,38.0207965 C37.5937931,37.8924779 37.4627586,37.8026549 37.2793103,37.7641593 C37.0696552,37.7128319 36.6765517,37.7 36.1,37.7 L34.5931034,37.7 C33.8068966,37.7 32.7586207,37.6486726 31.4482759,37.5716814 L29.0896552,37.3792035 L29.0896552,31.6690265 L40.4241379,32.3106195 C40.6075862,36.0318584 40.6862069,39.7915929 40.6862069,43.6026549 C40.6862069,43.8977876 40.6075862,44.1544248 40.4503448,44.3725664 C40.3062069,44.5778761 40.0834483,44.6676991 39.8213793,44.6292035 C37.0827586,44.3725664 34.0689655,44.1287611 30.7931034,43.9106195 Z M56.9344828,18.2469027 C56.9344828,17.9389381 56.7772414,17.7079646 56.4365517,17.5026549 C56.0958621,17.2973451 55.6765517,17.220354 55.1524138,17.220354 L52.4662069,17.2845133 C49.7931034,17.3615044 47.997931,17.4 47.0282759,17.3486726 C46.8972414,17.3486726 45.1806897,17.2716814 41.8524138,17.0920354 L39.1006897,16.9637168 L39.1006897,6.05663717 C39.1006897,4.59380531 38.9172414,3.49026549 38.5503448,2.72035398 C38.1834483,1.95044248 37.6068966,1.30884956 36.8206897,0.795575221 C36.0868966,0.282300885 35.1041379,0.0256637168 33.8724138,0.0256637168 C33.3482759,0.0256637168 33.0206897,0.295132743 32.8896552,0.859734513 C32.8110345,1.24469027 32.68,1.52699115 32.4965517,1.73230088 C32.3131034,1.93761062 32.0903448,2.0659292 31.7758621,2.14292035 L26.862069,3.74690265 C26.5475862,3.79823009 26.4034483,3.95221239 26.4034483,4.26017699 C26.4034483,4.38849558 26.4558621,4.5039823 26.5344828,4.61946903 C26.6131034,4.73495575 26.7441379,4.76061947 26.9275862,4.72212389 L28.5,4.52964602 C31.1206897,4.27300885 33.0862069,4.14469027 34.3965517,4.14469027 C34.9993103,4.14469027 35.457931,4.32433628 35.7331034,4.6579646 C36.0082759,4.99159292 36.1524138,5.56902655 36.1524138,6.39026549 L36.1524138,16.8482301 C23.5731034,16.2579646 15.3834483,15.8345133 11.5834483,15.6292035 C10.142069,15.5522124 8.47793103,15.2570796 6.60413793,14.7951327 L4.97931034,14.4743363 C4.75655172,14.4230088 4.45517241,14.410177 4.06206897,14.410177 C3.05310345,14.410177 2.20137931,14.6539823 1.46758621,15.1544248 C0.733793103,15.6548673 0.262068966,16.4119469 0,17.4769912 C3.31517241,17.0150442 6.26344828,16.8353982 8.84482759,16.9637168 L36.1655172,18.1185841 L36.1655172,19.1451327 C36.1131034,20.0946903 36.0475862,20.8646018 35.9296552,21.480531 C35.8117241,22.0964602 35.6151724,22.7893805 35.3006897,23.559292 C37.7117241,23.4309735 39.5593103,22.9946903 40.8696552,22.2761062 C41.3151724,21.9681416 41.5248276,21.6986726 41.5248276,21.4420354 C41.5248276,21.1084071 41.1972414,20.8132743 40.542069,20.6079646 C39.5724138,20.4026549 39.1006897,19.9150442 39.1006897,19.1964602 L39.1006897,18.2982301 C42.5075862,18.4265487 44.9186207,18.5548673 46.3075862,18.6831858 C47.2248276,18.760177 47.8931034,18.8884956 48.3386207,19.0424779 C48.7841379,19.1964602 49.1772414,19.4787611 49.517931,19.9150442 C49.8586207,20.3513274 50.3696552,21.1212389 51.0248276,22.2247788 L56.0041379,19.4017699 C56.62,19.0681416 56.9344828,18.6831858 56.9344828,18.2469027 Z M25.0931034,8.05840708 C25.0931034,7.49380531 24.9096552,7.05752212 24.5689655,6.74955752 C24.2282759,6.44159292 23.8351724,6.2619469 23.3896552,6.2619469 C22.3937931,6.2619469 21.4110345,6.82654867 20.4413793,7.9300885 C20.4413793,8.82831858 20.0351724,9.67522124 19.2358621,10.4964602 C18.4365517,11.3176991 17.1524138,12.2287611 15.4096552,13.2553097 C15.2,13.3836283 15.082069,13.5632743 15.082069,13.7685841 C15.082069,13.9738938 15.1868966,14.1535398 15.3703448,14.2818584 C15.5537931,14.410177 15.7765517,14.4230088 15.9993103,14.3460177 C22.0662069,12.2929204 25.0931034,10.1884956 25.0931034,8.05840708 Z" id="Shape"></path>
                    </g>
                </g>
                <g id="程-41223" transform="translate(289.000000, 2.000000)">
                    <g id="Group" transform="translate(28.000000, 27.000000) scale(-1, 1) rotate(-180.000000) translate(-28.000000, -27.000000) ">
                        <path d="M20.6557377,22.0874109 C20.3147541,22.343943 19.9344262,22.8057007 19.5409836,23.4983373 C19.4885246,24.5244656 19.0688525,25.6916865 18.2295082,26.9871734 C17.3901639,28.2826603 16.3409836,29.5011876 15.0819672,30.6042755 L15.0819672,6.36199525 C15.0819672,4.2327791 15.1344262,2.50118765 15.2131148,1.1672209 L15.2131148,1.10308789 C15.2131148,0.7695962 15.1344262,0.513064133 14.9770492,0.333491686 C14.8196721,0.15391924 14.6098361,0.07695962 14.347541,0.07695962 C14.0065574,0.07695962 13.6918033,0.256532067 13.4295082,0.590023753 C12.9836066,1.18004751 12.4590164,1.94964371 11.8557377,2.89881235 C11.6852459,3.20665083 11.5934426,3.54014252 11.5934426,3.92494062 C11.5934426,4.13016627 11.6590164,4.42517815 11.7901639,4.75866983 C12.052459,5.32304038 12.2098361,5.81045131 12.2885246,6.27220903 C12.3672131,6.73396675 12.3934426,7.34964371 12.3934426,8.17054632 L12.3934426,32.9900238 C10.9114754,28.3724466 9.33770492,24.6783848 7.67213115,21.8950119 C6.84590164,20.5353919 5.84918033,19.0988124 4.68196721,17.6365796 C3.5147541,16.1743468 2.33442623,14.8275534 1.1147541,13.6346793 C0.944262295,13.4551069 0.747540984,13.3781473 0.524590164,13.3781473 C0.170491803,13.3781473 0,13.5577197 0,13.8912114 C0,14.0707838 0.0655737705,14.2247031 0.196721311,14.4042755 C1.7704918,16.5334917 2.96393443,18.3035629 3.76393443,19.6888361 C4.56393443,21.0741093 5.50819672,22.8826603 6.55737705,25.1144893 C8.09180328,28.2313539 9.46885246,31.9767221 10.6885246,36.3377672 L8.26229508,36.0812352 C7.90819672,36.0299287 7.3442623,35.9273159 6.55737705,35.7605701 C6.33442623,35.7092637 5.96721311,35.6451306 5.44262295,35.568171 C4.91803279,35.4783848 4.45901639,35.439905 4.06557377,35.439905 C2.58360656,35.439905 1.63934426,36.1581948 1.24590164,37.6204276 C3.08196721,37.3638955 4.78688525,37.2356295 6.36065574,37.2356295 C7.0557377,37.2356295 7.56721311,37.2484561 7.86885246,37.2997625 L12.3934426,37.6845606 L12.3934426,47.4327791 C9.94098361,46.8684086 7.18688525,46.4066508 4.13114754,46.0218527 L3.93442623,46.0218527 C3.67213115,46.0218527 3.47540984,46.0731591 3.3442623,46.175772 C3.21311475,46.2783848 3.14754098,46.4066508 3.14754098,46.5349169 C3.14754098,46.8684086 3.40983607,47.112114 3.93442623,47.24038 C6.68852459,48.0099762 9.04918033,48.7539192 11.0163934,49.4465558 C12.9836066,50.1391924 15.0295082,50.9985748 17.1803279,51.9862233 C17.7836066,52.2427553 18.3081967,52.512114 18.7278689,52.8199525 C19.1344262,53.1149644 19.6327869,53.4997625 20.1967213,53.9743468 C21.7180328,52.5634204 22.7016393,51.2551069 23.147541,50.0622328 C23.2,49.9339667 23.2131148,49.7800475 23.2131148,49.6133017 C23.2131148,49.1002375 22.9639344,48.8437055 22.4918033,48.8437055 C22.1770492,48.8437055 21.8360656,48.9719715 21.442623,49.2285036 C20.9704918,49.5619952 20.5114754,49.7415677 20.0655738,49.7415677 C19.6721311,49.7415677 19.2786885,49.6517815 18.8852459,49.4850356 C18.2819672,49.2669834 16.9967213,48.8437055 15.0819672,48.2023753 L15.0819672,37.9410926 L17.704918,38.1976247 C18.2819672,38.2361045 18.6754098,38.4028504 18.9114754,38.6850356 C19.1606557,38.9543943 19.5803279,39.6342043 20.1967213,40.711639 L23.4754098,38.6593824 C24,38.3515439 24.2622951,38.0180523 24.2622951,37.6332542 C24.2622951,37.4536817 24.1442623,37.3125891 23.895082,37.184323 C23.6459016,37.056057 23.3180328,36.991924 22.8721311,36.991924 C20.5901639,36.991924 18.9245902,36.9406176 17.8229508,36.863658 L15.0688525,36.6712589 L15.0688525,32.1819477 C17.8229508,30.5914489 19.9213115,29.0907363 21.3639344,27.6669834 C22.8065574,26.2304038 23.5278689,24.9862233 23.5278689,23.9216152 C23.5278689,23.280285 23.3967213,22.7543943 23.1344262,22.3567696 C22.8721311,21.9591449 22.4786885,21.7410926 21.9540984,21.7410926 C21.4295082,21.7410926 20.9967213,21.8308789 20.6557377,22.0874109 Z M27.4754098,46.6631829 C27.3442623,48.2023753 26.9377049,49.6774347 26.2295082,51.088361 C27.9344262,50.9985748 29.1147541,50.5752969 29.7704918,49.8057007 C30.1639344,49.3695962 30.3606557,48.7539192 30.3606557,47.9458432 C30.3606557,47.5610451 30.347541,47.2788599 30.295082,47.112114 C30.2163934,46.4194774 30.1639344,45.6114014 30.1639344,44.6750594 C30.242623,42.1866983 30.295082,40.031829 30.295082,38.1976247 L44.4590164,39.0313539 C44.5901639,42.2380048 44.6557377,45.4190024 44.6557377,48.5871734 C44.6557377,48.9206651 44.5770492,49.1771971 44.4196721,49.3311164 C44.2754098,49.472209 43.9737705,49.536342 43.5278689,49.4850356 L36.1836066,48.9078385 C35.7377049,48.8565321 35.2,48.728266 34.5442623,48.5230404 C33.9409836,48.3434679 33.442623,48.2665083 33.1016393,48.2665083 C31.842623,48.2665083 30.9508197,48.9206651 30.4786885,50.2546318 C32.104918,50.0750594 33.4163934,50.0109264 34.4131148,50.0622328 L35.8557377,50.1263658 C38.9508197,50.3315914 40.957377,50.4855107 41.8229508,50.5752969 C42.4262295,50.6137767 42.8721311,50.7548694 43.1344262,50.9857482 C43.3967213,51.2166271 43.9344262,51.8964371 44.7737705,53.0123515 L48.642623,50.5752969 C48.9836066,50.3187648 49.1672131,50.0622328 49.1672131,49.8057007 C49.1672131,49.4978622 48.852459,49.1387173 48.2491803,48.7154394 C47.8032787,48.4589074 47.5278689,48.1510689 47.3967213,47.8175772 C47.2655738,47.4712589 47.1868852,46.983848 47.1344262,46.3425178 C47.0557377,43.5976247 47.0032787,41.1605701 47.0032787,39.0313539 C47.0032787,38.7748219 47.0688525,38.1334917 47.2,37.1073634 L47.2,36.7866983 C47.2,36.2223278 47.0163934,35.7605701 46.6754098,35.375772 C46.2819672,34.9396675 45.8229508,34.5805226 45.2983607,34.2855107 C45.1147541,34.1957245 44.9836066,34.1572447 44.904918,34.1572447 C44.5114754,34.1572447 44.3147541,34.4907363 44.3147541,35.1833729 L44.3803279,37.6845606 L30.347541,36.8508314 L30.347541,34.0289786 C30.347541,33.5543943 30.1639344,33.3235154 29.8229508,33.3235154 C29.6131148,33.3235154 29.3770492,33.4004751 29.1672131,33.5800475 C28.7737705,33.9135392 28.3278689,34.3881235 27.8557377,34.9909739 C27.5934426,35.2859857 27.4622951,35.6451306 27.4622951,36.0812352 C27.4622951,36.376247 27.4754098,36.6071259 27.5278689,36.7866983 C27.6590164,37.3382423 27.7245902,38.1719715 27.7245902,39.287886 C27.7377049,41.6351544 27.6590164,44.0978622 27.4754098,46.6631829 Z M55.9344262,7.28551069 C55.9344262,7.02897862 55.8163934,6.79809976 55.6065574,6.61852732 C55.3967213,6.43895487 55.0688525,6.33634204 54.6229508,6.33634204 C51.6065574,6.33634204 49.3901639,6.32351544 48,6.27220903 L45.704918,6.20807601 C43.3442623,6.13111639 40.4459016,6.00285036 37.0229508,5.84893112 C33.6,5.69501188 30.1508197,5.54109264 26.6885246,5.36152019 C26.3737705,5.36152019 26.0459016,5.31021378 25.6655738,5.23325416 C25.2852459,5.15629454 25.0360656,5.09216152 24.904918,5.04085511 C24.1704918,4.83562945 23.5409836,4.72019002 23.0688525,4.72019002 C21.442623,4.72019002 20.3934426,5.56674584 19.9213115,7.28551069 C22.0196721,6.90071259 24.4459016,6.72114014 27.2,6.77244656 C28.904918,6.77244656 31.6590164,6.88788599 35.4622951,7.09311164 L35.4622951,17.4185273 L32.4459016,17.1619952 C32,17.1106888 31.2786885,17.0209026 30.2819672,16.8413302 C30.0983607,16.7900238 29.8885246,16.7643705 29.6262295,16.7130641 C29.3639344,16.6617577 29.0885246,16.6361045 28.7737705,16.5847981 C28.2491803,16.5078385 27.8688525,16.4565321 27.6590164,16.4565321 C26.0065574,16.4565321 24.9180328,17.2261283 24.4459016,18.7653207 C26.4918033,18.3805226 28.5245902,18.2394299 30.5442623,18.3163895 C31.5409836,18.3163895 33.1803279,18.431829 35.4622951,18.6370546 L35.4622951,27.4874109 C33.1803279,27.2308789 29.8885246,26.9871734 25.5606557,26.7819477 L25.4295082,26.7819477 C24.852459,26.7819477 24.5770492,26.9486936 24.5770492,27.2950119 C24.5770492,27.67981 24.8393443,27.8850356 25.3639344,27.936342 C32.7081967,28.8726841 38.5311475,29.9629454 42.8065574,31.2071259 C43.9081967,31.5021378 44.695082,31.784323 45.1934426,32.0408551 C45.6918033,32.2973872 46.2688525,32.6821853 46.9245902,33.1952494 C47.9737705,32.0408551 48.9442623,30.6684086 49.8098361,29.0907363 C49.9409836,28.9111639 50.0065574,28.7187648 50.0065574,28.5135392 C50.0065574,28.0774347 49.7967213,27.872209 49.3508197,27.872209 C49.1409836,27.872209 48.904918,27.936342 48.695082,28.0646081 C48.2229508,28.3980998 47.8295082,28.6546318 47.5409836,28.8085511 C47.2655738,28.9496437 47.0032787,29.0394299 46.7803279,29.0394299 C46.5180328,29.0394299 46.3081967,29.0137767 46.1245902,28.9752969 C43.1606557,28.4622328 40.5639344,28.0774347 38.3868852,27.8209026 L38.3868852,18.8422803 L42.5180328,19.2270784 C43.4885246,19.304038 44.1704918,19.5092637 44.5901639,19.8427553 C45.0098361,20.176247 45.652459,20.9458432 46.5311475,22.1771971 L50.1377049,19.8684086 C50.5836066,19.5605701 50.7934426,19.239905 50.7934426,18.9064133 C50.7934426,18.4446556 50.4,18.2009501 49.6131148,18.2009501 C47.9606557,18.2009501 45.8885246,18.1239905 43.4491803,17.9444181 L40.8262295,17.752019 C40.2491803,17.752019 39.4491803,17.7007126 38.4,17.623753 L38.4,7.23420428 L47.7114754,7.61900238 C48.4196721,7.67030879 48.9704918,7.87553444 49.4163934,8.26033254 C49.8622951,8.64513064 50.5311475,9.42755344 51.4491803,10.6332542 L55.4491803,8.06793349 C55.7901639,7.87553444 55.9344262,7.61900238 55.9344262,7.28551069 Z" id="Shape"></path>
                    </g>
                </g>
                <g id="業-41219" transform="translate(59.000000, 0.000000)">
                    <g id="Group" transform="translate(28.000000, 29.500000) scale(-1, 1) rotate(-180.000000) translate(-28.000000, -29.500000) ">
                        <path d="M5.46052632,41.4945055 C4.44736842,41.4945055 3.59210526,41.7408791 2.89473684,42.2465934 C2.19736842,42.7393407 1.71052632,43.5303297 1.44736842,44.6065934 C4.77631579,44.1268132 7.73684211,43.9582418 10.3289474,44.0879121 L19.7368421,44.5417582 L19.7368421,54.267033 C19.7368421,55.3432967 19.7105263,56.2250549 19.6315789,56.9252747 C19.5657895,57.6125275 19.3947368,58.2997802 19.1315789,59 C20.9210526,58.8703297 22.4342105,58.5850549 23.6710526,58.1571429 C24.5131579,57.8459341 24.9210526,57.5217582 24.9210526,57.1846154 C24.9210526,56.8734066 24.8421053,56.6659341 24.6578947,56.5362637 C24.4736842,56.4065934 24.1447368,56.2898901 23.6710526,56.2120879 C23.2236842,56.1213187 22.9605263,55.9397802 22.8552632,55.6674725 C22.7368421,55.3821978 22.6973684,54.7857143 22.6973684,53.878022 L22.6973684,44.6714286 L30.7236842,45.0604396 L30.7236842,54.0725275 C30.7236842,55.1487912 30.6973684,56.0305495 30.6184211,56.7307692 C30.5526316,57.418022 30.3815789,58.1052747 30.1184211,58.8054945 C31.9078947,58.6758242 33.4210526,58.3905495 34.6578947,57.9626374 C35.5,57.6514286 35.9078947,57.3272527 35.9078947,56.9901099 C35.9078947,56.6789011 35.8289474,56.4714286 35.6447368,56.3417582 C35.4605263,56.2120879 35.1315789,56.0953846 34.6578947,56.0175824 C34.2105263,55.9268132 33.9473684,55.7452747 33.8421053,55.472967 C33.7236842,55.1876923 33.6842105,54.5912088 33.6842105,53.6835165 L33.6842105,45.2549451 C34.1578947,45.2549451 34.8552632,45.2938462 35.7236842,45.3846154 L35.8552632,45.5791209 C37.6447368,48.3021978 38.9342105,50.4547253 39.6710526,52.0626374 C40.1447368,53.1 40.5921053,54.3707692 40.9868421,55.8879121 C43.0394737,54.8505495 44.6842105,53.7872527 45.9210526,52.710989 C46.1842105,52.5294505 46.3157895,52.321978 46.3157895,52.0626374 C46.3157895,51.8810989 46.1973684,51.7254945 45.9473684,51.5698901 C45.6973684,51.4142857 45.4078947,51.3364835 45.0526316,51.3364835 C44.7368421,51.3364835 44.5263158,51.3494505 44.3947368,51.4013187 C44.2631579,51.4402198 44.1184211,51.4661538 43.9342105,51.4661538 C43.4605263,51.4661538 42.9473684,51.116044 42.4210526,50.4287912 C40.6578947,48.1725275 39.0657895,46.5127473 37.6184211,45.4364835 L43.4078947,45.8254945 C44.3815789,45.9032967 45.0657895,46.02 45.5131579,46.1496703 C45.9605263,46.2793407 46.3552632,46.5516484 46.6973684,46.9536264 C47.0394737,47.3556044 47.5394737,48.0947253 48.1447368,49.1320879 L52.8157895,46.2793407 C53.1578947,46.0589011 53.3421053,45.7995604 53.3421053,45.5013187 C53.3421053,45.241978 53.2105263,45.0085714 52.9473684,44.827033 C52.6842105,44.6454945 52.2894737,44.5158242 51.7631579,44.463956 C51.1578947,44.4120879 50.5657895,44.4120879 49.9868421,44.438022 C49.4078947,44.450989 48.9210526,44.463956 48.4736842,44.463956 C47.8684211,44.5028571 46.9473684,44.5287912 45.7105263,44.5287912 C44.7368421,44.5287912 44.0789474,44.5028571 43.7368421,44.463956 L38.1447368,44.1397802 C34.0657895,43.9193407 29.75,43.6859341 25.2236842,43.4265934 C20.6973684,43.1672527 16.5657895,42.9208791 12.8815789,42.7134066 C11.4342105,42.6226374 9.81578947,42.3373626 8.01315789,41.8705495 L6.36842105,41.5463736 C6.15789474,41.5074725 5.85526316,41.4945055 5.46052632,41.4945055 Z M11.7105263,49.949011 C11.1842105,50.7918681 10.1710526,52.0367033 8.68421053,53.6835165 C8.55263158,53.890989 8.48684211,54.0725275 8.48684211,54.2021978 C8.48684211,54.4096703 8.59210526,54.5652747 8.77631579,54.656044 C8.97368421,54.7338462 9.19736842,54.6949451 9.46052632,54.5263736 C14.1447368,51.8421978 16.5,49.5081319 16.5,47.5241758 C16.5,46.3571429 15.9605263,45.7736264 14.8552632,45.7736264 C13.9342105,45.7736264 13.1315789,46.3571429 12.4210526,47.5241758 C12.4868421,48.3021978 12.2368421,49.1191209 11.7105263,49.949011 Z M55,6.61318681 C55,6.40571429 54.8684211,6.27604396 54.6052632,6.22417582 C53.3684211,6.14637363 52.6184211,6.0167033 52.3026316,5.8610989 C51.9868421,5.70549451 51.6973684,5.35538462 51.3815789,4.7978022 C51.1710526,4.46065934 50.8684211,4.27912088 50.5263158,4.27912088 C50.2631579,4.27912088 49.6710526,4.46065934 48.75,4.7978022 C44.9342105,6.40571429 41.5,8.32483516 38.4210526,10.607033 C35.3421053,12.8892308 32.5,15.6123077 29.8684211,18.8021978 L28.0921053,18.6725275 L28.0921053,6.74285714 L28.1578947,3.82527473 C28.2105263,3.30659341 28.2236842,2.5156044 28.2236842,1.42637363 C28.2236842,1.03736264 28.1052632,0.713186813 27.8947368,0.453846154 C27.6842105,0.194505495 27.4210526,0.0648351648 27.1052632,0.0648351648 C26.7105263,0.0648351648 26.3947368,0.246373626 26.1842105,0.583516484 C25.4736842,1.56901099 25.0131579,2.2821978 24.8026316,2.72307692 C24.5394737,3.16395604 24.4078947,3.56593407 24.4078947,3.95494505 C24.4078947,4.16241758 24.5263158,4.53846154 24.7368421,5.05714286 C25.1315789,5.96483516 25.3289474,7.46901099 25.3289474,9.5956044 L25.3289474,18.5428571 L24.6052632,18.478022 C21.3157895,14.6397802 18.5657895,11.812967 16.3815789,10.0494505 C15.0657895,9.01208791 13.9868421,8.1821978 13.1184211,7.58571429 C12.25,6.98923077 11.2894737,6.41868132 10.1973684,5.9 C9.27631579,5.45912088 7.96052632,4.97934066 6.25,4.44769231 C4.53947368,3.91604396 2.80263158,3.43626374 1.05263158,3.04725275 C0.960526316,2.99538462 0.828947368,2.98241758 0.657894737,2.98241758 C0.263157895,2.98241758 0.0657894737,3.11208791 0.0657894737,3.37142857 C0.0657894737,3.63076923 0.236842105,3.82527473 0.592105263,3.95494505 C5.28947368,5.8221978 8.97368421,7.78021978 11.6447368,9.85494505 C14.9342105,12.3705495 17.9078947,15.1584615 20.5921053,18.2186813 L14.6052632,17.8945055 C13.7368421,17.8426374 12.5526316,17.7 11.0526316,17.4406593 C9.73684211,17.1294505 8.61842105,16.9868132 7.69736842,16.9868132 C5.5,16.9868132 4.21052632,18.0371429 3.81578947,20.1637363 C6.35526316,19.5931868 9.03947368,19.3208791 11.8421053,19.3208791 L14.2105263,19.3857143 L25.3289474,19.9043956 L25.3289474,26.3879121 L19.1447368,25.9340659 C18.6973684,25.8951648 17.7763158,25.7654945 16.3815789,25.5450549 C15.5131579,25.3246154 14.7894737,25.2208791 14.2105263,25.2208791 C13.2894737,25.2208791 12.5526316,25.4153846 12,25.8043956 C11.4473684,26.1934066 11.0657895,26.8417582 10.8421053,27.7494505 C12.4210526,27.3604396 14.1184211,27.1659341 15.9078947,27.1659341 C16.3815789,27.1659341 17.3684211,27.2048352 18.8684211,27.2956044 L25.3157895,27.6846154 L25.3157895,33.3252747 C23.9473684,33.1956044 21.2236842,32.9751648 17.0921053,32.6769231 L13.9342105,32.4824176 C13.1973684,32.4305495 12.2894737,32.2879121 11.2368421,32.0285714 C10.2763158,31.847033 9.63157895,31.7692308 9.32894737,31.7692308 C7.26315789,31.7692308 6.06578947,32.6769231 5.71052632,34.4923077 C7.15789474,34.1032967 9.28947368,33.9087912 12.0921053,33.9087912 C13.1447368,33.9087912 13.9210526,33.9217582 14.3947368,33.9736264 C17.2368421,34.1032967 22.4736842,34.4404396 30.0526316,35.010989 C31.1578947,36.9949451 31.9078947,38.7065934 32.3552632,40.132967 C32.75,41.2481319 32.8947368,42.2725275 32.8157895,43.1802198 C34.6578947,42.7393407 36.2894737,42.0261538 37.6842105,41.0406593 C38.0263158,40.8202198 38.2105263,40.5868132 38.2105263,40.3274725 C38.2105263,39.7569231 37.6052632,39.4846154 36.3684211,39.4846154 C35.8421053,39.4846154 35.3157895,39.1085714 34.7894737,38.3824176 C33.7894737,37.0338462 32.8289474,35.9575824 31.9605263,35.1406593 L35.0526316,35.3351648 L37.8157895,35.5296703 C39.2631579,35.6074725 40.2631579,35.7241758 40.8421053,35.8538462 C41.4210526,35.9835165 41.8947368,36.2558242 42.2894737,36.6578022 C42.6842105,37.0597802 43.1973684,37.7989011 43.8026316,38.8362637 L48.2763158,36.0483516 C48.8026316,35.7371429 49.0657895,35.4 49.0657895,35.010989 C49.0657895,34.7905495 48.9473684,34.609011 48.6973684,34.4663736 C48.4473684,34.3107692 48.1447368,34.2589011 47.75,34.3107692 C46.9078947,34.3885714 45.6578947,34.4404396 44,34.4404396 C42.1578947,34.4404396 40.3815789,34.3756044 38.6710526,34.2459341 L28.0789474,33.5327473 L28.0789474,27.8791209 L35.6447368,28.332967 C36.6447368,28.3718681 37.3684211,28.5663736 37.7763158,28.8775824 C38.1842105,29.1887912 38.8157895,29.9408791 39.6447368,31.1079121 L43.7236842,28.709011 C44.0657895,28.4885714 44.25,28.2292308 44.25,27.930989 C44.25,27.6716484 44.0657895,27.4512088 43.7236842,27.2826374 C43.3815789,27.1010989 42.8684211,27.0232967 42.2105263,27.0232967 C39.5,27.0232967 37.1578947,26.9714286 35.2368421,26.8936264 L28.0657895,26.5046154 L28.0657895,20.0989011 L39.9078947,20.6824176 C41.0394737,20.7342857 41.8947368,20.8250549 42.4342105,20.9676923 C42.9736842,21.1103297 43.4605263,21.4085714 43.8552632,21.8105495 C44.25,22.2125275 44.7631579,22.9516484 45.3684211,23.989011 L50.3684211,21.1362637 C50.8421053,20.8769231 51.0921053,20.5527473 51.0921053,20.1637363 C51.0921053,19.9043956 50.9473684,19.6969231 50.6315789,19.5153846 C50.3157895,19.3338462 49.8947368,19.256044 49.3157895,19.256044 L43,19.3208791 C41.2894737,19.3208791 40.0526316,19.3079121 39.3157895,19.256044 C37.8684211,19.2041758 35.4210526,19.1134066 31.9473684,18.9318681 C35.5526316,15.7679121 38.9473684,13.3301099 42.1842105,11.5665934 C45.4210526,9.80307692 49.5526316,8.2989011 54.6052632,7.0021978 C54.8684211,6.95032967 55,6.82065934 55,6.61318681 Z M18.4868421,36.6967033 C18.6710526,37.9934066 18.0394737,39.4586813 16.6447368,41.1054945 C16.5657895,41.2740659 16.5131579,41.4037363 16.5131579,41.4945055 C16.5131579,41.6241758 16.5657895,41.7408791 16.6447368,41.8575824 C16.7236842,41.9613187 16.8552632,42.0131868 17.0394737,42.0131868 C17.1710526,42.0131868 17.3684211,41.9483516 17.6315789,41.8186813 C19.2631579,40.910989 20.5,39.9514286 21.3421053,38.94 C22.1973684,37.9156044 22.6315789,37.0986813 22.6315789,36.4503297 C22.6315789,36.0094505 22.5,35.6593407 22.2368421,35.387033 C21.9736842,35.1017582 21.5921053,34.9720879 21.1184211,34.9720879 C20.1184211,34.9461538 19.2236842,35.5296703 18.4868421,36.6967033 Z" id="Shape"></path>
                    </g>
                </g>
                <g id="職-41220" transform="translate(116.000000, 1.000000)">
                    <g id="Group" transform="translate(28.000000, 28.500000) scale(-1, 1) rotate(-180.000000) translate(-28.000000, -28.500000) ">
                        <path d="M54.6293706,6.06108597 C54.5771562,5.80316742 54.5641026,5.48076923 54.5641026,5.0938914 C54.5641026,4.44909502 54.7468531,3.94615385 55.0862471,3.61085973 C55.5561772,3.09502262 55.8041958,2.59208145 55.8041958,2.12782805 C55.8041958,1.81832579 55.6867133,1.59909502 55.4778555,1.41855204 C55.2689977,1.23800905 54.9687646,1.16063348 54.6293706,1.16063348 C54.4205128,1.16063348 54.041958,1.23800905 53.5198135,1.41855204 C52.2927739,1.88280543 50.9221445,2.91447964 49.4079254,4.51357466 C47.8937063,6.11266968 46.4578089,8.12443439 45.1002331,10.5746606 L44.7086247,11.2839367 C44.395338,10.7680995 43.9384615,10.1104072 43.3379953,9.28506787 C41.8237762,7.29909502 40.1529138,5.68710407 38.3515152,4.44909502 C36.5501166,3.21108597 33.9785548,1.80542986 30.6759907,0.257918552 C30.4149184,0.128959276 30.2060606,0.064479638 30.02331,0.064479638 C29.6839161,0.064479638 29.5011655,0.206334842 29.5011655,0.515837104 C29.5011655,0.825339367 29.6447552,1.04457014 29.958042,1.22511312 C33.1692308,3.3658371 35.62331,5.17126697 37.2680653,6.64140271 C38.9128205,8.11153846 40.3226107,9.6719457 41.4452214,11.3484163 C42.437296,12.7669683 43.0899767,13.7470588 43.4032634,14.3144796 C42.5417249,16.7131222 41.8498834,19.5244344 41.3799534,22.7226244 C40.9100233,25.9208145 40.5445221,29.7895928 40.3356643,34.3031674 L38.2470862,34.1742081 C29.7622378,33.658371 25.3370629,33.3746606 24.997669,33.3359729 L23.039627,33.0780543 C22.1780886,32.9104072 21.5254079,32.8201357 21.0815851,32.8201357 C19.5934732,32.8201357 18.6797203,33.6325792 18.3403263,35.270362 C20.2461538,34.8447964 22.3216783,34.6255656 24.5407925,34.6255656 C25.4545455,34.6255656 26.1202797,34.6513575 26.5641026,34.6900452 L29.6969697,34.8834842 L29.6969697,35.0124434 L30.6107226,38.1719457 L31.5244755,41.4604072 C31.8377622,42.5823529 31.981352,43.5237557 31.981352,44.2975113 C31.981352,44.7746606 31.9682984,45.1615385 31.9160839,45.4581448 C33.4825175,45.0325792 34.9706294,44.4264706 36.3543124,43.6527149 C36.8242424,43.3947964 37.0722611,43.111086 37.0722611,42.8144796 C37.0722611,42.4276018 36.6937063,42.1954751 35.962704,42.1052036 C35.5710956,42.0665158 35.2969697,41.9891403 35.1142191,41.8730769 C34.9314685,41.7570136 34.7226107,41.4733032 34.4615385,40.9961538 L33.6130536,39.4486425 C32.7776224,37.7721719 31.9291375,36.2633484 31.0675991,34.9350679 L40.2703963,35.5153846 C40.1920746,37.5400452 40.0876457,40.6350679 40.009324,44.8004525 L39.8787879,51.5708145 C39.8004662,53.9823529 39.604662,55.761991 39.2913753,56.9226244 C40.9361305,56.7936652 42.437296,56.4970588 43.7948718,56.0199095 C44.630303,55.7233032 45.034965,55.400905 45.034965,55.0527149 C45.034965,54.7561086 44.9566434,54.5368778 44.7738928,54.4079186 C44.5911422,54.2789593 44.2648019,54.1757919 43.7948718,54.0855204 C42.9594406,53.9178733 42.5547786,52.9248869 42.5547786,51.119457 L42.6853147,43.3819005 L42.8811189,35.7088235 C43.7165501,35.799095 44.9044289,35.8764706 46.4708625,35.9667421 C47.4368298,36.0054299 48.0895105,36.1988688 48.4550117,36.5470588 C48.8205128,36.8952489 49.4470862,37.6819005 50.3086247,38.9328054 L54.0941725,36.5470588 C54.3030303,36.4180995 54.4857809,36.2633484 54.616317,36.0570136 C54.7468531,35.8506787 54.8121212,35.6830317 54.8121212,35.5153846 C54.8121212,35.0382353 54.3552448,34.8061086 53.4414918,34.8061086 L50.9090909,34.8061086 C48.2461538,34.8061086 46.1575758,34.741629 44.6433566,34.6126697 L42.8811189,34.4837104 C43.011655,30.8728507 43.24662,27.6746606 43.5599068,24.9149321 C43.8731935,22.1552036 44.3822844,19.6533937 45.034965,17.4095023 L45.2307692,17.7963801 C46.7972028,20.839819 48.037296,23.9864253 48.951049,27.2104072 C49.1599068,27.9454751 49.2773893,28.6289593 49.2773893,29.2737557 C49.2773893,29.6606335 49.2643357,29.9443439 49.2121212,30.111991 C51.0918415,29.5961538 52.6191142,28.9771493 53.8461538,28.2420814 C54.1072261,28.1131222 54.2377622,27.8938914 54.2377622,27.5972851 C54.2377622,27.429638 54.1594406,27.261991 54.0027972,27.1072398 C53.8461538,26.9524887 53.5981352,26.8622172 53.2456876,26.8235294 C52.6713287,26.7848416 52.3058275,26.6945701 52.0969697,26.5656109 C51.8881119,26.4366516 51.7184149,26.1529412 51.5487179,25.7273756 L51.0918415,24.4377828 C50.3608392,22.4260181 49.6689977,20.7108597 49.0685315,19.3438914 C48.4680653,17.9769231 47.6979021,16.4552036 46.7841492,14.8303167 C46.7058275,14.7013575 46.6275058,14.5595023 46.5491841,14.4176471 C46.4708625,14.2757919 46.3925408,14.1081448 46.2620047,13.9276018 C47.6456876,10.6520362 49.590676,7.91809955 52.0708625,5.67420814 C53.0368298,9.02714932 53.9505828,12.4574661 54.8121212,15.9909502 C54.8904429,16.3778281 55.0862471,16.571267 55.3995338,16.571267 C55.5822844,16.571267 55.7128205,16.5067873 55.8172494,16.3778281 C55.9216783,16.2488688 55.9608392,16.0554299 55.9216783,15.7975113 L54.6293706,6.06108597 Z M26.616317,50.938914 C26.616317,51.4934389 26.4335664,52.1382353 26.0941725,52.8733032 C25.7547786,53.608371 25.1282051,54.5239819 24.2666667,55.6459276 C24.1361305,55.8651584 24.0708625,56.0585973 24.0708625,56.2262443 C24.0708625,56.4841629 24.2013986,56.6131222 24.4624709,56.6131222 C24.593007,56.6131222 24.7757576,56.5486425 24.9846154,56.4196833 C26.8643357,55.1687783 28.234965,54.0210407 29.1356643,52.9635747 C30.0363636,51.9061086 30.4671329,50.8744344 30.4671329,49.8427602 C30.4671329,48.6821267 29.9319347,48.10181 28.8354312,48.10181 C28,48.10181 27.2167832,48.7208145 26.4857809,49.9717195 C26.5771562,50.1909502 26.616317,50.5133484 26.616317,50.938914 Z M18.1314685,3.80429864 C18.183683,3.5979638 18.1967366,3.27556561 18.1967366,2.83710407 C18.1967366,2.39864253 18.1184149,2.05045249 17.9356643,1.74095023 C17.5962704,1.14773756 17.1524476,0.64479638 16.630303,0.257918552 C16.3692308,0.0773755656 16.1212121,0 15.9123543,0 C15.4424242,0 15.1944056,0.335294118 15.1944056,1.03167421 L15.1944056,16.3133484 C11.6307692,14.6368778 8.27599068,13.3343891 5.14312354,12.3800905 C4.62097902,12.1995475 4.28158508,11.9803167 4.12494172,11.7095023 C3.96829837,11.4386878 3.88997669,10.7938914 3.88997669,9.80090498 C3.88997669,9.54298643 3.81165501,9.33665158 3.65501166,9.1561086 C3.4983683,8.97556561 3.31561772,8.89819005 3.10675991,8.89819005 C2.80652681,8.89819005 2.51934732,9.09162896 2.25827506,9.47850679 C1.30536131,10.9486425 0.587412587,12.5864253 0.104428904,14.4434389 C1.24009324,14.4434389 2.55850816,14.5852941 4.08578089,14.8947964 L6.10909091,15.2816742 L6.17435897,48.811086 C5.91328671,48.7723982 5.56083916,48.7079186 5.13006993,48.6176471 C4.6993007,48.5273756 4.32074592,48.4886878 4.02051282,48.4886878 C3.36783217,48.4886878 2.81958042,48.6692308 2.34965035,49.0303167 C1.87972028,49.3914027 1.57948718,49.9588235 1.40979021,50.7325792 C2.53240093,50.3843891 3.83776224,50.2167421 5.32587413,50.2167421 L6.43543124,50.2812217 L7.80606061,50.410181 C11.5524476,50.6680995 14.2284382,50.95181 15.8340326,51.2484163 C16.225641,51.3386878 16.5519814,51.5192308 16.8130536,51.7900452 C17.0741259,52.0608597 17.4787879,52.7056561 18.0531469,53.6986425 L21.4470862,51.3773756 C21.7864802,51.1581448 21.9692308,50.9002262 21.9692308,50.6036199 C21.9692308,50.4746606 21.8909091,50.3585973 21.7081585,50.2425339 C21.5254079,50.1264706 21.3034965,50.0877828 20.9902098,50.0877828 C19.7631702,50.0877828 18.758042,50.061991 17.9226107,50.0233032 L17.9226107,7.09276018 C17.9356643,5.67420814 18.0009324,4.5780543 18.1314685,3.80429864 Z M44.8391608,50.229638 C44.8391608,50.3585973 44.8913753,50.4746606 44.9958042,50.590724 C45.1002331,50.7067873 45.2438228,50.7454751 45.4135198,50.7454751 C45.5440559,50.7454751 45.7268065,50.6809955 45.9356643,50.5520362 C47.7109557,49.3011312 49.1337995,48.10181 50.1780886,46.9411765 C50.8829837,46.1674208 51.3398601,45.5484163 51.5878788,45.071267 C51.8358974,44.5941176 51.95338,44.0395928 51.95338,43.3947964 C51.95338,42.75 51.7706294,42.2857466 51.4051282,42.0020362 C51.039627,41.7183258 50.5958042,41.5893665 50.0736597,41.5893665 C49.2904429,41.5893665 48.5072261,42.1309955 47.7240093,43.2013575 C47.802331,44.2330317 47.6717949,45.2260181 47.3062937,46.1674208 C46.9407925,47.1088235 46.1575758,48.3597285 44.9827506,49.9072398 C44.8783217,50.0748869 44.8391608,50.1909502 44.8391608,50.229638 Z M24.3972028,47.0056561 C25.572028,47.0056561 26.616317,47.031448 27.5300699,47.0701357 C28.4438228,47.1088235 29.2270396,47.1604072 29.8797203,47.199095 C30.6629371,47.2893665 31.2503497,47.3280543 31.641958,47.3280543 C32.3468531,47.3667421 32.8689977,47.560181 33.2083916,47.8696833 C33.5477855,48.1791855 34.0438228,48.9142534 34.644289,50.0361991 L37.9076923,47.8438914 C38.3776224,47.5472851 38.625641,47.2248869 38.625641,46.8766968 C38.625641,46.4511312 38.2862471,46.2576923 37.581352,46.2963801 C37.1897436,46.3350679 36.6545455,46.3608597 35.9496503,46.3608597 C35.4275058,46.3608597 34.5920746,46.3221719 33.4694639,46.2319005 L31.981352,46.1674208 L24.7365967,45.780543 C24.2927739,45.7418552 23.8358974,45.6515837 23.3659674,45.5226244 C22.8960373,45.3936652 22.4652681,45.3033937 22.1258741,45.2647059 C20.8988345,45.1357466 20.1547786,45.8192308 19.8414918,47.3280543 C21.1337995,47.1088235 22.6610723,47.0056561 24.3972028,47.0056561 Z M15.1944056,17.7963801 L15.1944056,49.9072398 C14.2284382,49.868552 12.7794872,49.7138009 10.8214452,49.4558824 L8.86340326,49.2624434 L8.86340326,39.4615385 L9.71188811,39.5260181 C10.1948718,39.5647059 10.5473193,39.7065611 10.7822844,39.9386878 C11.0172494,40.1708145 11.3827506,40.7382353 11.8526807,41.6409502 L14.2675991,40.0934389 C14.5808858,39.9257919 14.7244755,39.6807692 14.7244755,39.3841629 C14.7244755,38.9585973 14.4503497,38.7135747 13.8759907,38.6748869 C12.5184149,38.6361991 11.3044289,38.5459276 10.220979,38.4169683 L8.85034965,38.288009 L8.85034965,28.2291855 L9.95990676,28.3581448 C10.390676,28.3968326 10.7431235,28.5386878 11.0041958,28.7708145 C11.2652681,29.0029412 11.6307692,29.5961538 12.1137529,30.5504525 L14.5939394,28.8095023 C14.9072261,28.6418552 15.0508159,28.3968326 15.0508159,28.1002262 C15.0508159,27.6746606 14.77669,27.4554299 14.202331,27.4554299 C12.9752914,27.4554299 11.7221445,27.3909502 10.4167832,27.261991 L8.85034965,27.068552 L8.85034965,15.9135747 C11.0825175,16.4938914 13.1972028,17.1 15.1944056,17.7963801 Z M24.3972028,37.5271493 C24.5277389,37.9140271 24.593007,38.3266968 24.593007,38.7522624 C24.593007,39.9128959 24.0839161,41.331448 23.0918415,43.0079186 C23.0135198,43.1755656 22.9613054,43.3303167 22.9613054,43.459276 C22.9613054,43.7558824 23.0918415,43.9106335 23.3529138,43.9106335 C23.613986,43.9106335 23.9272727,43.7558824 24.2666667,43.459276 C25.572028,42.2599548 26.5641026,41.2024887 27.2689977,40.2997738 C27.9738928,39.3970588 28.3132867,38.468552 28.3132867,37.5271493 C28.3132867,37.05 28.169697,36.5986425 27.8564103,36.1343891 C27.5431235,35.6701357 27.2037296,35.4638009 26.8121212,35.4638009 C25.7678322,35.4638009 24.9585082,36.1472851 24.3972028,37.5271493 Z M25.1804196,10.0588235 L25.1804196,5.80316742 C25.1804196,5.28733032 24.9846154,5.02941176 24.593007,5.02941176 C24.3841492,5.02941176 24.188345,5.10678733 24.0055944,5.28733032 C23.95338,5.33891403 23.4834499,5.86764706 22.569697,6.89932127 C22.3086247,7.15723982 22.1780886,7.49253394 22.1780886,7.93099548 C22.1780886,8.39524887 22.2041958,8.91108597 22.2825175,9.47850679 C22.3608392,10.0459276 22.3869464,10.7036199 22.3869464,11.4773756 L22.3869464,18.5701357 C22.3869464,22.258371 22.3738928,24.7214932 22.3216783,25.9208145 C22.2694639,26.7848416 22.1780886,27.5328054 21.995338,28.1776018 C21.8125874,28.8223982 21.5384615,29.5316742 21.1468531,30.3054299 C21.7212121,30.3957014 22.3347319,30.3312217 23.0004662,30.1506787 C23.6662005,29.9701357 24.2013986,29.6606335 24.593007,29.2737557 C24.8540793,29.0158371 25.0368298,28.6934389 25.1151515,28.3065611 L30.5324009,28.6934389 C31.1850816,28.7837104 31.7072261,28.9642534 32.0988345,29.2350679 C32.4904429,29.5058824 33.0125874,30.1506787 33.6652681,31.1436652 L37.4508159,28.7579186 C37.8946387,28.5 38.1034965,28.2033937 38.1034965,27.8552036 C38.1034965,27.5972851 37.9729604,27.4038462 37.7118881,27.2748869 C37.006993,26.8493213 36.5892774,26.5011312 36.432634,26.2432127 C36.2759907,25.9852941 36.197669,25.5726244 36.197669,25.0180995 L36.197669,13.1538462 C36.197669,11.9932127 36.2498834,11.0260181 36.3282051,10.2522624 L36.3934732,9.47850679 C36.3934732,9.01425339 36.2629371,8.64027149 36.0018648,8.38235294 C35.558042,7.86651584 35.0881119,7.40226244 34.5659674,6.9638009 C34.3832168,6.78325792 34.174359,6.70588235 33.9132867,6.70588235 C33.5738928,6.70588235 33.3911422,7.01538462 33.3911422,7.60859729 L33.3911422,10.6391403 L25.1804196,10.0588235 Z M25.1804196,27.0169683 L25.1804196,26.7590498 L25.1804196,20.2466063 L27.3342657,20.3755656 C27.6736597,20.4271493 28,20.5690045 28.2741259,20.8269231 C28.5482517,21.0848416 29.044289,21.7167421 29.7491841,22.6968326 L32.4251748,20.8914027 C32.7645688,20.6334842 32.9473193,20.3755656 32.9473193,20.1176471 C32.9473193,19.7823529 32.7384615,19.5502262 32.2946387,19.4728507 C31.8508159,19.421267 31.3156177,19.421267 30.6629371,19.4470588 C30.0102564,19.4728507 29.4881119,19.4599548 29.0965035,19.421267 L25.1804196,19.0988688 L25.1804196,11.2968326 L33.4041958,11.8771493 L33.4041958,25.288914 C33.4041958,26.359276 33.3519814,27.0298643 33.2475524,27.2877828 C33.1431235,27.5457014 32.8037296,27.6488688 32.2293706,27.610181 L25.1804196,27.0169683 Z" id="Shape"></path>
                    </g>
                </g>
            </g>
        </g>
    </g>
</svg>