<?xml version="1.0" encoding="UTF-8"?>
<svg width="120px" height="120px" viewBox="0 0 120 120" version="1.1" xmlns="http://www.w3.org/2000/svg" xmlns:xlink="http://www.w3.org/1999/xlink">
    <!-- Generator: Sketch 51.3 (57544) - http://www.bohemiancoding.com/sketch -->
    <title>icn_技術規劃</title>
    <desc>Created with Sketch.</desc>
    <defs></defs>
    <g id="Page-1" stroke="none" stroke-width="1" fill="none" fill-rule="evenodd">
        <g id="Superbil-LandingPage" transform="translate(-578.000000, -1106.000000)" fill="#000000" fill-rule="nonzero">
            <g id="icn_技術規劃" transform="translate(578.000000, 1106.000000)">
                <path d="M97.5,82.5 L97.5,28.125 C97.5,25.02375 94.97625,22.5 91.875,22.5 L28.125,22.5 C25.02375,22.5 22.5,25.02375 22.5,28.125 L22.5,91.875 C22.5,94.97625 25.02375,97.5 28.125,97.5 L91.875,97.5 C94.97625,97.5 97.5,94.97625 97.5,91.875 L97.5,86.25 L93.75,86.25 L93.75,91.875 C93.75,92.908125 92.91,93.75 91.875,93.75 L61.875,93.75 L61.875,83.34375 L64.44375,84.121875 C66.673125,84.795 69.099375,84.350625 70.944375,82.929375 C72.6075,81.645 73.599375,79.77375 73.7325,77.709375 C73.7325,77.70375 73.7325,77.698125 73.734375,77.694375 C73.738125,77.638125 73.74,77.581875 73.74375,77.525625 C73.74375,77.518125 73.74375,77.50875 73.745625,77.50125 C73.745625,77.49 73.745625,77.47875 73.745625,77.4675 C73.7475,77.41875 73.749375,77.368125 73.749375,77.3175 C73.749375,77.28375 73.749375,77.251875 73.749375,77.218125 C73.749375,77.184375 73.749375,77.1525 73.749375,77.11875 C73.749375,77.068125 73.7475,77.019375 73.745625,76.96875 C73.745625,76.9575 73.745625,76.94625 73.745625,76.935 C73.745625,76.9275 73.745625,76.918125 73.74375,76.910625 C73.741875,76.854375 73.738125,76.798125 73.734375,76.741875 C73.734375,76.73625 73.734375,76.730625 73.7325,76.726875 C73.5975,74.6625 72.6075,72.789375 70.944375,71.506875 C69.10125,70.0875 66.67875,69.6375 64.44375,70.314375 L61.875,71.0925 L61.875,61.875 L75.105,61.875 C75.755625,61.875 76.3575,61.535625 76.700625,60.984375 C76.790625,60.838125 76.858125,60.6825 76.905,60.523125 C76.951875,60.361875 76.97625,60.196875 76.978125,60.031875 C76.981875,59.833125 76.95375,59.6325 76.89375,59.439375 L75.481875,54.78 C75.136875,53.64375 75.346875,52.38375 76.040625,51.40875 C76.351875,50.97375 76.995,50.27625 78.046875,50.064375 C78.2325,50.02875 78.421875,50.008125 78.613125,50.0025 C78.6375,50.0025 78.66,50.0025 78.684375,50.0025 C78.725625,50.0025 78.766875,50.0025 78.81,50.0025 C78.868125,50.004375 78.92625,50.00625 78.984375,50.011875 C78.988125,50.011875 78.991875,50.011875 78.995625,50.01375 C79.048125,50.0175 79.100625,50.025 79.153125,50.030625 C80.325,50.18625 81.03375,50.945625 81.36375,51.40875 C82.05375,52.374375 82.26375,53.623125 81.931875,54.751875 L80.506875,59.45625 C80.48625,59.5275 80.4675,59.59875 80.45625,59.671875 C80.4375,59.780625 80.428125,59.889375 80.42625,59.998125 C80.42625,60.3975 80.551875,60.79125 80.795625,61.1175 C81.148125,61.59375 81.706875,61.875 82.30125,61.875 L93.75,61.875 L93.75,82.5 L97.5,82.5 Z M26.25,28.125 C26.25,27.091875 27.09,26.25 28.125,26.25 L58.125,26.25 L58.125,36.135 L55.8675,35.450625 C53.6175,34.77 51.140625,35.1825 49.23,36.545625 C47.420625,37.835625 46.336875,39.815625 46.25625,41.9775 C46.16625,44.34375 47.188125,46.528125 49.055625,47.97 C50.896875,49.39125 53.319375,49.8375 55.55625,49.1625 L58.125,48.388125 L58.125,58.125 L46.67625,58.125 C46.08375,58.125 45.525,58.40625 45.170625,58.8825 C44.81625,59.35875 44.709375,59.975625 44.881875,60.54375 L46.393125,65.53125 C46.723125,66.616875 46.513125,67.755 45.819375,68.653125 C45.129375,69.55125 44.060625,70.03875 42.939375,69.9975 C41.578125,69.946875 40.775625,69.095625 40.415625,68.59125 C39.721875,67.61625 39.51375,66.358125 39.856875,65.22 L41.274375,60.54375 C41.446875,59.975625 41.34,59.360625 40.985625,58.8825 C40.63125,58.40625 40.0725,58.125 39.48,58.125 L26.25,58.125 L26.25,28.125 Z M58.8825,79.30875 C58.40625,79.663125 58.125,80.221875 58.125,80.81625 L58.125,93.75 L28.125,93.75 C27.09,93.75 26.25,92.908125 26.25,91.875 L26.25,61.875 L36.9525,61.875 L36.268125,64.1325 C35.589375,66.373125 35.99625,68.855625 37.36125,70.768125 C38.65125,72.5775 40.633125,73.663125 42.795,73.74375 C42.8925,73.745625 42.988125,73.7475 43.08,73.7475 C45.335625,73.7475 47.40375,72.735 48.7875,70.940625 C50.20875,69.0975 50.655,66.6675 49.98,64.441875 L49.201875,61.875 L58.125,61.875 L58.125,73.62 C58.125,74.2125 58.40625,74.77125 58.8825,75.125625 C59.356875,75.478125 59.9775,75.586875 60.54375,75.414375 L65.221875,73.996875 C66.354375,73.655625 67.62,73.861875 68.593125,74.555625 C69.054375,74.885625 69.81,75.590625 69.969375,76.756875 C69.984375,76.875 69.99375,76.995 69.9975,77.116875 C69.9975,77.150625 69.9975,77.184375 69.9975,77.218125 C69.9975,77.251875 69.9975,77.285625 69.9975,77.319375 C69.99375,77.44125 69.984375,77.56125 69.969375,77.679375 C69.81,78.845625 69.054375,79.5525 68.593125,79.880625 C67.62,80.574375 66.354375,80.78625 65.221875,80.439375 L60.54375,79.021875 C59.979375,78.849375 59.356875,78.954375 58.8825,79.30875 Z M84.826875,58.125 L85.51125,55.865625 C85.515,55.8525 85.51875,55.839375 85.5225,55.82625 L85.605,55.55625 C86.28,53.32875 85.83375,50.900625 84.4125,49.0575 C83.281875,47.59125 81.740625,46.663125 79.94625,46.36125 C79.629375,46.305 79.30875,46.269375 78.9825,46.25625 C78.894375,46.254375 78.808125,46.254375 78.72,46.254375 C78.620625,46.2525 78.519375,46.254375 78.418125,46.25625 C78.02625,46.27125 77.64,46.32 77.263125,46.39875 C75.55125,46.7325 74.079375,47.64375 72.99,49.0575 C71.56875,50.900625 71.1225,53.330625 71.795625,55.558125 L72.575625,58.125 L61.875,58.125 L61.875,45.85875 C61.875,45.26625 61.59375,44.7075 61.1175,44.353125 C60.643125,44.000625 60.0225,43.89 59.45625,44.064375 L54.46875,45.575625 C53.386875,45.90375 52.246875,45.695625 51.346875,45.001875 C50.44875,44.31 49.96125,43.26 50.0025,42.12 C50.053125,40.760625 50.904375,39.958125 51.406875,39.598125 C52.381875,38.9025 53.64375,38.698125 54.78,39.039375 L59.45625,40.456875 C60.016875,40.625625 60.64125,40.5225 61.1175,40.168125 C61.59375,39.81375 61.875,39.256875 61.875,38.664375 L61.875,26.25 L91.875,26.25 C92.91,26.25 93.75,27.091875 93.75,28.125 L93.75,58.125 L84.826875,58.125 Z" id="Shape"></path>
                <path d="M55.125,9 L62.625,14.625 L64.875,11.625 L61.875,9.375 L105,9.375 C108.10125,9.375 110.625,11.89875 110.625,15 L110.625,50.625 L114.375,50.625 L114.375,15 C114.375,9.830625 110.169375,5.625 105,5.625 L61.875,5.625 L64.875,3.375 L62.625,0.375 L55.125,6 C54.6525,6.354375 54.375,6.909375 54.375,7.5 C54.375,8.090625 54.6525,8.645625 55.125,9 Z" id="Shape"></path>
                <path d="M64.869375,110.99625 L57.375,105.375 L55.125,108.375 L58.126875,110.625 L15,110.625 C11.89875,110.625 9.375,108.10125 9.375,105 L9.375,69.375 L5.625,69.375 L5.625,105 C5.625,110.169375 9.830625,114.375 15,114.375 L58.125,114.375 L55.125,116.625 L57.373125,119.625 L64.873125,114 C65.345625,113.6475 65.619375,113.08875 65.62125,112.498125 C65.623125,111.9075 65.341875,111.350625 64.869375,110.99625 Z" id="Shape"></path>
                <path d="M119.625,62.625 L114,55.125 C113.293125,54.18 111.706875,54.18 111,55.125 L105.375,62.625 L108.375,64.875 L110.625,61.875 L110.625,105 C110.625,108.10125 108.10125,110.625 105,110.625 L69.375,110.625 L69.375,114.375 L105,114.375 C110.169375,114.375 114.375,110.169375 114.375,105 L114.375,61.875 L116.625,64.875 L119.625,62.625 Z" id="Shape"></path>
                <path d="M7.5,65.625 C8.08875,65.625 8.645625,65.3475 9,64.875 L14.625,57.375 L11.625,55.125 L9.375,58.125 L9.375,15 C9.375,11.89875 11.89875,9.375 15,9.375 L50.625,9.375 L50.625,5.625 L15,5.625 C9.830625,5.625 5.625,9.830625 5.625,15 L5.625,58.125 L3.375,55.125 L0.375,57.375 L6,64.875 C6.354375,65.3475 6.91125,65.625 7.5,65.625 Z" id="Shape"></path>
                <path d="M86.25,30 L75,30 L75,33.75 L86.25,33.75 L86.25,37.5 L90,37.5 L90,33.75 C90,31.681875 88.318125,30 86.25,30 Z" id="Shape"></path>
                <rect id="Rectangle-path" x="86.25" y="41.25" width="3.75" height="3.75"></rect>
                <path d="M33.75,82.5 L30,82.5 L30,86.25 C30,88.318125 31.681875,90 33.75,90 L45,90 L45,86.25 L33.75,86.25 L33.75,82.5 Z" id="Shape"></path>
                <rect id="Rectangle-path" x="30" y="75" width="3.75" height="3.75"></rect>
            </g>
        </g>
    </g>
</svg>