<?xml version="1.0" encoding="UTF-8"?>
<svg width="120px" height="120px" viewBox="0 0 120 120" version="1.1" xmlns="http://www.w3.org/2000/svg" xmlns:xlink="http://www.w3.org/1999/xlink">
    <!-- Generator: Sketch 51.3 (57544) - http://www.bohemiancoding.com/sketch -->
    <title>icn_App 維護</title>
    <desc>Created with Sketch.</desc>
    <defs></defs>
    <g id="Page-1" stroke="none" stroke-width="1" fill="none" fill-rule="evenodd">
        <g id="Superbil-LandingPage" transform="translate(-885.000000, -1099.000000)" fill="#000000" fill-rule="nonzero">
            <g id="Group-20" transform="translate(853.000000, 1099.000000)">
                <g id="icn_App-維護" transform="translate(32.000000, 0.000000)">
                    <path d="M31.6440217,38.0978261 L36.5637364,38.0978261 C36.958356,39.3226359 37.4516304,40.5120788 38.0342527,41.653125 L34.5571332,45.1302446 C33.8293207,45.8580571 33.8293207,47.0344701 34.5571332,47.7622826 L42.4551087,55.6583967 C43.1829212,56.3862092 44.3593342,56.3862092 45.0871467,55.6583967 L49.5526766,51.1947283 L46.9206386,48.5626902 L43.7711277,51.7103397 L38.5051902,46.4462636 L41.6547011,43.2967527 C42.2559375,42.6973777 42.3732065,41.7648098 41.9413587,41.0332745 C40.9752853,39.3970924 40.2418886,37.6268886 39.7635054,35.7710598 C39.5513043,34.9501766 38.810462,34.375 37.9616576,34.375 L33.5054348,34.375 L33.5054348,26.9293478 L37.9616576,26.9293478 C38.810462,26.9293478 39.5513043,26.3541712 39.7635054,25.533288 C40.2418886,23.6774592 40.9752853,21.9072554 41.9413587,20.2710734 C42.3732065,19.539538 42.2559375,18.6069701 41.6547011,18.0075951 L38.5051902,14.8580842 L43.7711277,9.59400815 L46.9206386,12.7416576 C47.521875,13.3410326 48.4525815,13.460163 49.1822554,13.0283152 C50.8202989,12.0603804 52.5905027,11.3288451 54.4463315,10.850462 C55.2672147,10.6382609 55.8423913,9.89741848 55.8423913,9.04861413 L55.8423913,4.5923913 L63.2880435,4.5923913 L63.2880435,9.04861413 C63.2880435,9.89741848 63.8632201,10.6382609 64.6841033,10.8523234 C66.5399321,11.3307065 68.3101359,12.0622418 69.9481793,13.0301766 C70.6797147,13.4583016 71.6085598,13.3410326 72.2097962,12.743519 L75.3593071,9.59586957 L80.6252446,14.8599457 L77.4757337,18.0094565 C76.8744973,18.6088315 76.7572283,19.5413995 77.1890761,20.2729348 C78.1551495,21.9091168 78.8885462,23.6793207 79.3669293,25.5351495 C79.5791304,26.3541712 80.3199728,26.9293478 81.1687772,26.9293478 L85.625,26.9293478 L85.625,34.375 L81.1687772,34.375 C80.3199728,34.375 79.5791304,34.9501766 79.3669293,35.7710598 C78.8885462,37.6268886 78.1551495,39.3970924 77.1890761,41.0332745 C76.7572283,41.7648098 76.8744973,42.6973777 77.4757337,43.2967527 L80.6252446,46.4462636 L75.3593071,51.7103397 L72.2097962,48.5626902 L69.5777582,51.1947283 L74.043288,55.6583967 C74.4062636,56.0213723 74.8827853,56.2037908 75.3593071,56.2037908 C75.8358288,56.2037908 76.3123505,56.0213723 76.6753261,55.6583967 L84.5733016,47.7622826 C85.3011141,47.0344701 85.3011141,45.8580571 84.5733016,45.1302446 L81.0961821,41.653125 C81.6788043,40.5120788 82.1720788,39.3226359 82.5666984,38.0978261 L87.486413,38.0978261 C88.513913,38.0978261 89.3478261,37.2657745 89.3478261,36.236413 L89.3478261,25.0679348 C89.3478261,24.0385734 88.513913,23.2065217 87.486413,23.2065217 L82.5666984,23.2065217 C82.1720788,21.981712 81.6788043,20.792269 81.0961821,19.6512228 L84.5733016,16.1741033 C85.3011141,15.4462908 85.3011141,14.2698777 84.5733016,13.5420652 L76.6753261,5.64595109 C75.9475136,4.91813859 74.7711005,4.91813859 74.043288,5.64595109 L70.5661685,9.12307065 C69.4251223,8.53672554 68.2356793,8.0453125 67.0108696,7.65069293 L67.0108696,2.73097826 C67.0108696,1.70161685 66.1769565,0.869565217 65.1494565,0.869565217 L53.9809783,0.869565217 C52.9534783,0.869565217 52.1195652,1.70161685 52.1195652,2.73097826 L52.1195652,7.65069293 C50.8947554,8.04717391 49.7053125,8.53858696 48.5642663,9.12307065 L45.0871467,5.64595109 C44.3593342,4.91813859 43.1829212,4.91813859 42.4551087,5.64595109 L34.5571332,13.5420652 C33.8293207,14.2698777 33.8293207,15.4462908 34.5571332,16.1741033 L38.0342527,19.6512228 C37.4516304,20.792269 36.958356,21.981712 36.5637364,23.2065217 L31.6440217,23.2065217 C30.6165217,23.2065217 29.7826087,24.0385734 29.7826087,25.0679348 L29.7826087,36.236413 C29.7826087,37.2657745 30.6165217,38.0978261 31.6440217,38.0978261 Z" id="Shape"></path>
                    <path d="M64.3490489,38.8684511 C63.7012772,39.1774457 63.2880435,39.832663 63.2880435,40.5493071 L63.2880435,49.2663043 L67.0108696,49.2663043 L67.0108696,41.6717391 C71.5694701,39.0285326 74.4565217,34.095788 74.4565217,28.7907609 C74.4565217,23.0855299 71.1171467,17.8102853 65.9498641,15.3494973 C65.3746875,15.077731 64.6952717,15.1168207 64.155462,15.4574592 C63.6156522,15.7999592 63.2880435,16.39375 63.2880435,17.0322147 L63.2880435,28.7907609 L55.8423913,28.7907609 L55.8423913,17.0322147 C55.8423913,16.39375 55.5147826,15.7999592 54.9749728,15.4574592 C54.4333016,15.1168207 53.7557473,15.077731 53.1805707,15.3494973 C48.013288,17.8102853 44.673913,23.0855299 44.673913,28.7907609 C44.673913,34.095788 47.5609647,39.0285326 52.1195652,41.6717391 L52.1195652,58.5733696 C52.1195652,59.602731 52.9534783,60.4347826 53.9809783,60.4347826 L65.1494565,60.4347826 C66.1769565,60.4347826 67.0108696,59.602731 67.0108696,58.5733696 L67.0108696,52.9891304 L63.2880435,52.9891304 L63.2880435,56.7119565 L55.8423913,56.7119565 L55.8423913,40.5493071 C55.8423913,39.8308016 55.4291576,39.1774457 54.7813859,38.8684511 C50.9022011,37.0237908 48.3967391,33.068288 48.3967391,28.7907609 C48.3967391,25.5947147 49.7946603,22.5792255 52.1195652,20.4888587 L52.1195652,30.6521739 C52.1195652,31.6815353 52.9534783,32.513587 53.9809783,32.513587 L65.1494565,32.513587 C66.1769565,32.513587 67.0108696,31.6815353 67.0108696,30.6521739 L67.0108696,20.4888587 C69.3357745,22.5792255 70.7336957,25.5947147 70.7336957,28.7907609 C70.7336957,33.068288 68.2282337,37.0237908 64.3490489,38.8684511 Z" id="Shape"></path>
                    <path d="M81.9021739,82.7717391 L81.9021739,79.048913 L68.5521196,79.048913 C67.783356,76.8822283 65.7153261,75.326087 63.2880435,75.326087 L61.4266304,75.326087 L61.4266304,64.1576087 L57.7038043,64.1576087 L57.7038043,75.326087 L55.8423913,75.326087 C53.4151087,75.326087 51.3470788,76.8822283 50.5783152,79.048913 L37.2282609,79.048913 L37.2282609,82.7717391 L50.5783152,82.7717391 C51.3470788,84.9384239 53.4151087,86.4945652 55.8423913,86.4945652 L63.2880435,86.4945652 C65.7153261,86.4945652 67.783356,84.9384239 68.5521196,82.7717391 L81.9021739,82.7717391 Z M63.2880435,82.7717391 L55.8423913,82.7717391 C54.8167527,82.7717391 53.9809783,81.9378261 53.9809783,80.9103261 C53.9809783,79.8828261 54.8167527,79.048913 55.8423913,79.048913 L63.2880435,79.048913 C64.3136821,79.048913 65.1494565,79.8828261 65.1494565,80.9103261 C65.1494565,81.9378261 64.3136821,82.7717391 63.2880435,82.7717391 Z" id="Shape"></path>
                    <path d="M109.680041,93.5586277 L105.428573,92.3449864 L103.410802,89.1861685 C106.21409,87.7379891 108.213247,84.9030571 108.451508,81.5748505 L109.021101,73.6024185 C109.021101,73.6005571 109.021101,73.6005571 109.021101,73.5986957 L109.054606,73.1389266 C109.289144,69.8665625 108.140652,66.6146739 105.906957,64.2134511 C103.673261,61.8122283 100.506997,60.4347826 97.2271875,60.4347826 L96.359769,60.4347826 C96.2369158,60.4347826 96.1140625,60.436644 95.9912092,60.4403668 C95.9409511,60.4422283 95.8906929,60.4440897 95.8422962,60.4459511 C95.7790082,60.4496739 95.7157201,60.4515353 95.6524321,60.4552582 C91.3916576,60.7046875 87.6297418,63.1840897 85.7199321,67.0558288 C85.6975951,67.1005027 85.678981,67.1451766 85.6622283,67.191712 C84.7892255,69.0270652 84.3890217,71.0783424 84.5360734,73.1370652 L85.1391712,81.5729891 C85.3774321,84.9030571 87.3765897,87.7361277 90.1798777,89.1843071 L88.162106,92.343125 L83.9106386,93.5567663 C78.3431522,95.146413 74.4565217,100.298804 74.4565217,106.085938 L74.4565217,118.138587 C74.4565217,119.167948 75.2904348,120 76.3179348,120 L117.269022,120 C118.296522,120 119.130435,119.167948 119.130435,118.138587 L119.130435,106.085938 C119.130435,100.298804 115.245666,95.146413 109.680041,93.5586277 Z M102.906359,97.2665625 L103.602527,101.437989 L100.125408,99.3513451 L101.715054,98.1600408 L102.906359,97.2665625 Z M99.6526087,90.2173913 L101.741114,93.487894 L96.7934783,97.1976902 L91.8458424,93.487894 L93.9343478,90.2173913 L99.6526087,90.2173913 Z M90.6805978,97.2665625 L91.8737636,98.1600408 L93.4634103,99.3513451 L89.9862908,101.437989 L90.6805978,97.2665625 Z M97.2271875,64.1576087 C99.1053533,64.1576087 100.869973,64.7811821 102.301399,65.9315353 C102.610394,66.1791033 102.904497,66.452731 103.179986,66.7486957 C103.265611,66.8399049 103.347514,66.9329755 103.427554,67.0279076 C103.429416,67.0316304 103.433139,67.0334918 103.435,67.0372147 C103.466644,67.0744429 103.496427,67.1098098 103.526209,67.147038 C103.539239,67.1637908 103.552269,67.1786821 103.565299,67.1954348 C103.591359,67.2289402 103.617418,67.2624457 103.643478,67.2959511 C103.65837,67.3145652 103.673261,67.3350408 103.688152,67.3536549 C103.712351,67.3834375 103.734687,67.4150815 103.757024,67.4448641 C103.775639,67.4690625 103.792391,67.4932609 103.811005,67.5174592 C103.831481,67.5453804 103.851957,67.575163 103.874293,67.6049457 C103.894769,67.6328668 103.913383,67.660788 103.933859,67.6887092 C103.950611,67.7129076 103.967364,67.7352446 103.982255,67.7594429 C104.006454,67.7966712 104.030652,67.8338995 104.054851,67.8711277 C104.066019,67.8897418 104.079049,67.9064946 104.090217,67.9251087 C104.116277,67.9641984 104.140476,68.0051495 104.164674,68.0442391 C104.175842,68.0609918 104.187011,68.079606 104.198179,68.0963587 C104.267052,68.2117663 104.334062,68.3271739 104.397351,68.4444429 C104.401073,68.4500272 104.402935,68.4574728 104.406658,68.4630571 C104.434579,68.517038 104.464361,68.571019 104.490421,68.625 C104.494144,68.6324457 104.497867,68.6417527 104.50159,68.6491984 C104.527649,68.7013179 104.553709,68.7534375 104.579769,68.8074185 C104.583492,68.8167255 104.589076,68.8260326 104.592799,68.8353397 C104.616997,68.8874592 104.641196,68.9395788 104.665394,68.9916984 C104.669117,69.0010054 104.674701,69.0121739 104.678424,69.021481 C104.700761,69.0736005 104.723098,69.1257201 104.745435,69.1778397 C104.749158,69.1871467 104.754742,69.1983152 104.758465,69.2076223 C104.780802,69.2634647 104.803139,69.3211685 104.825476,69.3770109 C104.827337,69.3825951 104.829198,69.3863179 104.83106,69.3919022 C104.952052,69.7102038 105.054429,70.0378125 105.13447,70.3710054 C105.13447,70.3728668 105.136332,70.3765897 105.136332,70.3784511 C105.151223,70.4417391 105.166114,70.5031658 105.179144,70.5664538 C105.181005,70.572038 105.181005,70.5794837 105.182867,70.5850679 C105.195897,70.6446332 105.207065,70.7041984 105.218234,70.765625 L105.221957,70.7898234 C105.233125,70.8493886 105.244293,70.9108152 105.253601,70.9703804 C105.255462,70.9778261 105.255462,70.9834103 105.257323,70.990856 C105.26663,71.0522826 105.275937,71.1137092 105.283383,71.1751359 C105.283383,71.1825815 105.285245,71.1881658 105.287106,71.1956114 C105.322473,71.4636549 105.34481,71.7354212 105.354117,72.0090489 C105.354117,72.0313859 105.355978,72.0537228 105.355978,72.0760598 C105.355978,72.1095652 105.35784,72.1430707 105.35784,72.1765761 C101.056114,73.6712908 96.3188179,72.820625 92.7746875,69.8665625 L89.8411005,67.4225272 C90.0160734,67.1898505 90.2040761,66.9646196 90.4051087,66.7486957 C91.1459511,65.9538723 92.0115082,65.3302989 92.9608288,64.8928668 C93.7165625,64.546644 94.53,64.3158288 95.3769429,64.2153125 C95.3881114,64.2134511 95.3974185,64.2134511 95.408587,64.2115897 C95.471875,64.204144 95.535163,64.1985598 95.6003125,64.1911141 C95.6170652,64.1892527 95.6356793,64.1873913 95.6524321,64.1855299 C95.7101359,64.1799457 95.7697011,64.1762228 95.8274049,64.1725 C95.8497418,64.1706386 95.8702174,64.1687772 95.8925543,64.1687772 C95.9446739,64.1650543 95.9986549,64.1631929 96.0526359,64.1613315 C96.0786957,64.1613315 96.102894,64.1594701 96.1289538,64.1576087 C96.2071332,64.1594701 96.2834511,64.1576087 96.359769,64.1576087 L97.2271875,64.1576087 Z M88.247731,72.8727446 C88.2030571,72.2380027 88.2291168,71.6125679 88.3259103,71.0020245 L90.3958016,72.7275543 C93.4764402,75.2944429 97.2569701,76.6234918 101.093342,76.6234918 C102.43356,76.6234918 103.781223,76.4596875 105.10841,76.1302174 L104.737989,81.3086685 C104.529511,84.2161957 102.083614,86.4945652 99.1667799,86.4945652 L94.4183152,86.4945652 C91.5033424,86.4945652 89.0555842,84.2161957 88.8489674,81.3086685 L88.247731,72.8727446 Z M115.407609,116.277174 L78.1793478,116.277174 L78.1793478,106.085938 C78.1793478,101.951739 80.9547147,98.273587 84.9288315,97.138125 L87.026644,96.53875 L85.6491984,104.801562 C85.5300679,105.518207 85.8372011,106.236712 86.4365761,106.644361 C86.7530163,106.862147 87.1197147,106.970109 87.486413,106.970109 C87.8177446,106.970109 88.1490761,106.882622 88.4450408,106.703927 L96.7934783,101.694864 L105.141916,106.703927 C105.43788,106.882622 105.769212,106.970109 106.100543,106.970109 C106.467242,106.970109 106.83394,106.862147 107.148519,106.646223 C107.747894,106.238573 108.055027,105.520068 107.935897,104.803424 L106.558451,96.5406114 L108.656264,97.1399864 C112.632242,98.273587 115.407609,101.953601 115.407609,106.085938 L115.407609,116.277174 Z" id="Shape"></path>
                    <g id="Group">
                        <path d="M35.223519,92.6890625 L30.9720516,91.4754212 L28.9542799,88.3166033 C31.7575679,86.8684239 33.7567255,84.0334918 33.9949864,80.7052853 L34.5645788,72.7328533 C34.5645788,72.7309918 34.5645788,72.7309918 34.5645788,72.7291304 L34.5980842,72.2693614 C34.8326223,68.9969973 33.6841304,65.7451087 31.4504348,63.3438859 C29.2167391,60.942663 26.0504755,59.5652174 22.7706658,59.5652174 L21.9032473,59.5652174 C21.780394,59.5652174 21.6575408,59.5670788 21.5346875,59.5708016 C21.4844293,59.572663 21.4341712,59.5745245 21.3857745,59.5763859 C21.3224864,59.5801087 21.2591984,59.5819701 21.1959103,59.5856929 C16.9351359,59.8351223 13.1732201,62.3145245 11.2634103,66.1862636 C11.2410734,66.2309375 11.2224592,66.2756114 11.2057065,66.3221467 C10.3327038,68.1575 9.9325,70.2087772 10.0795516,72.2675 L10.6826495,80.7034239 C10.9209103,84.0334918 12.9200679,86.8665625 15.723356,88.3147418 L13.7055842,91.4735598 L9.45411685,92.6872011 C3.88663043,94.2768478 0,99.4292391 0,105.216372 L0,117.269022 C0,118.298383 0.833913043,119.130435 1.86141304,119.130435 L42.8125,119.130435 C43.84,119.130435 44.673913,118.298383 44.673913,117.269022 L44.673913,105.216372 C44.673913,99.4292391 40.789144,94.2768478 35.223519,92.6890625 Z M28.449837,96.3969973 L29.1460054,100.568424 L25.6688859,98.4817799 L27.2585326,97.2904755 L28.449837,96.3969973 Z M25.196087,89.3478261 L27.2845924,92.6183288 L22.3369565,96.328125 L17.3893207,92.6183288 L19.4778261,89.3478261 L25.196087,89.3478261 Z M16.2240761,96.3969973 L17.4172418,97.2904755 L19.0068886,98.4817799 L15.529769,100.568424 L16.2240761,96.3969973 Z M22.7706658,63.2880435 C24.6488315,63.2880435 26.4134511,63.9116168 27.8448777,65.0619701 C28.1538723,65.309538 28.4479755,65.5831658 28.7234647,65.8791304 C28.8090897,65.9703397 28.8909918,66.0634103 28.9710326,66.1583424 C28.972894,66.1620652 28.9766168,66.1639266 28.9784783,66.1676495 C29.0101223,66.2048777 29.0399049,66.2402446 29.0696875,66.2774728 C29.0827174,66.2942255 29.0957473,66.3091168 29.1087772,66.3258696 C29.134837,66.359375 29.1608967,66.3928804 29.1869565,66.4263859 C29.2018478,66.445 29.2167391,66.4654755 29.2316304,66.4840897 C29.2558288,66.5138723 29.2781658,66.5455163 29.3005027,66.5752989 C29.3191168,66.5994973 29.3358696,66.6236957 29.3544837,66.647894 C29.3749592,66.6758152 29.3954348,66.7055978 29.4177717,66.7353804 C29.4382473,66.7633016 29.4568614,66.7912228 29.477337,66.819144 C29.4940897,66.8433424 29.5108424,66.8656793 29.5257337,66.8898777 C29.5499321,66.927106 29.5741304,66.9643342 29.5983288,67.0015625 C29.6094973,67.0201766 29.6225272,67.0369293 29.6336957,67.0555435 C29.6597554,67.0946332 29.6839538,67.1355842 29.7081522,67.1746739 C29.7193207,67.1914266 29.7304891,67.2100408 29.7416576,67.2267935 C29.8105299,67.3422011 29.8775408,67.4576087 29.9408288,67.5748777 C29.9445516,67.580462 29.946413,67.5879076 29.9501359,67.5934918 C29.9780571,67.6474728 30.0078397,67.7014538 30.0338995,67.7554348 C30.0376223,67.7628804 30.0413451,67.7721875 30.0450679,67.7796332 C30.0711277,67.8317527 30.0971875,67.8838723 30.1232473,67.9378533 C30.1269701,67.9471603 30.1325543,67.9564674 30.1362772,67.9657745 C30.1604755,68.017894 30.1846739,68.0700136 30.2088723,68.1221332 C30.2125951,68.1314402 30.2181793,68.1426087 30.2219022,68.1519158 C30.2442391,68.2040353 30.2665761,68.2561549 30.288913,68.3082745 C30.2926359,68.3175815 30.2982201,68.32875 30.3019429,68.3380571 C30.3242799,68.3938995 30.3466168,68.4516033 30.3689538,68.5074457 C30.3708152,68.5130299 30.3726766,68.5167527 30.374538,68.522337 C30.4955299,68.8406386 30.5979076,69.1682473 30.6779484,69.5014402 C30.6779484,69.5033016 30.6798098,69.5070245 30.6798098,69.5088859 C30.6947011,69.5721739 30.7095924,69.6336005 30.7226223,69.6968886 C30.7244837,69.7024728 30.7244837,69.7099185 30.7263451,69.7155027 C30.739375,69.7750679 30.7505435,69.8346332 30.761712,69.8960598 L30.7654348,69.9202582 C30.7766033,69.9798234 30.7877717,70.04125 30.7970788,70.1008152 C30.7989402,70.1082609 30.7989402,70.1138451 30.8008016,70.1212908 C30.8101087,70.1827174 30.8194158,70.244144 30.8268614,70.3055707 C30.8268614,70.3130163 30.8287228,70.3186005 30.8305842,70.3260462 C30.8659511,70.5940897 30.888288,70.865856 30.8975951,71.1394837 C30.8975951,71.1618207 30.8994565,71.1841576 30.8994565,71.2064946 C30.8994565,71.24 30.9013179,71.2735054 30.9013179,71.3070109 C26.5995924,72.8017255 21.8622962,71.9510598 18.3181658,68.9969973 L15.3845788,66.552962 C15.5595516,66.3202853 15.7475543,66.0950543 15.948587,65.8791304 C16.6894293,65.0843071 17.5549864,64.4607337 18.5043071,64.0233016 C19.2600408,63.6770788 20.0734783,63.4462636 20.9204212,63.3457473 C20.9315897,63.3438859 20.9408967,63.3438859 20.9520652,63.3420245 C21.0153533,63.3345788 21.0786413,63.3289946 21.1437908,63.3215489 C21.1605435,63.3196875 21.1791576,63.3178261 21.1959103,63.3159647 C21.2536141,63.3103804 21.3131793,63.3066576 21.3708832,63.3029348 C21.3932201,63.3010734 21.4136957,63.299212 21.4360326,63.299212 C21.4881522,63.2954891 21.5421332,63.2936277 21.5961141,63.2917663 C21.6221739,63.2917663 21.6463723,63.2899049 21.6724321,63.2880435 C21.7506114,63.2899049 21.8269293,63.2880435 21.9032473,63.2880435 L22.7706658,63.2880435 Z M13.7912092,72.0031793 C13.7465353,71.3684375 13.7725951,70.7430027 13.8693886,70.1324592 L15.9392799,71.8579891 C19.0199185,74.4248777 22.8004484,75.7539266 26.6368207,75.7539266 C27.977038,75.7539266 29.3247011,75.5901223 30.6518886,75.2606522 L30.2814674,80.4391033 C30.0729891,83.3466304 27.6270924,85.625 24.7102582,85.625 L19.9617935,85.625 C17.0468207,85.625 14.5990625,83.3466304 14.3924457,80.4391033 L13.7912092,72.0031793 Z M40.951087,115.407609 L3.72282609,115.407609 L3.72282609,105.216372 C3.72282609,101.082174 6.49819293,97.4040217 10.4723098,96.2685598 L12.5701223,95.6691848 L11.1926766,103.931997 C11.0735462,104.648641 11.3806793,105.367147 11.9800543,105.774796 C12.2964946,105.992582 12.6631929,106.100543 13.0298913,106.100543 C13.3612228,106.100543 13.6925543,106.013057 13.988519,105.834361 L22.3369565,100.825299 L30.685394,105.834361 C30.9813587,106.013057 31.3126902,106.100543 31.6440217,106.100543 C32.0107201,106.100543 32.3774185,105.992582 32.6919973,105.776658 C33.2913723,105.369008 33.5985054,104.650503 33.479375,103.933859 L32.1019293,95.6710462 L34.1997418,96.2704212 C38.1757201,97.4040217 40.951087,101.084035 40.951087,105.216372 L40.951087,115.407609 Z" id="Shape"></path>
                    </g>
                </g>
            </g>
        </g>
    </g>
</svg>