<?xml version="1.0" encoding="UTF-8"?>
<svg width="104px" height="120px" viewBox="0 0 104 120" version="1.1" xmlns="http://www.w3.org/2000/svg" xmlns:xlink="http://www.w3.org/1999/xlink">
    <!-- Generator: Sketch 51.3 (57544) - http://www.bohemiancoding.com/sketch -->
    <title>icn_app 上架</title>
    <desc>Created with Sketch.</desc>
    <defs></defs>
    <g id="Page-1" stroke="none" stroke-width="1" fill="none" fill-rule="evenodd">
        <g id="Superbil-LandingPage" transform="translate(-592.000000, -2234.000000)" fill="#000000" fill-rule="nonzero">
            <g id="icn_app-上架" transform="translate(592.000000, 2234.000000)">
                <g id="Group">
                    <path d="M102.142857,75 L74.2857143,75 L74.2857143,71.25 L70.5714286,71.25 L70.5714286,116.25 L33.4285714,116.25 L33.4285714,60 L70.5714286,60 L70.5714286,67.5 L74.2857143,67.5 L74.2857143,58.125 C74.2857143,57.088125 73.4555714,56.25 72.4285714,56.25 L57.5714286,56.25 L57.5714286,30 L68.7142857,30 L68.7142857,39.375 C68.7142857,40.411875 69.5444286,41.25 70.5714286,41.25 L100.285714,41.25 C100.954286,41.25 101.570857,40.888125 101.901429,40.299375 C102.232,39.710625 102.222714,38.98875 101.877286,38.409375 L96.8295714,29.9175 L101.946,19.588125 C102.233857,19.006875 102.204143,18.316875 101.864286,17.76375 C101.524429,17.210625 100.930143,16.875 100.285714,16.875 L87.2857143,16.875 L87.2857143,5.625 C87.2857143,4.588125 86.4555714,3.75 85.4285714,3.75 L56.433,3.75 L55.6177143,1.2825 C55.3651429,0.515625 54.6575714,0 53.8571429,0 L50.1428571,0 C49.3424286,0 48.6348571,0.515625 48.3804286,1.2825 L46.5232857,6.9075 C46.4601429,7.09875 46.4285714,7.299375 46.4285714,7.5 L46.4285714,56.25 L31.5714286,56.25 C30.5462857,56.25 29.7142857,57.088125 29.7142857,58.125 L29.7142857,75 L1.85714286,75 C0.832,75 0,75.838125 0,76.875 L0,118.125 C0,119.161875 0.832,120 1.85714286,120 L102.142857,120 C103.169857,120 104,119.161875 104,118.125 L104,76.875 C104,75.838125 103.169857,75 102.142857,75 Z M97.2808571,20.625 L93.054,29.161875 C92.7717143,29.735625 92.7958571,30.41625 93.1227143,30.965625 L97.0041429,37.5 L72.4285714,37.5 L72.4285714,30 L85.4285714,30 C86.4555714,30 87.2857143,29.161875 87.2857143,28.125 L87.2857143,20.625 L97.2808571,20.625 Z M83.5714286,7.5 L83.5714286,26.25 L57.5714286,26.25 L57.5714286,7.5 L83.5714286,7.5 Z M50.1428571,7.80375 L51.4818571,3.75 L52.52,3.75 L53.8571429,7.80375 L53.8571429,56.25 L50.1428571,56.25 L50.1428571,7.80375 Z M3.71428571,78.75 L29.7142857,78.75 L29.7142857,116.25 L3.71428571,116.25 L3.71428571,78.75 Z M100.285714,116.25 L74.2857143,116.25 L74.2857143,78.75 L100.285714,78.75 L100.285714,116.25 Z" id="Shape"></path>
                    <rect id="Rectangle-path" x="92.8571429" y="90" width="3.71428571" height="15"></rect>
                    <rect id="Rectangle-path" x="92.8571429" y="82.5" width="3.71428571" height="3.75"></rect>
                    <rect id="Rectangle-path" x="92.8571429" y="108.75" width="3.71428571" height="3.75"></rect>
                    <rect id="Rectangle-path" x="7.42857143" y="90" width="3.71428571" height="15"></rect>
                    <rect id="Rectangle-path" x="7.42857143" y="82.5" width="3.71428571" height="3.75"></rect>
                    <rect id="Rectangle-path" x="7.42857143" y="108.75" width="3.71428571" height="3.75"></rect>
                    <path d="M54.9714286,91.875 C55.7904286,91.875 56.5147143,91.33125 56.7505714,90.538125 L57.4674286,88.125 L57.5714286,88.125 C62.6915714,88.125 66.8571429,83.919375 66.8571429,78.75 L66.8571429,75 C66.8571429,73.963125 66.027,73.125 65,73.125 L61.2857143,73.125 L61.2857143,69.375 C61.2857143,68.338125 60.4555714,67.5 59.4285714,67.5 L44.5714286,67.5 C43.5462857,67.5 42.7142857,68.338125 42.7142857,69.375 L42.7142857,73.125 L39,73.125 C37.9748571,73.125 37.1428571,73.963125 37.1428571,75 L37.1428571,78.75 C37.1428571,83.919375 41.3084286,88.125 46.4285714,88.125 L46.5325714,88.125 L47.2494286,90.538125 C47.4852857,91.33125 48.2077143,91.875 49.0285714,91.875 L50.1428571,91.875 L50.1428571,97.5 L46.4285714,97.5 C45.4034286,97.5 44.5714286,98.338125 44.5714286,99.375 L44.5714286,106.875 C44.5714286,107.911875 45.4034286,108.75 46.4285714,108.75 L57.5714286,108.75 C58.5984286,108.75 59.4285714,107.911875 59.4285714,106.875 L59.4285714,99.375 C59.4285714,98.338125 58.5984286,97.5 57.5714286,97.5 L53.8571429,97.5 L53.8571429,91.875 L54.9714286,91.875 Z M55.7142857,105 L48.2857143,105 L48.2857143,101.25 L55.7142857,101.25 L55.7142857,105 Z M63.1428571,78.75 C63.1428571,81.493125 61.1872857,83.7825 58.6114286,84.275625 L60.8102857,76.875 L63.1428571,76.875 L63.1428571,78.75 Z M40.8571429,78.75 L40.8571429,76.875 L43.1897143,76.875 L45.3885714,84.275625 C42.8108571,83.7825 40.8571429,81.493125 40.8571429,78.75 Z M46.4285714,74.72625 L46.4285714,71.25 L57.5714286,71.25 L57.5714286,74.72625 L53.5878571,88.125 L50.4102857,88.125 L46.4285714,74.72625 Z" id="Shape"></path>
                </g>
            </g>
        </g>
    </g>
</svg>