<?xml version="1.0" encoding="UTF-8"?>
<svg width="120px" height="120px" viewBox="0 0 120 120" version="1.1" xmlns="http://www.w3.org/2000/svg" xmlns:xlink="http://www.w3.org/1999/xlink">
    <!-- Generator: Sketch 51.3 (57544) - http://www.bohemiancoding.com/sketch -->
    <title>icn_架構規劃報價</title>
    <desc>Created with Sketch.</desc>
    <defs></defs>
    <g id="Page-1" stroke="none" stroke-width="1" fill="none" fill-rule="evenodd">
        <g id="Superbil-LandingPage" transform="translate(-579.000000, -1920.000000)" fill="#000000" fill-rule="nonzero">
            <g id="icn_架構規劃報價" transform="translate(579.000000, 1920.000000)">
                <g id="Group">
                    <path d="M33.69375,95.1963436 C33.48375,94.3609388 32.735625,93.77653 31.875,93.77653 L31.875,48.8220101 C32.735625,48.8220101 33.48375,48.2376013 33.69375,47.4021965 L35.2125,41.3295901 L47.285625,41.3295901 L48.80625,47.4021965 C49.01625,48.2376013 49.764375,48.8220101 50.625,48.8220101 L50.625,60.0606401 L54.375,60.0606401 L54.375,48.8220101 L58.125,48.8220101 L58.125,60.0606401 L61.875,60.0606401 L61.875,48.8220101 L69.375,48.8220101 C70.235625,48.8220101 70.98375,48.2376013 71.19375,47.4021965 L72.7125,41.3295901 L84.785625,41.3295901 L86.30625,47.4021965 C86.51625,48.2376013 87.264375,48.8220101 88.125,48.8220101 L95.625,48.8220101 L95.625,60.0606401 L99.375,60.0606401 L99.375,48.8220101 L103.125,48.8220101 L103.125,60.0606401 L106.875,60.0606401 L106.875,48.8220101 C107.735625,48.8220101 108.48375,48.2376013 108.69375,47.4021965 L110.2125,41.3295901 L112.5,41.3295901 C113.360625,41.3295901 114.10875,40.7451814 114.31875,39.9097765 L116.19375,32.4173565 C116.334375,31.8572981 116.20875,31.265397 115.8525,30.8121056 C115.498125,30.356941 114.9525,30.0909601 114.375,30.0909601 L112.5,30.0909601 L112.5,25.2227602 C112.5,24.4903762 112.074375,23.827297 111.410625,23.5219809 L60.7875,0.19620438 C60.28875,-0.0341875351 59.715,-0.0341875351 59.21625,0.19620438 L8.589375,23.523854 C7.925625,23.8291701 7.5,24.4959955 7.5,25.2246334 L7.5,30.0909601 L5.625,30.0909601 C5.0475,30.0909601 4.501875,30.356941 4.1475,30.8121056 C3.793125,31.265397 3.665625,31.8591713 3.80625,32.4173565 L5.68125,39.9097765 C5.89125,40.7451814 6.639375,41.3295901 7.5,41.3295901 L9.7875,41.3295901 L11.308125,47.4021965 C11.51625,48.2376013 12.264375,48.8220101 13.125,48.8220101 L13.125,93.77653 C12.264375,93.77653 11.51625,94.3609388 11.30625,95.1963436 L9.7875,101.26895 L9.31125,101.26895 C8.445,101.26895 7.693125,101.860851 7.48875,102.703748 L6.024375,108.76137 L3.75,108.76137 C2.889375,108.76137 2.14125,109.345779 1.93125,110.181184 L0.05625,117.673604 C-0.084375,118.233662 0.04125,118.825563 0.3975,119.278855 C0.751875,119.734019 1.2975,120 1.875,120 L37.5,120 L37.5,116.25379 L4.276875,116.25379 L5.214375,112.50758 L37.5,112.50758 L37.5,108.76137 L9.883125,108.76137 L10.786875,105.01516 L37.5,105.01516 L37.5,101.26895 L35.2125,101.26895 L33.69375,95.1963436 Z M28.125,93.77653 L24.375,93.77653 L24.375,48.8220101 L28.125,48.8220101 L28.125,93.77653 Z M67.910625,45.0758001 L52.089375,45.0758001 L51.15,41.3295901 L68.848125,41.3295901 L67.910625,45.0758001 Z M105.410625,45.0758001 L89.589375,45.0758001 L88.65,41.3295901 L106.348125,41.3295901 L105.410625,45.0758001 Z M11.25,26.4234206 L60.001875,3.96114542 L108.75,26.4215474 L108.75,30.0909601 L11.25,30.0909601 L11.25,26.4234206 Z M8.026875,33.8371701 L111.973125,33.8371701 L111.035625,37.5833801 L8.964375,37.5833801 L8.026875,33.8371701 Z M31.348125,41.3295901 L30.410625,45.0758001 L14.589375,45.0758001 L13.651875,41.3295901 L31.348125,41.3295901 Z M16.875,48.8220101 L20.625,48.8220101 L20.625,93.77653 L16.875,93.77653 L16.875,48.8220101 Z M13.651875,101.26895 L14.589375,97.52274 L30.410625,97.52274 L31.348125,101.26895 L13.651875,101.26895 Z" id="Shape"></path>
                    <path d="M60,9.48680517 C54.830625,9.48680517 50.625,13.6881797 50.625,18.8523302 C50.625,24.0164806 54.830625,28.2178551 60,28.2178551 C65.169375,28.2178551 69.375,24.0164806 69.375,18.8523302 C69.375,13.6881797 65.169375,9.48680517 60,9.48680517 Z M60,24.4716451 C56.89875,24.4716451 54.375,21.9504458 54.375,18.8523302 C54.375,15.7542145 56.89875,13.2330152 60,13.2330152 C63.10125,13.2330152 65.625,15.7542145 65.625,18.8523302 C65.625,21.9504458 63.10125,24.4716451 60,24.4716451 Z" id="Shape"></path>
                    <path d="M120,65.6799551 C120,64.644128 119.161875,63.8068501 118.125,63.8068501 L93.75,63.8068501 L93.75,58.1875351 C93.75,57.151708 92.911875,56.3144301 91.875,56.3144301 L69.375,56.3144301 C68.338125,56.3144301 67.5,57.151708 67.5,58.1875351 L67.5,63.8068501 L43.125,63.8068501 C42.088125,63.8068501 41.25,64.644128 41.25,65.6799551 L41.25,76.9185851 C41.25,79.3835912 41.93625,81.6931297 43.125,83.6655093 L43.125,116.25379 C43.125,118.319825 44.806875,120 46.875,120 L114.375,120 C116.443125,120 118.125,118.319825 118.125,116.25379 L118.125,83.6655093 C119.31375,81.6931297 120,79.3854643 120,76.9185851 L120,65.6799551 Z M71.25,60.0606401 L90,60.0606401 L90,63.8068501 L71.25,63.8068501 L71.25,60.0606401 Z M45,67.5530601 L116.25,67.5530601 L116.25,76.9185851 C116.25,82.0827355 112.044375,86.2841101 106.875,86.2841101 L101.25,86.2841101 L101.25,90.03032 L106.875,90.03032 C109.66125,90.03032 112.246875,89.1574531 114.375,87.6720809 L114.375,108.76137 L110.625,108.76137 C109.914375,108.76137 109.265625,109.162214 108.946875,109.797197 L105.71625,116.25379 L55.53375,116.25379 L52.30125,109.797197 C51.984375,109.162214 51.335625,108.76137 50.625,108.76137 L46.875,108.76137 L46.875,87.6720809 C49.003125,89.1574531 51.58875,90.03032 54.375,90.03032 L69.375,90.03032 L69.375,93.77653 C69.375,95.8425649 71.056875,97.52274 73.125,97.52274 L88.125,97.52274 C90.193125,97.52274 91.875,95.8425649 91.875,93.77653 L91.875,90.03032 L97.5,90.03032 L97.5,86.2841101 L54.375,86.2841101 C49.205625,86.2841101 45,82.0827355 45,76.9185851 L45,67.5530601 Z M88.12875,93.77653 L73.125,93.77653 L73.125,90.03032 L88.126875,90.03032 L88.12875,93.77653 Z M46.875,116.25379 L46.875,112.50758 L49.46625,112.50758 L51.34125,116.25379 L46.875,116.25379 Z M109.90875,116.25379 L111.78375,112.50758 L114.375,112.50758 L114.375,116.25379 L109.90875,116.25379 Z" id="Shape"></path>
                    <rect id="Rectangle-path" x="75" y="75.0454801" width="11.25" height="3.74620999"></rect>
                </g>
            </g>
        </g>
    </g>
</svg>