<?xml version="1.0" encoding="UTF-8"?>
<svg width="131px" height="120px" viewBox="0 0 131 120" version="1.1" xmlns="http://www.w3.org/2000/svg" xmlns:xlink="http://www.w3.org/1999/xlink">
    <!-- Generator: Sketch 51.3 (57544) - http://www.bohemiancoding.com/sketch -->
    <title>icn_正式開發</title>
    <desc>Created with Sketch.</desc>
    <defs></defs>
    <g id="Page-1" stroke="none" stroke-width="1" fill="none" fill-rule="evenodd">
        <g id="Superbil-LandingPage" transform="translate(-232.000000, -2234.000000)" fill="#000000" fill-rule="nonzero">
            <g id="icn_正式開發" transform="translate(232.000000, 2234.000000)">
                <g id="Group">
                    <rect id="Rectangle-path" x="110.53125" y="30" width="4.09375" height="3.75"></rect>
                    <rect id="Rectangle-path" x="110.53125" y="37.5" width="4.09375" height="3.75"></rect>
                    <rect id="Rectangle-path" x="106.4375" y="33.75" width="4.09375" height="3.75"></rect>
                    <rect id="Rectangle-path" x="114.625" y="33.75" width="4.09375" height="3.75"></rect>
                    <rect id="Rectangle-path" x="65.5" y="3.75" width="4.09375" height="3.75"></rect>
                    <rect id="Rectangle-path" x="65.5" y="11.25" width="4.09375" height="3.75"></rect>
                    <rect id="Rectangle-path" x="61.40625" y="7.5" width="4.09375" height="3.75"></rect>
                    <rect id="Rectangle-path" x="69.59375" y="7.5" width="4.09375" height="3.75"></rect>
                    <path d="M25.1622344,86.799375 L21.0684844,90.549375 L23.9627656,93.200625 L26.609375,90.77625 L29.2559844,93.200625 L32.1502656,90.549375 L28.0565156,86.799375 C27.2561875,86.06625 25.9625625,86.06625 25.1622344,86.799375 Z" id="Shape"></path>
                    <path d="M39.4903594,98.049375 L35.3966094,101.799375 L38.2908906,104.450625 L40.9375,102.02625 L43.5841094,104.450625 L46.4783906,101.799375 L42.3846406,98.049375 C41.5843125,97.31625 40.2906875,97.31625 39.4903594,98.049375 Z" id="Shape"></path>
                    <path d="M130.795312,115.4925 L115.777391,85.45875 L112.056172,87.01875 L126.672906,116.25 L64.8388594,116.25 L53.4029687,90.06 L71.3049375,55.213125 L76.14375,61.125 C76.5285625,61.5975 77.1364844,61.875 77.78125,61.875 C78.4260156,61.875 79.0318906,61.5975 79.41875,61.125 L83.921875,55.625625 L88.425,61.125 C88.8098125,61.5975 89.4177344,61.875 90.0625,61.875 C90.7072656,61.875 91.3131406,61.5975 91.7,61.125 L96.2993281,55.505625 L110.185328,83.274375 L113.906547,81.714375 L85.96875,25.84125 L85.96875,15 L96.203125,15 L96.203125,20.625 C96.203125,21.661875 97.120125,22.5 98.25,22.5 L118.71875,22.5 C119.474047,22.5 120.167937,22.119375 120.524094,21.51 C120.88025,20.900625 120.841359,20.16 120.42175,19.58625 L117.085344,15 L120.42175,10.415625 C120.841359,9.84 120.88025,9.10125 120.524094,8.491875 C120.167937,7.880625 119.474047,7.5 118.71875,7.5 L106.4375,7.5 L106.4375,1.875 C106.4375,0.838125 105.5205,0 104.390625,0 L83.921875,0 C82.792,0 81.875,0.838125 81.875,1.875 L81.875,25.831875 L69.0492812,50.7975 C69.0492812,50.799375 69.0472344,50.80125 69.0472344,50.803125 L51.0265469,85.880625 L34.4591406,49.20375 C34.1459688,48.51 33.4090937,48.054375 32.5882969,48.046875 C32.5882969,48.046875 32.58625,48.046875 32.58625,48.046875 C32.58625,48.046875 32.5842031,48.046875 32.5842031,48.046875 C32.5801094,48.046875 32.5760156,48.046875 32.5719219,48.046875 C31.816625,48.0675 31.0183438,48.485625 30.6908438,49.168125 L20.3520781,70.768125 C20.2620156,70.955625 20.2087969,71.1525 20.1883281,71.35125 L0.169890625,113.630625 C0.0573125,113.865 0,114.118125 0,114.375 L0,118.125 C0,119.161875 0.917,120 2.046875,120 L63.3773906,120 C63.3917188,120 63.404,120 63.4183281,119.998125 C63.4306094,120 63.4408437,120 63.453125,120 L128.934703,120 C130.064578,120 130.981578,119.161875 130.981578,118.125 L130.981578,116.2725 C130.981578,116.0025 130.918125,115.73625 130.795312,115.4925 Z M94.3588906,51.62625 L90.0625,56.874375 L85.559375,51.375 C85.1725156,50.9025 84.5666406,50.625 83.921875,50.625 C83.2771094,50.625 82.6712344,50.9025 82.284375,51.375 L77.78125,56.874375 L73.278125,51.373125 L83.8973125,30.703125 L94.3588906,51.62625 Z M106.4375,11.25 L114.893141,11.25 L112.922,13.959375 C112.4635,14.589375 112.4635,15.40875 112.922,16.03875 L114.893141,18.75 L100.296875,18.75 L100.296875,15 L104.390625,15 C105.5205,15 106.4375,14.161875 106.4375,13.125 L106.4375,11.25 Z M102.34375,11.25 L85.96875,11.25 L85.96875,3.75 L102.34375,3.75 L102.34375,11.25 Z M32.5227969,54.725625 L40.3234375,71.99625 L38.890625,73.749375 L34.3875,68.25 C34.0006406,67.7775 33.3947656,67.5 32.75,67.5 C32.1052344,67.5 31.4993594,67.7775 31.1125,68.25 L26.609375,73.749375 L24.6484687,71.355 L32.5227969,54.725625 Z M4.09375,116.25 L4.09375,114.765 L22.7735313,75.315 L24.971875,78 C25.3587344,78.4725 25.9646094,78.75 26.609375,78.75 C27.2541406,78.75 27.8600156,78.4725 28.246875,78 L32.75,72.500625 L37.253125,78 C37.6379375,78.4725 38.2458594,78.75 38.890625,78.75 C39.5353906,78.75 40.1412656,78.4725 40.528125,78 L42.1451563,76.025625 L60.3152656,116.25 L4.09375,116.25 Z" id="Shape"></path>
                    <path d="M72.2403594,83.049375 L68.1466094,86.799375 L71.0408906,89.450625 L73.6875,87.02625 L76.3341094,89.450625 L79.2283906,86.799375 L75.1346406,83.049375 C74.3343125,82.31625 73.0406875,82.31625 72.2403594,83.049375 Z" id="Shape"></path>
                    <path d="M90.6622344,68.049375 L86.5684844,71.799375 L89.4627656,74.450625 L92.109375,72.02625 L94.7559844,74.450625 L97.6502656,71.799375 L93.5565156,68.049375 C92.7561875,67.31625 91.4625625,67.31625 90.6622344,68.049375 Z" id="Shape"></path>
                </g>
            </g>
        </g>
    </g>
</svg>