<?xml version="1.0" encoding="UTF-8"?>
<svg width="117px" height="120px" viewBox="0 0 117 120" version="1.1" xmlns="http://www.w3.org/2000/svg" xmlns:xlink="http://www.w3.org/1999/xlink">
    <!-- Generator: Sketch 51.3 (57544) - http://www.bohemiancoding.com/sketch -->
    <title>icn_開發建議</title>
    <desc>Created with Sketch.</desc>
    <defs></defs>
    <g id="Page-1" stroke="none" stroke-width="1" fill="none" fill-rule="evenodd">
        <g id="Superbil-LandingPage" transform="translate(-239.000000, -1099.000000)" fill="#000000" fill-rule="nonzero">
            <g id="Group-17" transform="translate(196.000000, 1099.000000)">
                <g id="icn_開發建議" transform="translate(43.000000, 0.000000)">
                    <g id="Group">
                        <path d="M116.07343,28.381875 L111.115719,25.119375 L115.138084,16.153125 C115.513354,15.316875 115.22483,14.3325 114.457318,13.82625 L108.168247,9.68625 C107.400735,9.178125 106.374872,9.301875 105.746908,9.97125 L97.9378994,18.309375 C97.9114985,18.3375 97.8869834,18.365625 97.8624683,18.395625 C97.8624683,18.395625 97.8624683,18.395625 97.8624683,18.395625 C97.8436105,18.418125 97.8266385,18.440625 97.8077807,18.463125 C97.8040092,18.46875 97.8002376,18.4725 97.7964661,18.478125 C97.7870372,18.489375 97.7794941,18.5025 97.7719509,18.51375 C97.7587505,18.530625 97.7474358,18.549375 97.7361212,18.56625 L90.1741499,29.926875 L87.3322819,34.19625 C87.3285104,34.2 87.3266246,34.205625 87.322853,34.209375 L56.1019064,81.103125 C56.0981348,81.10875 56.0962491,81.1125 56.0924775,81.118125 C56.0830486,81.133125 56.0717339,81.15 56.062305,81.165 C56.0547619,81.178125 56.045333,81.193125 56.0377899,81.20625 C56.028361,81.22125 56.0208179,81.23625 56.011389,81.253125 C56.0038459,81.268125 55.9963028,81.283125 55.9887597,81.298125 C55.9812166,81.313125 55.9736735,81.328125 55.9661303,81.345 C55.9529299,81.373125 55.9397294,81.403125 55.9284148,81.433125 C55.9227574,81.44625 55.9189859,81.459375 55.9133286,81.470625 C55.9057854,81.489375 55.8982423,81.508125 55.892585,81.526875 C55.8869277,81.541875 55.8831561,81.556875 55.8774988,81.57375 C55.8718414,81.590625 55.8661841,81.609375 55.8624125,81.62625 C55.8605268,81.635625 55.8567552,81.643125 55.8548694,81.650625 L52.7546498,93.10125 C52.5434426,93.879375 52.8583676,94.70625 53.535362,95.1525 L51.4534627,98.28 L54.598941,100.35 L56.6808403,97.2225 C56.9957653,97.430625 57.3597206,97.53375 57.72179,97.53375 C58.1328897,97.53375 58.5439894,97.400625 58.8853153,97.134375 L68.2614053,89.83125 C68.3481511,89.76375 68.4311253,89.68875 68.5065565,89.60625 C68.5122138,89.600625 68.5178711,89.595 68.5216427,89.589375 C68.5386147,89.570625 68.5537009,89.551875 68.5706729,89.53125 C68.5801018,89.52 68.5895307,89.50875 68.5989596,89.4975 C68.6102743,89.4825 68.6234747,89.4675 68.6347894,89.450625 C68.6479899,89.43375 68.6593045,89.416875 68.6706192,89.4 C68.6743908,89.394375 68.6800481,89.38875 68.6838196,89.383125 L90.2062081,57.0525 L87.0607298,54.9825 L66.5811768,85.749375 L64.8085451,84.583125 L60.2902201,81.609375 L89.433039,37.83 L95.7239956,41.97 L89.4028666,51.466875 L92.5483449,53.536875 L102.62783,38.39625 L104.074222,36.223125 C104.076108,36.22125 104.077994,36.2175 104.077994,36.215625 L109.277085,28.404375 L112.422563,30.474375 L99.9292814,49.2375 L103.07476,51.3075 L116.605219,30.980625 C117.180382,30.11625 116.942774,28.951875 116.07343,28.381875 Z M107.415822,13.689375 L111.042173,16.074375 L107.926867,23.019375 L105.066142,21.136875 L102.205416,19.254375 L107.415822,13.689375 Z M57.6275011,93.350625 L56.7487284,92.773125 L58.8155415,85.138125 L63.8863995,88.475625 L57.6275011,93.350625 Z M99.838764,22.194375 L101.611396,23.360625 L106.129721,26.334375 L101.965922,32.589375 L95.6749654,28.449375 L99.838764,22.194375 Z M91.5111668,34.704375 L93.5930661,31.576875 L99.8840227,35.715 L97.8021234,38.8425 L91.5111668,34.704375 Z" id="Shape"></path>
                        <rect id="Rectangle-path" transform="translate(72.803218, 69.610037) rotate(-56.510155) translate(-72.803218, -69.610037) " x="63.3741408" y="67.7350005" width="18.8581536" height="3.75007357"></rect>
                        <rect id="Rectangle-path" transform="translate(81.130692, 57.100221) rotate(-56.510155) translate(-81.130692, -57.100221) " x="79.2448766" y="55.2251846" width="3.77163073" height="3.75007357"></rect>
                        <path d="M82.9742481,116.25 L3.77155673,116.25 L3.77155673,3.75 L18.8577837,3.75 L18.8577837,11.25 L9.42889183,11.25 C8.38794217,11.25 7.54311346,12.09 7.54311346,13.125 L7.54311346,110.625 C7.54311346,111.66 8.38794217,112.5 9.42889183,112.5 L77.316913,112.5 C78.3578627,112.5 79.2026914,111.66 79.2026914,110.625 L79.2026914,84.375 L75.4311346,84.375 L75.4311346,108.75 L11.3146702,108.75 L11.3146702,15 L18.8577837,15 L18.8577837,18.75 C18.8577837,20.818125 20.5493269,22.5 22.6293404,22.5 L64.1164644,22.5 C66.196478,22.5 67.8880212,20.818125 67.8880212,18.75 L67.8880212,15 L75.4311346,15 L75.4311346,41.25 L79.2026914,41.25 L79.2026914,13.125 C79.2026914,12.09 78.3578627,11.25 77.316913,11.25 L67.8880212,11.25 L67.8880212,3.75 L82.9742481,3.75 L82.9742481,30 L86.7458048,30 L86.7458048,3.75 C86.7458048,1.681875 85.0542616,0 82.9742481,0 L3.77155673,0 C1.69154319,0 0,1.681875 0,3.75 L0,116.25 C0,118.318125 1.69154319,120 3.77155673,120 L82.9742481,120 C85.0542616,120 86.7458048,118.318125 86.7458048,116.25 L86.7458048,73.125 L82.9742481,73.125 L82.9742481,116.25 Z M64.1164644,3.75 L64.1183502,18.75 L22.6293404,18.75 L22.6293404,3.75 L64.1164644,3.75 Z" id="Shape"></path>
                        <polygon id="Shape" points="30.1724539 13.125 56.573351 13.125 56.573351 15 60.3449077 15 60.3449077 7.5 56.573351 7.5 56.573351 9.375 30.1724539 9.375 30.1724539 7.5 26.4008971 7.5 26.4008971 15 30.1724539 15"></polygon>
                        <path d="M26.4008971,50.625 C26.4367269,50.625 26.4706709,50.625 26.5046149,50.623125 C27.040176,50.593125 27.5380215,50.338125 27.87369,49.921875 L35.4168035,40.546875 L32.4712177,38.205 L26.2443775,45.943125 L23.9625857,43.674375 L21.2960951,46.325625 L25.0676518,50.075625 C25.4221782,50.428125 25.9011659,50.625 26.4008971,50.625 Z" id="Shape"></path>
                        <rect id="Rectangle-path" x="47.1444591" y="33.75" width="7.54311346" height="3.75"></rect>
                        <path d="M29.2295647,58.125 C37.029144,58.125 43.3729024,51.8175 43.3729024,44.0625 C43.3729024,36.3075 37.029144,30 29.2295647,30 C21.4299854,30 15.0862269,36.3075 15.0862269,44.0625 C15.0862269,51.8175 21.4299854,58.125 29.2295647,58.125 Z M29.2295647,33.75 C34.9491305,33.75 39.6013457,38.375625 39.6013457,44.0625 C39.6013457,49.749375 34.9491305,54.375 29.2295647,54.375 C23.5099989,54.375 18.8577837,49.749375 18.8577837,44.0625 C18.8577837,38.375625 23.5099989,33.75 29.2295647,33.75 Z" id="Shape"></path>
                        <path d="M26.2443775,79.693125 L23.9625857,77.424375 L21.2960951,80.075625 L25.0676518,83.825625 C25.4221782,84.178125 25.9011659,84.375 26.4008971,84.375 C26.4367269,84.375 26.4706709,84.375 26.5046149,84.373125 C27.040176,84.343125 27.5380215,84.088125 27.87369,83.671875 L35.4168035,74.296875 L32.4712177,71.955 L26.2443775,79.693125 Z" id="Shape"></path>
                        <path d="M43.3729024,77.8125 C43.3729024,70.0575 37.029144,63.75 29.2295647,63.75 C21.4299854,63.75 15.0862269,70.0575 15.0862269,77.8125 C15.0862269,85.5675 21.4299854,91.875 29.2295647,91.875 C37.029144,91.875 43.3729024,85.5675 43.3729024,77.8125 Z M29.2295647,88.125 C23.5099989,88.125 18.8577837,83.499375 18.8577837,77.8125 C18.8577837,72.125625 23.5099989,67.5 29.2295647,67.5 C34.9491305,67.5 39.6013457,72.125625 39.6013457,77.8125 C39.6013457,83.499375 34.9491305,88.125 29.2295647,88.125 Z" id="Shape"></path>
                        <rect id="Rectangle-path" x="58.4591293" y="33.75" width="13.2004486" height="3.75"></rect>
                        <rect id="Rectangle-path" x="64.1164644" y="48.75" width="7.54311346" height="3.75"></rect>
                        <rect id="Rectangle-path" x="47.1444591" y="48.75" width="13.2004486" height="3.75"></rect>
                        <rect id="Rectangle-path" x="47.1444591" y="41.25" width="24.5151188" height="3.75"></rect>
                        <rect id="Rectangle-path" x="47.1444591" y="67.5" width="11.3146702" height="3.75"></rect>
                        <rect id="Rectangle-path" x="47.1444591" y="82.5" width="5.6573351" height="3.75"></rect>
                        <rect id="Rectangle-path" x="47.1444591" y="75" width="7.54311346" height="3.75"></rect>
                        <rect id="Rectangle-path" x="39.6013457" y="97.5" width="7.54311346" height="3.75"></rect>
                        <rect id="Rectangle-path" x="16.9720053" y="97.5" width="18.8577837" height="3.75"></rect>
                    </g>
                </g>
            </g>
        </g>
    </g>
</svg>