<?xml version="1.0" encoding="UTF-8"?>
<svg width="120px" height="120px" viewBox="0 0 120 120" version="1.1" xmlns="http://www.w3.org/2000/svg" xmlns:xlink="http://www.w3.org/1999/xlink">
    <!-- Generator: Sketch 51.3 (57544) - http://www.bohemiancoding.com/sketch -->
    <title>icn_需求分析</title>
    <desc>Created with Sketch.</desc>
    <defs></defs>
    <g id="Page-1" stroke="none" stroke-width="1" fill="none" fill-rule="evenodd">
        <g id="Superbil-LandingPage" transform="translate(-257.000000, -1925.000000)" fill="#000000" fill-rule="nonzero">
            <g id="icn_需求分析" transform="translate(257.000000, 1925.000000)">
                <g id="Group">
                    <path d="M36.729375,62.821875 C36.39375,62.236875 35.773125,61.875 35.1,61.875 L20.2875,61.875 C19.62,61.875 19.00125,62.229375 18.6675,62.80875 C18.33,63.38625 18.328125,64.09875 18.658125,64.68 L22.404375,71.25 L18.658125,77.821875 C18.328125,78.403125 18.33,79.11375 18.6675,79.693125 C19.003125,80.270625 19.62,80.625 20.2875,80.625 L35.098125,80.625 C35.77125,80.625 36.391875,80.263125 36.7275,79.678125 L40.464375,73.125 L86.25,73.125 L86.25,69.375 L40.464375,69.375 L36.729375,62.821875 Z M34.010625,65.625 L36.15,69.375 L25.65375,69.375 L23.514375,65.625 L34.010625,65.625 Z M34.010625,76.875 L23.514375,76.875 L25.65375,73.125 L36.15,73.125 L34.010625,76.875 Z" id="Shape"></path>
                    <path d="M86.17125,78.75 C83.833125,78.75 81.669375,77.68875 80.236875,75.834375 L77.270625,78.129375 C79.4175,80.90625 82.663125,82.5 86.17125,82.5 C92.375625,82.5 97.42125,77.454375 97.42125,71.25 C97.42125,65.045625 92.375625,60 86.17125,60 C82.599375,60 79.32,61.640625 77.17125,64.498125 L80.17125,66.75 C81.60375,64.843125 83.791875,63.748125 86.17125,63.748125 C90.3075,63.748125 93.67125,67.111875 93.67125,71.248125 C93.67125,75.384375 90.3075,78.75 86.17125,78.75 Z" id="Shape"></path>
                    <path d="M72.02625,76.25625 L68.491875,77.506875 C71.135625,84.980625 78.241875,90 86.17125,90 C96.51,90 104.92125,81.58875 104.92125,71.25 C104.92125,60.91125 96.51,52.5 86.17125,52.5 C78.238125,52.5 71.131875,57.523125 68.49,65.000625 L72.024375,66.249375 C74.139375,60.268125 79.824375,56.25 86.17125,56.25 C94.441875,56.25 101.17125,62.979375 101.17125,71.25 C101.17125,79.520625 94.441875,86.25 86.17125,86.25 C79.82625,86.25 74.143125,82.23375 72.02625,76.25625 Z" id="Shape"></path>
                    <path d="M60.620625,77.295 C63.425625,89.191875 73.933125,97.5 86.17125,97.5 C100.64625,97.5 112.42125,85.725 112.42125,71.25 C112.42125,56.775 100.64625,45 86.17125,45 C73.93875,45 63.43125,53.304375 60.6225,65.195625 L64.273125,66.058125 C66.67875,55.8675 75.684375,48.75 86.17125,48.75 C98.578125,48.75 108.67125,58.843125 108.67125,71.25 C108.67125,83.656875 98.578125,93.75 86.17125,93.75 C75.680625,93.75 66.675,86.630625 64.27125,76.434375 L60.620625,77.295 Z" id="Shape"></path>
                    <path d="M86.17125,37.5 C69.7875,37.5 55.815,49.18875 52.94625,65.295 L56.638125,65.953125 C59.18625,51.639375 71.60625,41.25 86.17125,41.25 C102.7125,41.25 116.17125,54.70875 116.17125,71.25 C116.17125,87.79125 102.7125,101.25 86.17125,101.25 C71.60625,101.25 59.18625,90.860625 56.638125,76.546875 L52.94625,77.205 C55.815,93.31125 69.7875,105 86.17125,105 C104.780625,105 119.92125,89.859375 119.92125,71.25 C119.92125,52.640625 104.780625,37.5 86.17125,37.5 Z" id="Shape"></path>
                    <path d="M82.5,116.25 L3.75,116.25 L3.75,3.75 L18.75,3.75 L18.75,11.25 L9.375,11.25 C8.338125,11.25 7.5,12.09 7.5,13.125 L7.5,110.625 C7.5,111.66 8.338125,112.5 9.375,112.5 L76.875,112.5 C77.911875,112.5 78.75,111.66 78.75,110.625 L78.75,106.875 L75,106.875 L75,108.75 L11.25,108.75 L11.25,15 L18.75,15 L18.75,18.75 C18.75,20.818125 20.431875,22.5 22.5,22.5 L63.75,22.5 C65.818125,22.5 67.5,20.818125 67.5,18.75 L67.5,15 L75,15 L75,33.75 L78.75,33.75 L78.75,13.125 C78.75,12.09 77.911875,11.25 76.875,11.25 L67.5,11.25 L67.5,3.75 L82.5,3.75 L82.5,33.75 L86.25,33.75 L86.25,3.75 C86.25,1.681875 84.568125,0 82.5,0 L3.75,0 C1.681875,0 0,1.681875 0,3.75 L0,116.25 C0,118.318125 1.681875,120 3.75,120 L82.5,120 C84.568125,120 86.25,118.318125 86.25,116.25 L86.25,108.75 L82.5,108.75 L82.5,116.25 Z M63.75,3.75 L63.751875,18.75 L22.5,18.75 L22.5,3.75 L63.75,3.75 Z" id="Shape"></path>
                    <rect id="Rectangle-path" x="30" y="7.5" width="3.75" height="7.5"></rect>
                    <rect id="Rectangle-path" x="52.5" y="7.5" width="3.75" height="7.5"></rect>
                    <rect id="Rectangle-path" x="41.25" y="7.5" width="3.75" height="7.5"></rect>
                    <rect id="Rectangle-path" x="15" y="90" width="26.25" height="3.75"></rect>
                    <rect id="Rectangle-path" x="45" y="90" width="7.5" height="3.75"></rect>
                    <rect id="Rectangle-path" x="15" y="97.5" width="11.25" height="3.75"></rect>
                    <rect id="Rectangle-path" x="30" y="97.5" width="22.5" height="3.75"></rect>
                    <path d="M65.625,37.5 C68.72625,37.5 71.25,34.97625 71.25,31.875 C71.25,28.77375 68.72625,26.25 65.625,26.25 C62.52375,26.25 60,28.77375 60,31.875 C60,32.743125 60.196875,33.564375 60.549375,34.299375 L54.193125,40.655625 C53.221875,39.855 51.97875,39.375 50.625,39.375 C49.220625,39.375 47.93625,39.8925 46.95,40.7475 L38.930625,34.065 C39.2175,33.391875 39.375,32.65125 39.375,31.875 C39.375,28.77375 36.85125,26.25 33.75,26.25 C30.64875,26.25 28.125,28.77375 28.125,31.875 C28.125,33.279375 28.6425,34.56375 29.495625,35.55 L21.555,45.07875 C21.253125,45.028125 20.941875,45 20.625,45 C17.52375,45 15,47.52375 15,50.625 C15,53.72625 17.52375,56.25 20.625,56.25 C23.72625,56.25 26.25,53.72625 26.25,50.625 C26.25,49.220625 25.7325,47.93625 24.879375,46.95 L32.82,37.42125 C33.121875,37.471875 33.433125,37.5 33.75,37.5 C34.70625,37.5 35.608125,37.26 36.399375,36.83625 L45.07875,44.07 C45.028125,44.371875 45,44.683125 45,45 C45,48.10125 47.52375,50.625 50.625,50.625 C53.72625,50.625 56.25,48.10125 56.25,45 C56.25,44.656875 56.218125,44.319375 56.158125,43.993125 L63.200625,36.950625 C63.935625,37.303125 64.756875,37.5 65.625,37.5 Z M65.625,30 C66.66,30 67.5,30.841875 67.5,31.875 C67.5,32.908125 66.66,33.75 65.625,33.75 C64.59,33.75 63.75,32.908125 63.75,31.875 C63.75,30.841875 64.59,30 65.625,30 Z M20.625,52.5 C19.59,52.5 18.75,51.658125 18.75,50.625 C18.75,49.591875 19.59,48.75 20.625,48.75 C21.66,48.75 22.5,49.591875 22.5,50.625 C22.5,51.658125 21.66,52.5 20.625,52.5 Z M31.875,31.875 C31.875,30.841875 32.715,30 33.75,30 C34.785,30 35.625,30.841875 35.625,31.875 C35.625,32.908125 34.785,33.75 33.75,33.75 C32.715,33.75 31.875,32.908125 31.875,31.875 Z M50.625,46.875 C49.59,46.875 48.75,46.033125 48.75,45 C48.75,43.966875 49.59,43.125 50.625,43.125 C51.66,43.125 52.5,43.966875 52.5,45 C52.5,46.033125 51.66,46.875 50.625,46.875 Z" id="Shape"></path>
                </g>
            </g>
        </g>
    </g>
</svg>