<?xml version="1.0" encoding="UTF-8"?>
<svg width="643px" height="389px" viewBox="0 0 643 389" version="1.1" xmlns="http://www.w3.org/2000/svg" xmlns:xlink="http://www.w3.org/1999/xlink">
    <!-- Generator: Sketch 51.3 (57544) - http://www.bohemiancoding.com/sketch -->
    <title>map</title>
    <desc>Created with Sketch.</desc>
    <defs>
        <linearGradient x1="50%" y1="0%" x2="50%" y2="100%" id="linearGradient-1">
            <stop stop-color="#45B2CA" offset="0%"></stop>
            <stop stop-color="#100BC9" offset="100%"></stop>
        </linearGradient>
        <linearGradient x1="50%" y1="0%" x2="50%" y2="100%" id="linearGradient-2">
            <stop stop-color="#8B55D2" offset="0%"></stop>
            <stop stop-color="#100BC9" offset="100%"></stop>
        </linearGradient>
        <ellipse id="path-3" cx="32.3470536" cy="32.8120063" rx="32.3470536" ry="32.8120063"></ellipse>
        <filter x="-24.7%" y="-21.3%" width="149.5%" height="148.8%" filterUnits="objectBoundingBox" id="filter-4">
            <feOffset dx="0" dy="2" in="SourceAlpha" result="shadowOffsetOuter1"></feOffset>
            <feGaussianBlur stdDeviation="5" in="shadowOffsetOuter1" result="shadowBlurOuter1"></feGaussianBlur>
            <feColorMatrix values="0 0 0 0 0   0 0 0 0 0   0 0 0 0 0  0 0 0 0.25 0" type="matrix" in="shadowBlurOuter1"></feColorMatrix>
        </filter>
    </defs>
    <g id="App-gif" stroke="none" stroke-width="1" fill="none" fill-rule="evenodd">
        <g id="map">
            <g id="map_01{:linearEase;0,344,11,322,377,360,1;20,168,11,322,377,360,1;40,193,11,322,377,360,1;60,245,11,322,377,360,1;80,44,10,322,377,360,1;100,193,10,322,377,360,1;120,349,10,322,377,360,1;}-Copy" transform="translate(321.000000, 0.000000)">
                <g id="map_bg" transform="translate(3.175362, 0.000000)" fill="url(#linearGradient-1)">
                    <rect id="Rectangle-10" x="0" y="0" width="317.536184" height="351.407079" rx="20"></rect>
                </g>
                <g id="map_line" opacity="0.2" transform="translate(0.000000, 122.780787)" stroke="#FFFFFF">
                    <path d="M164.060362,4.23382022 L259.321217,4.23382022" id="Path-42" stroke-width="2"></path>
                    <path d="M154.534276,11.9076194 L205.340066,11.9076194" id="Path-42-Copy" stroke-width="2"></path>
                    <path d="M142.891283,21.3896126 L283.665658,21.3896126" id="Path-42-Copy-2" stroke-width="2"></path>
                    <path d="M202.164704,41.4929083 L312.243914,41.4929083" id="Path-42-Copy-3" stroke-width="2"></path>
                    <path d="M157.709638,32.9064927 L267.788849,32.9064927" id="Path-42-Copy-5" stroke-width="2"></path>
                    <path d="M123.839112,55.1340489 L233.918322,55.1340489" id="Path-42-Copy-4" stroke-width="2"></path>
                    <path d="M178.80453,1.7185922 C168.798356,10.5256545 162.84095,17.2678201 160.932312,21.945089 C158.069354,28.9609923 151.362498,49.7048708 151.362498,53.2293161 C151.362498,55.5789464 154.552436,64.497703 160.932312,79.9855859" id="Path-43" stroke-width="3"></path>
                    <path d="M192.1922,1.33316024 L182.007779,21.3652049" id="Path-44" stroke-width="3"></path>
                    <path d="M205.279511,11.7919085 L201.933895,41.4666968" id="Path-46" stroke-width="3"></path>
                    <path d="M233.485461,57.1617638 L233.485461,32.6920431" id="Path-47" stroke-width="3"></path>
                    <path d="M267.202622,32.646572 L247.488798,4.57193943" id="Path-48" stroke-width="3"></path>
                    <path d="M229.650493,5.70955117 L233.371885,20.4029708" id="Path-49" stroke-width="3"></path>
                    <path d="M255.633255,33.9686613 L265.142714,58.7442556" id="Path-50" stroke-width="3"></path>
                    <polyline id="Path-40" points="3.17536184 44.5079485 83.6294869 2.84217094e-14 251.923665 2.84217094e-14 317.453388 44.5079485"></polyline>
                    <path d="M94.535359,0.444075547 L4.07543163,56.9085572" id="Path-53" stroke-width="3"></path>
                    <path d="M105.834409,0.433799669 L39.692023,52.3935253" id="Path-54" stroke-width="3"></path>
                    <path d="M118.017615,0.529227528 L92.6147204,22.7567837" id="Path-55" stroke-width="3"></path>
                    <path d="M2.9553621,152.645977 L130.826786,0.333976854" id="Path-56" stroke-width="3"></path>
                    <path d="M115.900707,42.8674298 L2.62252583,199.618812" id="Path-57" stroke-width="3"></path>
                    <path d="M73.2571998,6.93166639 L123.513714,6.93166639" id="Path-58" stroke-width="2"></path>
                    <path d="M72.7689408,12.4253989 L133.812705,14.8923195" id="Path-59" stroke-width="2"></path>
                    <path d="M46.8616594,20.4268764 L92.5900341,23.1784964" id="Path-60" stroke-width="2"></path>
                    <path d="M115.218856,43.4385016 L78.3255921,41.2797472" id="Path-61" stroke-width="2"></path>
                    <path d="M78.7198556,42.1394983 L3.02052108,113.031124" id="Path-62" stroke-width="3"></path>
                    <path d="M66.7761132,52.0006996 L38.9365198,52.0006996" id="Path-63" stroke-width="3"></path>
                    <path d="M49.8746384,69.4668872 L2.6673841,64.9659792" id="Path-64" stroke-width="3"></path>
                    <path d="M22.9479427,34.0788196 L59.9982645,37.0226527" id="Path-65" stroke-width="3"></path>
                    <path d="M55.0396053,27.5198315 L95.7823936,30.4190036" id="Path-66"></path>
                    <path d="M0.529226974,52.3935253 L42.8673849,52.3935253" id="Path-66-Copy"></path>
                    <path d="M66.1533717,54.2458216 L106.374622,58.2098373" id="Path-66-Copy-2"></path>
                    <path d="M62.9780099,80.707198 L108.49153,86.2640871" id="Path-66-Copy-4"></path>
                    <path d="M26.9905757,90.2332935 L74.6210033,96.8486376" id="Path-66-Copy-5"></path>
                    <path d="M66.1533717,112.725463 L144.478964,130.719199" id="Path-66-Copy-7" stroke-width="3"></path>
                    <path d="M17.4644901,133.629951 L127.543701,163.531306" id="Path-66-Copy-8" stroke-width="3"></path>
                    <path d="M22.7567599,174.115857 L112.725345,199.518778" id="Path-66-Copy-10" stroke-width="3"></path>
                    <path d="M3.70458882,116.69467 L82.0301809,132.83611" id="Path-66-Copy-9"></path>
                    <path d="M2.64613487,74.3564677 L38.6335691,80.9718118" id="Path-66-Copy-6"></path>
                    <path d="M67.2118257,47.7892458 L110.608437,50.2766152" id="Path-66-Copy-3"></path>
                    <path d="M112.692045,82.1195604 L28.5333955,228.00723" id="Path-67" stroke-width="3"></path>
                    <path d="M115.490646,125.956152 L80.4425,190.027891" id="Path-68" stroke-width="3"></path>
                    <path d="M120.782916,89.9686798 L85.7347697,154.04042" id="Path-68-Copy" stroke-width="3"></path>
                    <path d="M301.301534,68.6727336 L320.380436,94.0085424" id="Path-69" stroke-width="3"></path>
                    <path d="M269.507612,70.1477897 L320.182319,186.817317" id="Path-70" stroke-width="3"></path>
                    <path d="M231.801414,71.9749438 L280.552096,225.622804" id="Path-71" stroke-width="3"></path>
                    <path d="M203.223158,81.5010393 L229.15528,223.863244" id="Path-71-Copy" stroke-width="3"></path>
                    <path d="M174.644901,94.2025 L191.050937,167.765126" id="Path-71-Copy-2" stroke-width="3"></path>
                    <polyline id="Path-72" stroke-width="3" points="163.242538 117.382705 206.036955 102.178672 240.37592 98.5101386"></polyline>
                    <path d="M211.519368,125.608882 L287.261766,113.25051" id="Path-74" stroke-width="3"></path>
                    <path d="M235.757139,78.7535577 L271.706182,74.886312" id="Path-75" stroke-width="3"></path>
                    <path d="M267.349803,88.3936482 L317.738585,78.0020178" id="Path-76" stroke-width="3"></path>
                    <path d="M186.502035,144.188475 L250.795563,133.605775" id="Path-77" stroke-width="3"></path>
                    <path d="M180.21713,172.242565 L250.166308,159.896931" id="Path-78" stroke-width="3"></path>
                    <path d="M288.428701,149.77139 L320.693789,140.147993" id="Path-79" stroke-width="3"></path>
                    <path d="M209.983172,191.143155 L284.454322,174.397828" id="Path-80" stroke-width="3"></path>
                    <path d="" id="Path-73" stroke-width="3"></path>
                    <path d="M267.418588,90.2126294 L288.999222,149.984248" id="Path-81" stroke-width="3"></path>
                    <path d="M282.816222,175.095869 L264.402241,117.85401" id="Path-82" stroke-width="3"></path>
                    <path d="M254.247548,181.640634 L243.112032,137.541806" id="Path-83" stroke-width="3"></path>
                    <path d="M209.044655,189.992683 L214.579024,226.567431" id="Path-84" stroke-width="3"></path>
                </g>
                <path d="M136.722027,212.910212 C171.906693,195.764162 199.126872,185.853567 218.382564,183.178429 C237.718884,180.492089 271.795169,179.482059 320.611419,180.148338 L320.611419,189.691435 C272.875762,189.41989 240.915754,190.69626 224.731395,193.520545 C208.599286,196.335713 184.163039,208.084403 151.422654,228.766616 C163.215244,241.33446 175.38,254.69895 178.72167,263.914252 C178.72167,276.631559 172.341419,305.64964 159.580918,350.968493 L97.033999,350.968493 C124.263223,303.026795 142.727413,269.715046 152.42657,251.033246 C146.130025,240.14449 116.432837,215.640451 110.938481,199.37925 C105.444125,183.118049 115.31444,164.879118 121.229658,154.473306 C125.173137,147.536097 137.95689,136.504732 159.580918,121.379208 L171.090639,121.379208 C150.535693,136.036167 137.864271,147.067532 133.076373,154.473306 C120.288002,174.253963 124.375732,193.881971 126.719371,199.37925 C128.138606,202.708232 131.8645,207.429222 136.722027,212.910212 Z" id="Combined-Shape" fill="#FFFFFF" opacity="0.370089286"></path>
                <g id="map_block" opacity="0.5" transform="translate(27.519803, 135.482247)" fill="#FFFFFF">
                    <polygon id="Path-51" points="204.281612 0 242.341003 0 252.397719 6.79023696 205.547552 6.79023696"></polygon>
                    <polygon id="Path-51-Copy" points="124.897566 33.8705618 164.516194 33.8705618 164.516194 40.6607988 126.163506 40.6607988"></polygon>
                    <polygon id="Path-51-Copy-2" points="39.8345453 42.3382022 53.2289939 44.6334138 22.3321433 82.2224361 0 78.6096738"></polygon>
                    <polygon id="Path-51-Copy-3" points="46.9781484 137.599157 69.3197662 143.661311 53.5046823 176.547074 26.4613487 171.575417"></polygon>
                    <polygon id="Path-51-Copy-4" points="182.054079 90.5960151 212.585204 87.8517697 218.24903 106.245996 185.001676 111.453318"></polygon>
                    <polygon id="Path-51-Copy-5" points="221.216875 107.802525 236.066797 104.787051 252.741844 160.140522 237.747995 163.943528"></polygon>
                    <path d="M250.853586,72.873508 L281.373516,69.1019468 L292.483802,82.3044061 C293.686117,111.039131 293.686117,125.905665 292.483802,126.904006 C291.281487,127.902348 285.608856,129.251485 275.465909,130.951418 L250.853586,72.873508 Z" id="Path-51-Copy-6"></path>
                    <polygon id="Path-52" points="164.723838 40.7776527 165.910546 21.0455057 173.657277 21.0455057 173.657277 40.7776527"></polygon>
                </g>
                <g id="map_path" transform="translate(2.116908, 148.183708)">
                    <path d="M0.80608577,175.175916 C51.2417009,98.2592784 78.620302,59.8009596 82.9418892,59.8009596 C89.4242699,59.8009596 103.738726,59.8009596 110.936028,59.8009596 C118.13333,59.8009596 114.917787,27.5300828 124.314354,27.5300828 C130.578732,27.5300828 147.462202,27.5300828 174.964766,27.5300828" stroke="#ACF2FF" stroke-width="6"></path>
                    <text id="map_mark" font-family="FontAwesome5FreeSolid, Font Awesome 5 Free" font-size="24" font-weight="700" fill="#ACF2FF">
                        <tspan x="164.060362" y="21.7014607"></tspan>
                    </text>
                </g>
            </g>
            <g id="map_01{:linearEase;0,23,12,318,377,360,1;20,-153,12,318,377,360,1;40,-128,12,318,377,360,1;60,-76,12,318,377,360,1;80,-277,11,318,377,360,1;100,-128,11,318,377,360,1;120,28,11,318,377,360,1;}-Copy" transform="translate(0.000000, 1.000000)">
                <g id="map_bg" transform="translate(3.130360, 0.000000)" fill="url(#linearGradient-2)">
                    <rect id="Rectangle-10" x="0" y="0" width="313.036003" height="351.406003" rx="20"></rect>
                </g>
                <g id="map_line" opacity="0.2" transform="translate(0.000000, 122.780411)" stroke="#FFFFFF">
                    <path d="M161.735268,4.23380727 L255.646069,4.23380727" id="Path-42" stroke-width="2"></path>
                    <path d="M152.344188,11.9075829 L202.429948,11.9075829" id="Path-42-Copy" stroke-width="2"></path>
                    <path d="M140.866201,21.3895471 L279.645496,21.3895471" id="Path-42-Copy-2" stroke-width="2"></path>
                    <path d="M199.299588,41.4927813 L307.818736,41.4927813" id="Path-42-Copy-3" stroke-width="2"></path>
                    <path d="M155.474548,32.9063926 L263.993696,32.9063926" id="Path-42-Copy-5" stroke-width="2"></path>
                    <path d="M122.084041,55.1338808 L230.603189,55.1338808" id="Path-42-Copy-4" stroke-width="2"></path>
                    <path d="M176.270479,1.71858694 C166.406115,10.5256223 160.533138,17.2677673 158.651549,21.9450218 C155.829166,28.9609037 149.21736,49.7047187 149.21736,53.2291532 C149.21736,55.5787763 152.36209,64.4975056 158.651549,79.9853411" id="Path-43" stroke-width="3"></path>
                    <path d="M189.468416,1.33315616 L179.428331,21.3651395" id="Path-44" stroke-width="3"></path>
                    <path d="M202.370252,11.7918724 L199.072051,41.4665698" id="Path-46" stroke-width="3"></path>
                    <path d="M230.176462,57.1615889 L230.176462,32.6919431" id="Path-47" stroke-width="3"></path>
                    <path d="M263.415777,32.6464721 L243.981341,4.57192543" id="Path-48" stroke-width="3"></path>
                    <path d="M226.395844,5.70953369 L230.064496,20.4029083" id="Path-49" stroke-width="3"></path>
                    <path d="M252.010373,33.9685574 L261.385062,58.7440758" id="Path-50" stroke-width="3"></path>
                    <polyline id="Path-40" points="3.13036003 44.5078123 82.4442744 2.84217094e-14 248.353356 2.84217094e-14 312.95438 44.5078123"></polyline>
                    <path d="M93.1955864,0.444074188 L4.01767386,56.9083831" id="Path-53" stroke-width="3"></path>
                    <path d="M104.334504,0.433798341 L39.1295003,52.3933649" id="Path-54" stroke-width="3"></path>
                    <path d="M116.345048,0.529225908 L91.3021675,22.7567141" id="Path-55" stroke-width="3"></path>
                    <path d="M2.91347817,152.645509 L128.972685,0.333975832" id="Path-56" stroke-width="3"></path>
                    <path d="M114.258141,42.8672986 L2.58535891,199.618201" id="Path-57" stroke-width="3"></path>
                    <path d="M72.2189852,6.93164518 L121.763255,6.93164518" id="Path-58" stroke-width="2"></path>
                    <path d="M71.7376459,12.4253609 L131.916287,14.8922739" id="Path-59" stroke-width="2"></path>
                    <path d="M46.1975273,20.4268139 L91.277831,23.1784255" id="Path-60" stroke-width="2"></path>
                    <path d="M113.585953,43.4383686 L77.2155474,41.2796209" id="Path-61" stroke-width="2"></path>
                    <path d="M77.6042233,42.1393694 L2.97771369,113.030778" id="Path-62" stroke-width="3"></path>
                    <path d="M65.8297498,52.0005404 L38.3847043,52.0005404" id="Path-63" stroke-width="3"></path>
                    <path d="M49.1678058,69.4666746 L2.62958144,64.9657804" id="Path-64" stroke-width="3"></path>
                    <path d="M22.6227202,34.0787153 L59.147958,37.0225393" id="Path-65" stroke-width="3"></path>
                    <path d="M54.2595738,27.5197472 L94.4249479,30.4189105" id="Path-66"></path>
                    <path d="M0.521726671,52.3933649 L42.2598604,52.3933649" id="Path-66-Copy"></path>
                    <path d="M65.2158339,54.2456556 L104.867061,58.2096592" id="Path-66-Copy-2"></path>
                    <path d="M62.0854739,80.706951 L106.953968,86.2638231" id="Path-66-Copy-4"></path>
                    <path d="M26.6080602,90.2330174 L73.5634607,96.8483412" id="Path-66-Copy-5"></path>
                    <path d="M65.2158339,112.725118 L142.431381,130.718799" id="Path-66-Copy-7" stroke-width="3"></path>
                    <path d="M17.2169802,133.629542 L125.736128,163.530806" id="Path-66-Copy-8" stroke-width="3"></path>
                    <path d="M22.4342469,174.115324 L111.127781,199.518167" id="Path-66-Copy-10" stroke-width="3"></path>
                    <path d="M3.6520867,116.694313 L80.8676341,132.835703" id="Path-66-Copy-9"></path>
                    <path d="M2.60863336,74.3562401 L38.086047,80.971564" id="Path-66-Copy-6"></path>
                    <path d="M66.2592873,47.7890995 L109.040874,50.2764613" id="Path-66-Copy-3"></path>
                    <path d="M111.094953,82.1193091 L28.129015,228.006532" id="Path-67" stroke-width="3"></path>
                    <path d="M113.853891,125.955766 L79.302454,190.02731" id="Path-68" stroke-width="3"></path>
                    <path d="M119.071158,89.9684044 L84.5197207,154.039948" id="Path-68-Copy" stroke-width="3"></path>
                    <path d="M297.031433,68.6725234 L315.839945,94.0082547" id="Path-69" stroke-width="3"></path>
                    <path d="M265.6881,70.147575 L315.644636,186.816746" id="Path-70" stroke-width="3"></path>
                    <path d="M228.516282,71.9747235 L276.57606,225.622113" id="Path-71" stroke-width="3"></path>
                    <path d="M200.343042,81.5007899 L225.907649,223.862559" id="Path-71-Copy" stroke-width="3"></path>
                    <path d="M172.169802,94.2022117 L188.343328,167.764613" id="Path-71-Copy-2" stroke-width="3"></path>
                    <polyline id="Path-72" stroke-width="3" points="160.929035 117.382346 203.116961 102.178359 236.969268 98.5098371"></polyline>
                    <path d="M208.521677,125.608497 L283.190639,113.250163" id="Path-74" stroke-width="3"></path>
                    <path d="M232.415946,78.7533166 L267.855511,74.8860828" id="Path-75" stroke-width="3"></path>
                    <path d="M263.560872,88.3933777 L313.235535,78.0017791" id="Path-76" stroke-width="3"></path>
                    <path d="M183.858894,144.188034 L247.241242,133.605366" id="Path-77" stroke-width="3"></path>
                    <path d="M177.66306,172.242038 L246.620905,159.896442" id="Path-78" stroke-width="3"></path>
                    <path d="M284.341036,149.770932 L316.148858,140.147564" id="Path-79" stroke-width="3"></path>
                    <path d="M207.007251,191.14257 L280.422983,174.397295" id="Path-80" stroke-width="3"></path>
                    <path d="" id="Path-73" stroke-width="3"></path>
                    <path d="M263.628682,90.2123533 L284.903472,149.983789" id="Path-81" stroke-width="3"></path>
                    <path d="M278.808098,175.095333 L260.655084,117.853649" id="Path-82" stroke-width="3"></path>
                    <path d="M250.644304,181.640078 L239.666603,137.541385" id="Path-83" stroke-width="3"></path>
                    <path d="M206.082035,189.992101 L211.53797,226.566737" id="Path-84" stroke-width="3"></path>
                </g>
                <path d="M134.784377,212.90956 C169.4704,195.763563 196.304809,185.852999 215.287606,183.177869 C234.349888,180.491537 267.943238,179.48151 316.067655,180.147786 L316.067655,189.690854 C269.008517,189.41931 237.501452,190.695676 221.54646,193.519953 C205.642978,196.335112 181.553046,208.083766 149.276664,228.765916 C160.902128,241.333721 172.894482,254.69817 176.188793,263.913444 C176.188793,276.630713 169.898965,305.648704 157.319307,350.967419 L95.6588153,350.967419 C122.502141,303.025868 140.704654,269.714221 150.266353,251.032478 C144.059044,240.143755 114.78273,215.639791 109.366241,199.37864 C103.949752,183.117489 113.680183,164.878613 119.511569,154.472833 C123.39916,147.535646 136.001739,136.504314 157.319307,121.378837 L168.665911,121.378837 C148.402274,136.03575 135.910434,147.067082 131.19039,154.472833 C118.583258,174.253429 122.613056,193.881378 124.923481,199.37864 C126.322602,202.707611 129.995692,207.428587 134.784377,212.90956 Z" id="Combined-Shape" fill="#FFFFFF" opacity="0.370089286"></path>
                <g id="map_btn_download" transform="translate(225.385922, 311.184834)">
                    <g id="Oval-5">
                        <use fill="black" fill-opacity="1" filter="url(#filter-4)" xlink:href="#path-3"></use>
                        <use fill="#FFBABA" fill-rule="evenodd" xlink:href="#path-3"></use>
                    </g>
                    <text id="" font-family="FontAwesome5FreeSolid, Font Awesome 5 Free" font-size="24" font-weight="700" fill="#FFFFFF">
                        <tspan x="21.9125202" y="42.8704581"></tspan>
                    </text>
                </g>
                <g id="map_block" opacity="0.5" transform="translate(27.129787, 135.481833)" fill="#FFFFFF">
                    <polygon id="Path-51" points="201.386495 0 238.906501 0 248.820692 6.79021618 202.634494 6.79021618"></polygon>
                    <polygon id="Path-51-Copy" points="123.127494 33.8704581 162.18464 33.8704581 162.18464 40.6606743 124.375494 40.6606743"></polygon>
                    <polygon id="Path-51-Copy-2" points="39.2700028 42.3380727 52.4746227 44.6332772 22.015648 82.2221845 0 78.6094332"></polygon>
                    <polygon id="Path-51-Copy-3" points="46.3123654 137.598736 68.3373536 143.660872 52.746404 176.546533 26.0863336 171.574892"></polygon>
                    <polygon id="Path-51-Copy-4" points="179.473975 90.5957378 209.572407 87.8515008 215.155965 106.24567 182.379798 111.452977"></polygon>
                    <polygon id="Path-51-Copy-5" points="218.081749 107.802195 232.721215 104.78673 249.15994 160.140032 234.378586 163.943026"></polygon>
                    <path d="M247.298442,72.873285 L277.385839,69.1017353 L288.338668,82.3041542 C289.523943,111.038791 289.523943,125.905279 288.338668,126.903618 C287.153392,127.901957 281.561154,129.25109 271.561955,130.951017 L247.298442,72.873285 Z" id="Path-51-Copy-6"></path>
                    <polygon id="Path-52" points="162.389342 40.7775279 163.559231 21.0454413 171.196174 21.0454413 171.196174 40.7775279"></polygon>
                </g>
                <g id="map_path" transform="translate(2.086907, 148.183254)">
                    <path d="M0.794661773,175.17538 C50.515494,98.2589777 77.5060806,59.8007765 81.7664214,59.8007765 C88.1569327,59.8007765 102.268522,59.8007765 109.363822,59.8007765 C116.459123,59.8007765 113.289151,27.5299985 122.552548,27.5299985 C128.728146,27.5299985 145.372341,27.5299985 172.485133,27.5299985" stroke="#ACF2FF" stroke-width="6"></path>
                    <text id="map_mark" font-family="FontAwesome5FreeSolid, Font Awesome 5 Free" font-size="24" font-weight="700" fill="#ACF2FF">
                        <tspan x="161.735268" y="21.7014218"></tspan>
                    </text>
                </g>
            </g>
        </g>
    </g>
</svg>