<?xml version="1.0" encoding="UTF-8"?>
<svg width="130px" height="130px" viewBox="0 0 130 130" version="1.1" xmlns="http://www.w3.org/2000/svg" xmlns:xlink="http://www.w3.org/1999/xlink">
    <!-- Generator: Sketch 51.3 (57544) - http://www.bohemiancoding.com/sketch -->
    <title>superbilHead</title>
    <desc>Created with Sketch.</desc>
    <defs>
        <circle id="path-1" cx="55" cy="55" r="55"></circle>
        <filter x="-14.5%" y="-12.7%" width="129.1%" height="129.1%" filterUnits="objectBoundingBox" id="filter-2">
            <feOffset dx="0" dy="2" in="SourceAlpha" result="shadowOffsetOuter1"></feOffset>
            <feGaussianBlur stdDeviation="5" in="shadowOffsetOuter1" result="shadowBlurOuter1"></feGaussianBlur>
            <feColorMatrix values="0 0 0 0 0   0 0 0 0 0   0 0 0 0 0  0 0 0 0.25 0" type="matrix" in="shadowBlurOuter1"></feColorMatrix>
        </filter>
    </defs>
    <g id="Page-1" stroke="none" stroke-width="1" fill="none" fill-rule="evenodd">
        <g id="Superbil-LandingPage" transform="translate(-232.000000, -3714.000000)">
            <g id="footer" transform="translate(0.000000, 3594.000000)">
                <g id="內容" transform="translate(242.000000, 128.000000)">
                    <g id="superbilHead">
                        <g id="Oval">
                            <use fill="black" fill-opacity="1" filter="url(#filter-2)" xlink:href="#path-1"></use>
                            <use fill="#FFFFFF" fill-rule="evenodd" xlink:href="#path-1"></use>
                        </g>
                        <g id="大頭描繪" transform="translate(20.263158, 11.578947)" fill="#11455C">
                            <g fill-rule="nonzero" id="Shape">
                                <path d="M64.1697364,45.7661663 C64.1697364,45.7661663 66.9944355,43.0403695 69.0609903,44.5410891 C69.0609903,44.5410891 70.2838037,46.7309146 70.2838037,47.6037821 C70.5126265,49.6759458 70.2175751,51.785827 69.4400624,53.6372874 C68.9733242,54.7753424 68.6279823,55.9852469 68.4128991,57.2359517 C68.4128991,57.2359517 67.043348,61.7227969 66.3830288,62.2587682 C65.3981998,63.3674848 63.9615843,63.5762534 62.8001853,62.779426 C62.8001853,62.779426 62.4944819,61.5543488 63.4360483,62.4119029 C64.1796267,62.7258665 64.9951679,62.623458 65.6741659,62.1308596 C66.3531638,61.6382613 66.8297972,60.8032248 66.9822074,59.8392407 C66.9822074,59.8392407 69.1710435,52.8409872 69.4278343,52.473464 C69.4278343,52.473464 70.6506478,48.4307093 69.4278343,46.7156012 C69.1549577,46.1358892 68.6403075,45.8042069 68.1050127,45.8630675 C67.5697178,45.9219281 67.1090979,46.3608505 66.9210667,46.9912435 L64.4754398,50.0539365 L64.1697364,45.7661663 Z"></path>
                                <path d="M64.7260084,58.5948167 C64.7260084,58.5948167 64.4044661,59.6656115 65.1241085,59.3762075 C65.1241085,59.3762075 66.211228,59.4774989 66.9155589,57.3503795 C67.3229592,56.2754278 67.8355641,55.2387303 68.4467131,54.2537567 C68.4467131,54.2537567 68.5998285,52.9514387 67.7576937,54.2537567 C67.2767739,54.9928743 66.8814977,55.7787984 66.578705,56.5979291 C66.578705,56.5979291 65.675324,58.7684591 64.7260084,58.5948167 Z"></path>
                                <path d="M3.93602767,45.8614841 C3.49213215,48.0572822 4.1806484,50.3525676 5.70480011,51.7579862 L5.70480011,45.4750628 C5.70480011,45.4750628 5.16056244,45.1458892 5.27188378,46.7917575 L5.38320512,50.4269797 C4.18898981,49.1707907 3.75185455,47.2150382 4.2699917,45.446439 C5.04924109,42.1690143 3.93602767,45.8614841 3.93602767,45.8614841 Z"></path>
                                <path d="M3.92695383,42.2756546 C3.92695383,42.2756546 3.48800613,44.4703626 4.2634804,44.6440446 C4.2634804,44.6440446 6.09242915,44.4545734 6.03390279,46.0966571 C6.03390279,46.0966571 6.37042936,50.5334409 9.98443208,51.3229042 C9.98443208,51.3229042 19.2023338,52.3018387 22.6846522,51.3229042 C24.5264715,50.4055595 25.9164399,48.6814847 26.5034972,46.5861243 C26.5034972,46.5861243 26.9717081,42.7651219 26.0499179,41.8493444 C26.0499179,41.8493444 25.1281277,40.0809466 14.3446459,40.2704178 C14.3446459,40.2704178 6.83864024,40.2704178 6.311903,41.6125054 C6.311903,41.6125054 5.22916534,42.6388077 4.58537538,42.5124936 L4.14642768,43.5545852 L7.23369317,46.3492853 C7.23369317,46.3492853 5.97537643,42.2124975 8.41885195,41.2967201 C8.41885195,41.2967201 19.0852811,40.5704138 22.5675995,41.2967201 C22.5675995,41.2967201 25.8011809,41.7230303 25.4061279,43.9651061 C25.4061279,43.9651061 25.8450756,48.9229357 22.9626524,50.3913375 C22.9626524,50.3913375 17.9586486,52.8228845 9.86737936,50.7071228 C8.49681783,50.017892 7.55148003,48.6159527 7.36537748,46.9966452 L6.8971666,43.9651061 L5.19990216,42.7019648 L4.68779651,42.3230224 L3.92695383,42.2756546 Z"></path>
                                <path d="M24.9860145,44.5623808 L25.2358091,47.6220353 C25.2358091,47.6220353 26.9843714,45.5735113 28.5247715,45.5997744 C30.1795783,45.5514101 31.6934408,46.4767793 32.3272006,47.9240613 L32.049651,44.3916705 C32.049651,44.3916705 25.5827461,44.6936965 24.9860145,44.2340917 C24.3892829,43.774487 24.9860145,44.5623808 24.9860145,44.5623808 Z"></path>
                                <path d="M32.3272006,43.3897179 L34.6062075,41.7318128 L34.7046831,41.6564535 C35.8817359,41.0581809 37.1591557,40.7198803 38.4608242,40.6617104 C38.4608242,40.6617104 50.4889162,39.6217518 53.9355624,40.8727165 C54.4064859,41.0684864 54.819531,41.3964726 55.1313377,41.822244 C55.1313377,41.822244 55.4267645,47.4139058 53.4009806,49.6746854 C53.4009806,49.6746854 52.1630015,51.8299621 45.9590382,51.6792434 C45.9590382,51.6792434 39.0938816,52.2218306 36.4772441,50.4584224 C34.7535698,49.2070715 33.5487023,47.2897007 33.1150055,45.1079105 L34.6765472,42.4401904 C34.6765472,42.4401904 33.6917912,46.6301688 36.0833416,48.5744393 C36.0833416,48.5744393 37.2650489,50.9557939 42.765615,51.0914407 C42.765615,51.0914407 50.2356932,51.0914407 51.3611287,50.2624882 C51.3611287,50.2624882 53.7386112,49.7048292 53.9074265,44.3995328 C53.9074265,44.3995328 54.6248917,41.3851599 52.03639,41.159082 C47.3665219,40.4789287 42.6303601,40.5093736 37.9684461,41.2495131 C37.9684461,41.2495131 34.6343434,41.6715254 34.479596,43.5555084 C34.3248486,45.4394915 32.3272006,43.3897179 32.3272006,43.3897179 Z"></path>
                                <path d="M55.4495547,41.0136739 L55.146401,44.0901364 C56.0124514,43.1696081 57.2392188,42.5413477 58.6051084,42.3188398 C58.6051084,42.3188398 61.8846794,41.8876689 62.2567316,41.3632719 L62.7528012,40.7689553 L61.5401867,40.2562115 C60.1475014,40.5886502 58.7141302,40.7841627 57.2684765,40.8388749 C56.6672488,40.9301818 56.0596781,40.9885696 55.4495547,41.0136739 Z"></path>
                                <path d="M19.897118,63.2597609 C19.897118,63.2597609 19.706958,64.0605174 19.497782,65.079662 C19.1040901,66.3669316 18.9504372,67.6903953 19.041398,69.0106483 C19.041398,69.0106483 19.802038,64.9049515 19.878102,64.8175963 C19.9219902,64.2989846 19.9283386,63.7789101 19.897118,63.2597609 Z"></path>
                                <path d="M45.6384009,63.2597609 C45.6384009,63.2597609 47.738732,68.5116559 47.5246855,69.0106483 C47.5246855,68.9856987 47.444418,65.093558 45.6384009,63.2597609 Z"></path>
                                <path d="M22.011687,55.5919111 C22.011687,55.5919111 19.6449875,58.6939324 22.4582341,58.5992142 C22.4582341,58.5992142 24.9886676,58.871529 25.7180278,59.6884736 C25.7180278,59.6884736 29.9006855,62.2103458 32.4608888,60.1620646 C33.7733575,59.154471 35.5510148,58.6231545 37.3729067,58.6939324 C37.3729067,58.6939324 41.45137,57.5099548 38.6381234,56.1128613 L38.1022669,55.6274305 C38.1022669,55.6274305 39.6949515,56.4917341 39.7544911,56.5390932 C39.8140307,56.5864523 40.6327004,57.7941094 38.1915763,58.7412915 C37.5760832,58.9616541 36.897848,59.0474809 36.2267692,58.9899268 C34.4482066,59.3569251 32.8117064,60.0687966 31.4636003,61.0618876 C30.1426961,61.4976312 28.6427591,61.4233367 27.4000218,60.8606114 C27.4000218,60.8606114 24.4974658,59.2740814 23.8276452,59.0136064 C23.3513283,58.8833688 21.5651399,59.0136064 21.1632476,58.3150596 C21.1334778,58.3268994 20.2552685,57.7349106 22.011687,55.5919111 Z"></path>
                                <path d="M38.0338763,36.1912592 C38.0338763,36.1912592 38.807162,34.507892 44.1199207,34.5643177 C47.38836,34.3728446 50.6811648,34.6487653 53.771671,35.3730863 C53.771671,35.3730863 56.8648136,36.5674306 53.771671,36.4075578 C53.771671,36.3887492 37.8333949,36.4357706 38.0338763,36.1912592 Z"></path>
                                <path d="M17.9644901,34.5053242 C17.9644901,34.5053242 22.6011827,34.5053242 23.8221784,35.4558441 C23.8221784,35.4558441 25.9241456,36.708294 23.6985332,36.3616337 C21.7082259,36.2412635 19.7075071,36.2412635 17.7171998,36.3616337 C17.7171998,36.3616337 12.400459,36.5070074 12.2613583,35.9814257 C12.1222575,35.4558441 10.0202902,35.5005745 12.9877734,35.1539142 L17.9644901,34.5053242 Z"></path>
                                <path d="M7.13662092,43.6677549 C7.13662092,43.6677549 8.66902418,32.7508161 8.27497763,28.8986963 C12.6595561,22.6451191 18.7935566,18.0457982 25.7881578,15.7671786 C25.7881578,15.7671786 33.7128718,20.6174185 36.763084,22.4265112 L31.5383186,17.7478232 C31.5383186,17.7478232 39.6235701,22.7852107 41.8856892,24.2200083 L36.763084,19.011069 C40.4419953,21.8459425 44.272182,24.4496156 48.2342171,26.8088824 L42.980263,21.4127955 L54.8600369,28.789527 L50.6568736,24.4695383 C53.4991204,25.3887669 56.254818,26.5896462 58.8880683,28.0565325 C58.8880683,28.0565325 57.9394377,32.3765211 60.0993966,34.7158651 C60.0993966,34.7158651 61.8799033,44.0732412 61.6755828,46.0070989 L66.0538779,43.7301374 L70.3592013,32.2049692 C70.3592013,32.2049692 67.5716868,12.0554195 52.8460212,5.58323437 C52.8460212,5.58323437 43.5932243,3.41544226 41.9148779,1.9806446 C39.616613,1.49521731 37.2516536,1.49521731 34.9533888,1.9806446 C31.8542531,1.64482245 28.7939268,0.981360246 25.8173464,0 C25.8173464,0 14.2878362,2.80721281 15.5137588,6.23825069 C13.9298746,7.12306679 12.2971711,7.90428587 10.6246626,8.5775947 C10.6246626,8.5775947 5.28314268,15.0497798 4.90369045,15.9543262 C4.90369045,15.9543262 0.189726119,21.350413 0,25.4832541 C0,25.4832541 2.37887364,37.3983129 4.14478597,38.7239412 L5.53124607,44.1356237 L7.13662092,43.6677549 Z"></path>
                                <path d="M38.0320007,46.0070989 C38.2285913,45.8034793 38.4688669,45.6164406 38.7465895,45.4508385 C40.1122479,44.5972665 43.7804701,43.2066155 51.8632628,44.865806 L53.244801,45.623471 L51.656826,45.623471 C51.656826,45.623471 45.0826096,43.0723458 39.9375707,45.2973873 L39.2547415,45.5659268 L38.0320007,46.0070989 Z"></path>
                                <path d="M41.8540601,44.3183462 C41.8540601,44.3183462 41.6486824,45.5735002 42.5934199,46.0070989 L46.9885032,46.0070989 C47.5065604,45.5587725 47.6761824,44.9049858 47.4266424,44.3183462 C47.4266424,44.3183462 42.7303384,43.8048741 41.8540601,44.3183462 Z"></path>
                                <path d="M28.5240005,74.7615357 C28.5240005,74.7615357 38.0719108,77.7464253 41.8352008,74.7615357 C41.8352008,74.7615357 35.1796007,79.0747012 28.5240005,74.7615357 Z"></path>
                                <path d="M28.5240005,67.3620606 C28.5240005,67.3620606 33.3117854,67.7454531 33.7365083,67.5920961 C33.7365083,67.5920961 35.4353997,67.1511947 36.1304007,67.0936859 C36.1304007,67.0936859 28.5754821,67.6879442 28.5240005,67.3620606 Z"></path>
                                <path d="M6.04113184,51.0462922 C6.04113184,51.0462922 3.42738889,66.3693505 12.7726151,72.0154678 C12.7726151,72.0154678 20.0735731,79.4250704 21.3731436,81.9295161 C21.3731436,81.9295161 25.0966322,85.4416678 28.4404709,85.604679 C28.4404709,85.604679 38.7786274,87.0865996 40.3556343,85.604679 C40.3556343,85.604679 52.8548744,77.3207433 57.2062453,72.5785976 C57.5552506,72.2221458 57.8728378,71.83537 58.1553699,71.4226996 C58.1553699,71.4226996 61.7620431,59.1079399 61.9080623,54.6621783 C62.4725495,52.5165537 62.7476267,50.3031296 62.7257695,48.0824512 C62.9301964,43.2217518 61.9080623,48.4232929 61.9080623,48.4232929 C61.9080623,48.4232929 59.863794,66.7101923 57.1040319,70.9929426 C57.1040319,70.9929426 43.4074347,84.5969731 37.2016205,85.2638373 C37.2016205,85.2638373 27.0532889,87.2347916 21.3439398,80.6550645 C21.3439398,80.6550645 14.1597971,72.1340214 12.9770419,71.4226996 C12.9770419,71.4226996 5.29643413,62.5311764 6.8296353,51.4464108 L6.04113184,51.0462922 Z"></path>
                                <path d="M24.7208005,46.0070989 C24.5596278,45.8040092 24.3566265,45.6152063 24.1170527,45.4455783 C22.9095572,44.5942406 19.7183192,43.2085528 12.6170957,44.8659441 L11.4096002,45.6176572 L12.8470948,45.6176572 C12.8470948,45.6176572 18.5970734,43.0636442 23.0820566,45.291613 L23.6714294,45.5633165 L24.7208005,46.0070989 Z"></path>
                                <path d="M20.8968011,44.3152388 C20.8968011,44.3152388 21.1097857,45.5760517 20.1726537,46.0070989 L15.7709732,46.0070989 C15.2418486,45.5413498 15.0746429,44.8986667 15.3308051,44.3152388 C15.3308051,44.3152388 20.030664,43.8087584 20.8968011,44.3152388 Z"></path>
                                <path d="M19.0160004,67.0936859 C19.0160004,67.0936859 30.8938624,78.8529514 43.7368008,67.4386643 C43.6774115,67.4986606 31.190809,79.7978923 19.0160004,67.0936859 Z"></path>
                                <path d="M19.0160004,67.0936859 C19.0160004,67.0936859 30.3891972,69.9307903 48.5832465,67.2087036 L49.4416009,67.496248 C49.4416009,67.496248 27.6608561,70.5442183 19.0160004,67.0936859 Z"></path>
                            </g>
                            <path d="M64.1572643,46.0732404 C64.1572643,46.0732404 67.0238891,43.3291545 69.1211167,44.8399433 C69.1211167,44.8399433 70.3620798,47.0444618 70.3620798,47.9231859 C70.5942988,50.009253 70.2948682,52.1332908 69.5058153,53.9971737 C69.0321494,55.1428647 68.6816818,56.3608871 68.4634063,57.6199837 C68.4634063,57.6199837 67.0735276,62.1369341 66.4034075,62.6765015 C65.4039612,63.7926572 63.9460228,64.0028265 62.7673857,63.2006527 C62.7673857,63.2006527 62.4571449,61.9673557 63.4126865,62.8306636 C64.1673015,63.1467339 64.9949474,63.0436382 65.6840233,62.5477347 C66.3730992,62.0518312 66.8568072,61.211192 67.0114794,60.2407399 C67.0114794,60.2407399 69.2328034,53.1955307 69.4934056,52.8255415 C69.4934056,52.8255415 70.7343687,48.7556614 69.4934056,47.0290456 C69.2164788,46.4454439 68.69419,46.1115361 68.15095,46.1707917 C67.60771,46.2300473 67.1402533,46.6719146 66.9494313,47.3065374 L64.4675051,50.3897799 L64.1572643,46.0732404 Z" id="Shape" fill-rule="nonzero"></path>
                            <path d="M64.1572643,46.0732404 C64.1572643,46.0732404 67.0238891,43.3291545 69.1211167,44.8399433 C69.1211167,44.8399433 70.3620798,47.0444618 70.3620798,47.9231859 C70.5942988,50.009253 70.2948682,52.1332908 69.5058153,53.9971737 C69.0321494,55.1428647 68.6816818,56.3608871 68.4634063,57.6199837 C68.4634063,57.6199837 67.0735276,62.1369341 66.4034075,62.6765015 C65.4039612,63.7926572 63.9460228,64.0028265 62.7673857,63.2006527 C62.7673857,63.2006527 62.4571449,61.9673557 63.4126865,62.8306636 C64.1673015,63.1467339 64.9949474,63.0436382 65.6840233,62.5477347 C66.3730992,62.0518312 66.8568072,61.211192 67.0114794,60.2407399 C67.0114794,60.2407399 69.2328034,53.1955307 69.4934056,52.8255415 C69.4934056,52.8255415 70.7343687,48.7556614 69.4934056,47.0290456 C69.2164788,46.4454439 68.69419,46.1115361 68.15095,46.1707917 C67.60771,46.2300473 67.1402533,46.6719146 66.9494313,47.3065374 L64.4675051,50.3897799 L64.1572643,46.0732404 Z" id="Path"></path>
                            <path d="M64.7217929,58.9879662 C64.7217929,58.9879662 64.395478,60.0659457 65.1258017,59.7745999 C65.1258017,59.7745999 66.2290568,59.8765709 66.9438418,57.7351793 C67.3572889,56.6530151 67.8775021,55.6093617 68.4977221,54.6177793 C68.4977221,54.6177793 68.6531101,53.3067232 67.798476,54.6177793 C67.3104181,55.3618561 66.909275,56.1530535 66.6019881,56.9776803 C66.6019881,56.9776803 65.6851987,59.1627737 64.7217929,58.9879662 Z" id="Shape" fill-rule="nonzero"></path>
                            <path d="M64.7217929,58.9879662 C64.7217929,58.9879662 64.395478,60.0659457 65.1258017,59.7745999 C65.1258017,59.7745999 66.2290568,59.8765709 66.9438418,57.7351793 C67.3572889,56.6530151 67.8775021,55.6093617 68.4977221,54.6177793 C68.4977221,54.6177793 68.6531101,53.3067232 67.798476,54.6177793 C67.3104181,55.3618561 66.909275,56.1530535 66.6019881,56.9776803 C66.6019881,56.9776803 65.6851987,59.1627737 64.7217929,58.9879662 Z" id="Path"></path>
                            <path d="M3.99444822,46.1691977 C3.54396417,48.3797288 4.24269973,50.6904147 5.78947368,52.1052632 L5.78947368,45.7801837 C5.78947368,45.7801837 5.23715816,45.4488014 5.35013179,47.1057129 L5.46310542,50.765326 C4.25116495,49.5007085 3.8075415,47.5318336 4.33336911,45.7513678 C5.12418453,42.4519528 3.99444822,46.1691977 3.99444822,46.1691977 Z" id="Shape" fill-rule="nonzero"></path>
                            <path d="M3.99444822,46.1691977 C3.54396417,48.3797288 4.24269973,50.6904147 5.78947368,52.1052632 L5.78947368,45.7801837 C5.78947368,45.7801837 5.23715816,45.4488014 5.35013179,47.1057129 L5.46310542,50.765326 C4.25116495,49.5007085 3.8075415,47.5318336 4.33336911,45.7513678 C5.12418453,42.4519528 3.99444822,46.1691977 3.99444822,46.1691977 Z" id="Path"></path>
                            <path d="M3.98000676,42.5593086 C3.98000676,42.5593086 3.55310492,44.7687423 4.30729816,44.9435896 C4.30729816,44.9435896 6.08605582,44.7528471 6.02913558,46.4059486 C6.02913558,46.4059486 6.35642698,50.8725016 9.87125211,51.6672619 C9.87125211,51.6672619 18.8361907,52.6527647 22.2229453,51.6672619 C24.0142203,50.7437622 25.3660444,49.0081194 25.9369913,46.8987 C25.9369913,46.8987 26.3923532,43.05206 25.4958594,42.130138 C25.4958594,42.130138 24.5993655,40.3498749 14.1118104,40.5406174 C14.1118104,40.5406174 6.81178894,40.5406174 6.29950674,41.8917099 C6.29950674,41.8917099 5.24648221,42.9248983 4.62035951,42.7977367 L4.19345767,43.8468203 L7.1960006,46.6602719 C7.1960006,46.6602719 5.97221533,42.4957278 8.34863556,41.5738058 C8.34863556,41.5738058 18.7223502,40.8426263 22.1091048,41.5738058 C22.1091048,41.5738058 25.2539483,42.0029764 24.8697367,44.2600957 C24.8697367,44.2600957 25.2966385,49.2511905 22.4933164,50.7294447 C22.4933164,50.7294447 17.6266355,53.1773065 9.75741162,51.0473489 C8.42446185,50.3534935 7.50506657,48.9421477 7.32407115,47.3119753 L6.86870919,44.2600957 L5.21802208,42.9884792 L4.71996994,42.6069942 L3.98000676,42.5593086 Z" id="Shape" fill-rule="nonzero"></path>
                            <path d="M3.98000676,42.5593086 C3.98000676,42.5593086 3.55310492,44.7687423 4.30729816,44.9435896 C4.30729816,44.9435896 6.08605582,44.7528471 6.02913558,46.4059486 C6.02913558,46.4059486 6.35642698,50.8725016 9.87125211,51.6672619 C9.87125211,51.6672619 18.8361907,52.6527647 22.2229453,51.6672619 C24.0142203,50.7437622 25.3660444,49.0081194 25.9369913,46.8987 C25.9369913,46.8987 26.3923532,43.05206 25.4958594,42.130138 C25.4958594,42.130138 24.5993655,40.3498749 14.1118104,40.5406174 C14.1118104,40.5406174 6.81178894,40.5406174 6.29950674,41.8917099 C6.29950674,41.8917099 5.24648221,42.9248983 4.62035951,42.7977367 L4.19345767,43.8468203 L7.1960006,46.6602719 C7.1960006,46.6602719 5.97221533,42.4957278 8.34863556,41.5738058 C8.34863556,41.5738058 18.7223502,40.8426263 22.1091048,41.5738058 C22.1091048,41.5738058 25.2539483,42.0029764 24.8697367,44.2600957 C24.8697367,44.2600957 25.2966385,49.2511905 22.4933164,50.7294447 C22.4933164,50.7294447 17.6266355,53.1773065 9.75741162,51.0473489 C8.42446185,50.3534935 7.50506657,48.9421477 7.32407115,47.3119753 L6.86870919,44.2600957 L5.21802208,42.9884792 L4.71996994,42.6069942 L3.98000676,42.5593086 Z" id="Path"></path>
                            <path d="M24.3919575,44.8613779 L24.6454597,47.9415616 C24.6454597,47.9415616 26.419975,45.8792927 27.9832386,45.905732 C29.6626069,45.8570432 31.1989388,46.7886212 31.8421053,48.245614 L31.5604362,44.6895222 C31.5604362,44.6895222 24.9975461,44.9935746 24.3919575,44.5308861 C23.7863689,44.0681976 24.3919575,44.8613779 24.3919575,44.8613779 Z" id="Shape" fill-rule="nonzero"></path>
                            <path d="M24.3919575,44.8613779 L24.6454597,47.9415616 C24.6454597,47.9415616 26.419975,45.8792927 27.9832386,45.905732 C29.6626069,45.8570432 31.1989388,46.7886212 31.8421053,48.245614 L31.5604362,44.6895222 C31.5604362,44.6895222 24.9975461,44.9935746 24.3919575,44.5308861 C23.7863689,44.0681976 24.3919575,44.8613779 24.3919575,44.8613779 Z" id="Path"></path>
                            <path d="M31.8421053,43.6808469 L34.0585703,42.0118178 L34.1543435,41.9359529 C35.2990949,41.3336661 36.541459,40.9930956 37.8074063,40.9345355 C37.8074063,40.9345355 49.5054163,39.8875991 52.8574777,41.1469573 C53.3154777,41.3440407 53.7171879,41.6742276 54.0204377,42.1028558 C54.0204377,42.1028558 54.3077573,47.7320355 52.3375661,50.0079842 C52.3375661,50.0079842 51.1335604,52.1777219 45.09985,52.025992 C45.09985,52.025992 38.423091,52.5722197 35.8782608,50.7969797 C34.2018886,49.5372327 33.0300857,47.6069971 32.6082907,45.4105679 L34.1269797,42.7249484 C34.1269797,42.7249484 33.1692479,46.94304 35.495168,48.9003558 C35.495168,48.9003558 36.6444462,51.2976884 41.9940625,51.4342454 C41.9940625,51.4342454 49.2591424,51.4342454 50.353693,50.5997308 C50.353693,50.5997308 52.6659313,50.0383302 52.8301139,44.6974373 C52.8301139,44.6974373 53.5278899,41.662839 51.0104234,41.4352442 C46.4687086,40.7505273 41.8625193,40.7811765 37.3285404,41.5262821 C37.3285404,41.5262821 34.0859341,41.9511259 33.9354334,43.8477498 C33.7849327,45.7443737 31.8421053,43.6808469 31.8421053,43.6808469 Z" id="Shape" fill-rule="nonzero"></path>
                            <path d="M31.8421053,43.6808469 L34.0585703,42.0118178 L34.1543435,41.9359529 C35.2990949,41.3336661 36.541459,40.9930956 37.8074063,40.9345355 C37.8074063,40.9345355 49.5054163,39.8875991 52.8574777,41.1469573 C53.3154777,41.3440407 53.7171879,41.6742276 54.0204377,42.1028558 C54.0204377,42.1028558 54.3077573,47.7320355 52.3375661,50.0079842 C52.3375661,50.0079842 51.1335604,52.1777219 45.09985,52.025992 C45.09985,52.025992 38.423091,52.5722197 35.8782608,50.7969797 C34.2018886,49.5372327 33.0300857,47.6069971 32.6082907,45.4105679 L34.1269797,42.7249484 C34.1269797,42.7249484 33.1692479,46.94304 35.495168,48.9003558 C35.495168,48.9003558 36.6444462,51.2976884 41.9940625,51.4342454 C41.9940625,51.4342454 49.2591424,51.4342454 50.353693,50.5997308 C50.353693,50.5997308 52.6659313,50.0383302 52.8301139,44.6974373 C52.8301139,44.6974373 53.5278899,41.662839 51.0104234,41.4352442 C46.4687086,40.7505273 41.8625193,40.7811765 37.3285404,41.5262821 C37.3285404,41.5262821 34.0859341,41.9511259 33.9354334,43.8477498 C33.7849327,45.7443737 31.8421053,43.6808469 31.8421053,43.6808469 Z" id="Path"></path>
                            <path d="M56.2725655,41.2888604 L55.9649123,44.3859649 C56.843817,43.4592602 58.0887927,42.8267844 59.4749555,42.6027836 C59.4749555,42.6027836 62.8032037,42.1687197 63.180778,41.6408041 L63.6842105,41.0424999 L62.4535978,40.5263158 C61.0402416,40.860985 59.5855955,41.0578094 58.1184846,41.1128886 C57.5083332,41.2048082 56.8917447,41.2635877 56.2725655,41.2888604 Z" id="Shape" fill-rule="nonzero"></path>
                            <path d="M56.2725655,41.2888604 L55.9649123,44.3859649 C56.843817,43.4592602 58.0887927,42.8267844 59.4749555,42.6027836 C59.4749555,42.6027836 62.8032037,42.1687197 63.180778,41.6408041 L63.6842105,41.0424999 L62.4535978,40.5263158 C61.0402416,40.860985 59.5855955,41.0578094 58.1184846,41.1128886 C57.5083332,41.2048082 56.8917447,41.2635877 56.2725655,41.2888604 Z" id="Path"></path>
                            <path d="M20.2423069,63.6842105 C20.2423069,63.6842105 20.0385626,64.4903398 19.8144439,65.5163225 C19.3926282,66.8122291 19.2279989,68.1445728 19.3254576,69.4736842 C19.3254576,69.4736842 20.1404347,65.3404397 20.2219325,65.2524983 C20.2689559,64.7304069 20.2757577,64.206843 20.2423069,63.6842105 Z" id="Shape" fill-rule="nonzero"></path>
                            <path d="M20.1924413,63.6842105 C20.1924413,63.6842105 19.9994588,64.4903398 19.7871781,65.5163225 C19.3876429,66.8122291 19.2317093,68.1445728 19.3240202,69.4736842 C19.3240202,69.4736842 20.0959501,65.3404397 20.173143,65.2524983 C20.2176826,64.7304069 20.2241253,64.206843 20.1924413,63.6842105 Z" id="Path"></path>
                            <path d="M22.3383958,55.9649123 C22.3383958,55.9649123 19.9365685,59.087747 22.7915708,58.9923932 C22.7915708,58.9923932 25.3595622,59.2665352 26.099748,60.0889611 C26.099748,60.0889611 30.3444868,62.6277542 32.94269,60.5657298 C34.2746391,59.5513756 36.0786812,59.0164942 37.9276146,59.087747 C37.9276146,59.087747 42.0666126,57.8958253 39.2116103,56.4893578 L38.6678004,56.0006699 C38.6678004,56.0006699 40.2841244,56.8707727 40.3445477,56.9184496 C40.4049711,56.9661265 41.2357918,58.1818865 38.7584353,59.1354238 C38.1338067,59.357265 37.4455048,59.4436677 36.7644655,59.3857274 C34.9595046,59.7551881 33.2987146,60.471836 31.9305992,61.4715902 C30.5900895,61.9102576 29.0678896,61.8354646 27.806707,61.2689636 C27.806707,61.2689636 24.8610698,59.6717886 24.1813073,59.4095658 C23.6979207,59.2784544 21.8852208,59.4095658 21.4773634,58.706332 C21.4471517,58.7182513 20.5559076,58.1222904 22.3383958,55.9649123 Z" id="Shape" fill-rule="nonzero"></path>
                            <path d="M22.3383958,55.9649123 C22.3383958,55.9649123 19.9365685,59.087747 22.7915708,58.9923932 C22.7915708,58.9923932 25.3595622,59.2665352 26.099748,60.0889611 C26.099748,60.0889611 30.3444868,62.6277542 32.94269,60.5657298 C34.2746391,59.5513756 36.0786812,59.0164942 37.9276146,59.087747 C37.9276146,59.087747 42.0666126,57.8958253 39.2116103,56.4893578 L38.6678004,56.0006699 C38.6678004,56.0006699 40.2841244,56.8707727 40.3445477,56.9184496 C40.4049711,56.9661265 41.2357918,58.1818865 38.7584353,59.1354238 C38.1338067,59.357265 37.4455048,59.4436677 36.7644655,59.3857274 C34.9595046,59.7551881 33.2987146,60.471836 31.9305992,61.4715902 C30.5900895,61.9102576 29.0678896,61.8354646 27.806707,61.2689636 C27.806707,61.2689636 24.8610698,59.6717886 24.1813073,59.4095658 C23.6979207,59.2784544 21.8852208,59.4095658 21.4773634,58.706332 C21.4471517,58.7182513 20.5559076,58.1222904 22.3383958,55.9649123 Z" id="Path"></path>
                            <path d="M38.5983947,36.4340892 C38.5983947,36.4340892 39.3831578,34.7394272 44.7747712,34.7962315 C48.0917224,34.6034737 51.4334007,34.8812457 54.5697778,35.6104266 C54.5697778,35.6104266 57.7088304,36.8127846 54.5697778,36.651839 C54.5697778,36.6329042 38.3949376,36.6802412 38.5983947,36.4340892 Z" id="Shape" fill-rule="nonzero"></path>
                            <path d="M38.5983947,36.4340892 C38.5983947,36.4340892 39.3831578,34.7394272 44.7747712,34.7962315 C48.0917224,34.6034737 51.4334007,34.8812457 54.5697778,35.6104266 C54.5697778,35.6104266 57.7088304,36.8127846 54.5697778,36.651839 C54.5697778,36.6329042 38.3949376,36.6802412 38.5983947,36.4340892 Z" id="Path"></path>
                            <path d="M17.7559725,34.7368421 C17.7559725,34.7368421 22.1253772,34.7368421 23.2759871,35.6937397 C23.2759871,35.6937397 25.2567839,36.954593 23.1594696,36.6056068 C21.2838961,36.484429 19.3985112,36.484429 17.5229376,36.6056068 C17.5229376,36.6056068 12.5126869,36.7519559 12.3816048,36.2228478 C12.2505226,35.6937397 10.2697258,35.7387702 13.0661448,35.389784 L17.7559725,34.7368421 Z" id="Shape" fill-rule="nonzero"></path>
                            <path d="M17.7559725,34.7368421 C17.7559725,34.7368421 22.1253772,34.7368421 23.2759871,35.6937397 C23.2759871,35.6937397 25.2567839,36.954593 23.1594696,36.6056068 C21.2838961,36.484429 19.3985112,36.484429 17.5229376,36.6056068 C17.5229376,36.6056068 12.5126869,36.7519559 12.3816048,36.2228478 C12.2505226,35.6937397 10.2697258,35.7387702 13.0661448,35.389784 L17.7559725,34.7368421 Z" id="Path"></path>
                            <path d="M7.14467407,43.9607493 C7.14467407,43.9607493 8.67880654,32.970562 8.28431533,29.0925959 C12.6738415,22.7970595 18.8147637,18.1668788 25.8172578,15.8729706 C25.8172578,15.8729706 33.7509143,20.7557538 36.8045685,22.5769848 L31.5739073,17.8669045 C31.5739073,17.8669045 39.6682824,22.938091 41.9329541,24.3825156 L36.8045685,19.1386262 C40.4876311,21.9925207 44.3221398,24.6136635 48.2886458,26.98876 L43.0287631,21.5564674 L54.9219424,28.982694 L50.7140362,24.6337199 C53.5594902,25.5591161 56.3182974,26.7680529 58.9545192,28.2447814 C58.9545192,28.2447814 58.0048181,32.5937556 60.1672143,34.9487957 C60.1672143,34.9487957 61.9497302,44.3689563 61.7451792,46.3157895 L66.1284148,44.0235504 L70.4385965,32.4210526 C70.4385965,32.4210526 67.6479365,12.1363069 52.905654,5.62069581 C52.905654,5.62069581 43.642416,3.43835861 41.9621757,1.99393399 C39.6613175,1.50524966 37.2936893,1.50524966 34.9928311,1.99393399 C31.8901983,1.6558586 28.8264186,0.98794481 25.8464794,0 C25.8464794,0 14.3039589,2.82604817 15.5312649,6.28010705 C13.9455934,7.17085993 12.3110475,7.9573207 10.6366518,8.63514719 C10.6366518,8.63514719 5.28910432,15.1507583 4.9092239,16.0613738 C4.9092239,16.0613738 0.18994021,21.4936664 0,25.6542373 C0,25.6542373 2.38155802,37.6492417 4.14946306,38.9837645 L5.53748767,44.4317574 L7.14467407,43.9607493 Z" id="Shape" fill-rule="nonzero"></path>
                            <path d="M7.14467407,43.9607493 C7.14467407,43.9607493 8.67880654,32.970562 8.28431533,29.0925959 C12.6738415,22.7970595 18.8147637,18.1668788 25.8172578,15.8729706 C25.8172578,15.8729706 33.7509143,20.7557538 36.8045685,22.5769848 L31.5739073,17.8669045 C31.5739073,17.8669045 39.6682824,22.938091 41.9329541,24.3825156 L36.8045685,19.1386262 C40.4876311,21.9925207 44.3221398,24.6136635 48.2886458,26.98876 L43.0287631,21.5564674 L54.9219424,28.982694 L50.7140362,24.6337199 C53.5594902,25.5591161 56.3182974,26.7680529 58.9545192,28.2447814 C58.9545192,28.2447814 58.0048181,32.5937556 60.1672143,34.9487957 C60.1672143,34.9487957 61.9497302,44.3689563 61.7451792,46.3157895 L66.1284148,44.0235504 L70.4385965,32.4210526 C70.4385965,32.4210526 67.6479365,12.1363069 52.905654,5.62069581 C52.905654,5.62069581 43.642416,3.43835861 41.9621757,1.99393399 C39.6613175,1.50524966 37.2936893,1.50524966 34.9928311,1.99393399 C31.8901983,1.6558586 28.8264186,0.98794481 25.8464794,0 C25.8464794,0 14.3039589,2.82604817 15.5312649,6.28010705 C13.9455934,7.17085993 12.3110475,7.9573207 10.6366518,8.63514719 C10.6366518,8.63514719 5.28910432,15.1507583 4.9092239,16.0613738 C4.9092239,16.0613738 0.18994021,21.4936664 0,25.6542373 C0,25.6542373 2.38155802,37.6492417 4.14946306,38.9837645 L5.53748767,44.4317574 L7.14467407,43.9607493 Z" id="Path"></path>
                            <path d="M38.5964912,46.3157895 C38.7835305,46.1108037 39.0121322,45.92251 39.2763616,45.7557968 C40.5756693,44.8964977 44.0656704,43.4965159 51.7557594,45.166839 L53.0701754,45.9295876 L51.5593525,45.9295876 C51.5593525,45.9295876 45.3045453,43.3613453 40.4094788,45.601316 L39.7598249,45.8716573 L38.5964912,46.3157895 Z" id="Shape" fill-rule="nonzero"></path>
                            <path d="M38.5964912,46.3157895 C38.7835305,46.1108037 39.0121322,45.92251 39.2763616,45.7557968 C40.5756693,44.8964977 44.0656704,43.4965159 51.7557594,45.166839 L53.0701754,45.9295876 L51.5593525,45.9295876 C51.5593525,45.9295876 45.3045453,43.3613453 40.4094788,45.601316 L39.7598249,45.8716573 L38.5964912,46.3157895 Z" id="Path"></path>
                            <path d="M38.9321077,46.542335 C38.9321077,46.542335 49.1531546,49.1637898 51.1363428,46.3157895 C51.1363428,46.3157895 51.7160439,49.5521535 38.9321077,47.6426987 L38.5964912,47.3190623 L38.9321077,46.542335 Z" id="Shape" fill-rule="nonzero"></path>
                            <path d="M41.5103673,44.6157059 C41.5103673,44.6157059 41.3019412,45.8792815 42.2607011,46.3157895 L46.7210185,46.3157895 C47.2467649,45.864455 47.4189045,45.2062817 47.1656607,44.6157059 C47.1656607,44.6157059 42.3996518,44.0987886 41.5103673,44.6157059 Z" id="Shape" fill-rule="nonzero"></path>
                            <path d="M42.5103673,44.7305764 C42.5103673,44.7305764 42.3019412,46.6259398 43.2607011,47.2807018 L47.7210185,47.2807018 C48.2467649,46.6037001 48.4189045,45.6164401 48.1656607,44.7305764 C48.1656607,44.7305764 43.3996518,43.9552005 42.5103673,44.7305764 Z" id="Path"></path>
                            <path d="M28.9473684,75.2631579 C28.9473684,75.2631579 37.9448776,78.268075 41.4912281,75.2631579 C41.4912281,75.2631579 35.2192982,79.6052632 28.9473684,75.2631579 Z" id="Shape" fill-rule="nonzero"></path>
                            <path d="M28.9473684,75.2631579 C28.9473684,75.2631579 37.9448776,78.268075 41.4912281,75.2631579 C41.4912281,75.2631579 35.2192982,79.6052632 28.9473684,75.2631579 Z" id="Path"></path>
                            <path d="M28.9473684,67.8140351 C28.9473684,67.8140351 33.806216,68.2 34.2372429,68.045614 C34.2372429,68.045614 35.9613501,67.6017544 36.6666667,67.5438596 C36.6666667,67.5438596 28.9996141,68.1421053 28.9473684,67.8140351 Z" id="Path"></path>
                            <path d="M6.1251087,51.388794 C6.1251087,51.388794 3.51678018,66.8146643 12.8426475,72.4986649 C12.8426475,72.4986649 20.1284813,79.9579832 21.4253598,82.4792328 C21.4253598,82.4792328 25.141135,86.0149497 28.4780469,86.1790547 C28.4780469,86.1790547 38.7947876,87.6709184 40.3685277,86.1790547 C40.3685277,86.1790547 52.8418753,77.8395368 57.1842322,73.0655731 C57.5325145,72.7067297 57.8494438,72.3173587 58.1313906,71.9019194 C58.1313906,71.9019194 61.7305925,59.5045323 61.8763092,55.0289413 C62.4396271,52.8689204 62.7141344,50.640645 62.6923226,48.4050666 C62.8963259,43.5117538 61.8763092,48.7481953 61.8763092,48.7481953 C61.8763092,48.7481953 59.8362757,67.157793 57.0822305,71.469279 C57.0822305,71.469279 43.4140063,85.1645874 37.2210475,85.8359261 C37.2210475,85.8359261 27.0937385,87.8201048 21.3962164,81.1962301 C21.3962164,81.1962301 14.2269559,72.618014 13.0466508,71.9019194 C13.0466508,71.9019194 5.38195365,62.9507374 6.91197875,51.7915972 L6.1251087,51.388794 Z" id="Shape" fill-rule="nonzero"></path>
                            <path d="M6.1251087,51.388794 C6.1251087,51.388794 3.51678018,66.8146643 12.8426475,72.4986649 C12.8426475,72.4986649 20.1284813,79.9579832 21.4253598,82.4792328 C21.4253598,82.4792328 25.141135,86.0149497 28.4780469,86.1790547 C28.4780469,86.1790547 38.7947876,87.6709184 40.3685277,86.1790547 C40.3685277,86.1790547 52.8418753,77.8395368 57.1842322,73.0655731 C57.5325145,72.7067297 57.8494438,72.3173587 58.1313906,71.9019194 C58.1313906,71.9019194 61.7305925,59.5045323 61.8763092,55.0289413 C62.4396271,52.8689204 62.7141344,50.640645 62.6923226,48.4050666 C62.8963259,43.5117538 61.8763092,48.7481953 61.8763092,48.7481953 C61.8763092,48.7481953 59.8362757,67.157793 57.0822305,71.469279 C57.0822305,71.469279 43.4140063,85.1645874 37.2210475,85.8359261 C37.2210475,85.8359261 27.0937385,87.8201048 21.3962164,81.1962301 C21.3962164,81.1962301 14.2269559,72.618014 13.0466508,71.9019194 C13.0466508,71.9019194 5.38195365,62.9507374 6.91197875,51.7915972 L6.1251087,51.388794 Z" id="Path"></path>
                            <path d="M24.122807,46.3157895 C23.9709253,46.1113372 23.7796263,45.9212674 23.5538631,45.7505013 C22.4159751,44.8934515 19.4086999,43.4984662 12.7168353,45.166978 L11.5789474,45.9237348 L12.9335758,45.9237348 C12.9335758,45.9237348 18.3520897,43.3525853 22.5785306,45.5955029 L23.1339282,45.8690295 L24.122807,46.3157895 Z" id="Shape" fill-rule="nonzero"></path>
                            <path d="M24.122807,46.3157895 C23.9709253,46.1113372 23.7796263,45.9212674 23.5538631,45.7505013 C22.4159751,44.8934515 19.4086999,43.4984662 12.7168353,45.166978 L11.5789474,45.9237348 L12.9335758,45.9237348 C12.9335758,45.9237348 18.3520897,43.3525853 22.5785306,45.5955029 L23.1339282,45.8690295 L24.122807,46.3157895 Z" id="Path"></path>
                            <path d="M24.7402702,46.5561732 C24.7402702,46.5561732 14.5378997,49.11025 12.5479637,46.3157895 C12.5479637,46.3157895 11.9636174,49.5910174 24.7402702,47.6078518 L25.0877193,47.2773243 L24.7402702,46.5561732 Z" id="Shape" fill-rule="nonzero"></path>
                            <path d="M20.2420499,44.6125777 C20.2420499,44.6125777 20.4581957,45.8818502 19.5071543,46.3157895 L15.0401418,46.3157895 C14.5031637,45.8469154 14.3334762,45.1999201 14.5934405,44.6125777 C14.5934405,44.6125777 19.3630571,44.102699 20.2420499,44.6125777 Z" id="Shape" fill-rule="nonzero"></path>
                            <path d="M21.7683657,45.3399191 C21.7683657,45.3399191 21.9845115,47.2438279 21.0334701,47.8947368 L16.5664576,47.8947368 C16.0294795,47.1914258 15.859792,46.2209328 16.1197563,45.3399191 C16.1197563,45.3399191 20.8893729,44.5751011 21.7683657,45.3399191 Z" id="Path"></path>
                            <path d="M19.2982456,67.5438596 C19.2982456,67.5438596 30.8887835,79.3820255 43.4210526,67.8911528 C43.3630999,67.9515516 31.178547,80.3333067 19.2982456,67.5438596 Z" id="Shape" fill-rule="nonzero"></path>
                            <path d="M19.2982456,67.5438596 C19.2982456,67.5438596 31.8160266,79.3820255 45.3508772,67.8911528 C45.2882883,67.9515516 32.1289711,80.3333067 19.2982456,67.5438596 Z" id="Path"></path>
                            <path d="M19.2982456,67.5438596 C19.2982456,67.5438596 29.3974988,70.4 45.5535817,67.6596491 L46.3157895,67.9491228 C46.3157895,67.9491228 26.9747669,71.0175439 19.2982456,67.5438596 Z" id="Shape" fill-rule="nonzero"></path>
                            <path d="M19.2982456,67.3122458 C26.4739783,69.8331878 35.8014637,69.8842879 47.2807018,67.4655463 C35.0827577,69.4308688 25.7552723,69.3797686 19.2982456,67.3122458 Z" id="Path"></path>
                        </g>
                    </g>
                </g>
            </g>
        </g>
    </g>
</svg>