<?xml version="1.0" encoding="UTF-8"?>
<svg width="250px" height="238px" viewBox="0 0 250 238" version="1.1" xmlns="http://www.w3.org/2000/svg" xmlns:xlink="http://www.w3.org/1999/xlink">
    <!-- Generator: Sketch 51.3 (57544) - http://www.bohemiancoding.com/sketch -->
    <title>customerService</title>
    <desc>Created with Sketch.</desc>
    <defs>
        <linearGradient x1="50%" y1="0%" x2="50%" y2="100%" id="linearGradient-1">
            <stop stop-color="#FFE895" offset="0%"></stop>
            <stop stop-color="#F9B28A" offset="100%"></stop>
        </linearGradient>
        <linearGradient x1="63.6132223%" y1="5.2547321%" x2="41.5838091%" y2="81.8120082%" id="linearGradient-2">
            <stop stop-color="#FFE895" offset="0%"></stop>
            <stop stop-color="#F9B28A" offset="100%"></stop>
        </linearGradient>
        <linearGradient x1="60.4416806%" y1="0%" x2="54.9148821%" y2="41.8278088%" id="linearGradient-3">
            <stop stop-color="#B2DDEA" offset="0%"></stop>
            <stop stop-color="#FFFFFF" offset="100%"></stop>
        </linearGradient>
    </defs>
    <g id="Page-1" stroke="none" stroke-width="1" fill="none" fill-rule="evenodd">
        <g id="Superbil-LandingPage" transform="translate(-346.000000, -3397.000000)">
            <g id="客服框" transform="translate(270.000000, 3361.000000)">
                <g id="customerService" transform="translate(76.000000, 36.000000)">
                    <g id="hair" transform="translate(17.000000, 0.000000)">
                        <path d="M49.1036307,30.1218698 C50.8467095,18.343667 53.7320018,11.2533524 57.7595074,8.85092612 C63.800766,5.24728668 65.3813368,0.83473033 77.0011721,0.83473033 C88.6210073,0.83473033 88.0931152,-0.569617741 96.2940732,0.83473033 C104.495031,2.2390784 115.21745,6.52820117 119.831071,17.6900124 C122.906819,25.1312199 124.118641,30.1379136 123.466539,32.7100934 C124.307026,34.293252 123.095204,33.8241008 119.831071,31.3026401 C114.934873,27.5204489 108.503129,20.4327221 105.763525,15.6770359 C103.937122,12.5065784 101.911724,9.79957915 99.6873322,7.55603801 C94.0091496,13.54606 89.5847597,17.6951878 86.4141625,20.0034216 C81.6582666,23.4657723 82.5541305,24.7637657 71.0220185,30.1218698 C63.3339438,33.6939392 56.0278146,35.537421 49.1036307,35.6523152 L49.1036307,30.1218698 Z" id="Path-89" fill="url(#linearGradient-1)"></path>
                        <path d="M35.2456111,57.6513274 C29.9365295,59.5226252 26.5004205,63.5638913 24.9372839,69.775126 C22.5925791,79.0919779 26.3642043,81.7498683 21.6212014,86.8228046 C16.8781986,91.8957409 13.952342,94.9271092 13.952342,100.167524 C13.952342,105.40794 10.7735922,110.576339 7.34194928,112.921044 C5.05418732,114.48418 5.05418732,117.986164 7.34194928,123.426996 L0.172176992,123.426996 C0.545096706,126.384674 2.9350208,127.863512 7.34194928,127.863512 C11.7488778,127.863512 17.6139893,127.863512 24.9372839,127.863512 C25.3760787,124.266065 27.2038319,120.876292 30.4205436,117.694193 C35.2456111,112.921044 42.7486664,110.971589 48.7142653,108.213211 C54.6798642,105.454834 60.8497873,103.143625 65.0417846,100.167524 C69.2337818,97.1914241 71.9368914,92.9625816 71.9368914,89.8926931 C71.9368914,86.8228046 76.2645465,85.4628758 71.9368914,80.4401832 C67.6092363,75.4174906 67.66786,75.3666293 63.5006288,71.7170057 C59.3333976,68.0673821 51.5632555,62.6131494 51.5632555,60.1322384 C51.5632555,58.4782978 49.3634858,58.0264898 44.9639464,58.7768146 L35.2456111,57.6513274 Z" id="Path-90" fill="url(#linearGradient-2)"></path>
                        <path d="M130.888583,59.1277537 C137.112408,63.9478682 140.22432,68.4478942 140.22432,72.6278318 C140.22432,78.8977381 141.404182,81.414846 138.480317,83.0333666 C135.556452,84.6518872 138.227223,82.2326136 146.594188,87.0849851 C154.961152,91.9373566 153.090602,98.6634688 159.461533,102.167428 C165.832464,105.671386 163.598225,112.703763 163.598225,115.887633 C163.598225,118.010213 165.343647,118.010213 168.83449,115.887633 C168.101441,121.563444 166.35602,124.401349 163.598225,124.401349 C159.461533,124.401349 155.853891,130.450065 152.857714,129.024023 C150.860262,128.073328 148.30558,125.580324 145.193668,121.545011 C142.830744,117.017352 140.016583,114.753522 136.751184,114.753522 C131.853085,114.753522 128.694754,109.57519 123.199015,109.57519 C117.703276,109.57519 114.928822,108.038553 109.897796,106.508296 C104.86677,104.978039 101.502119,104.465123 99.200885,99.3249142 C96.8996507,94.1847053 96,89.2745606 96,83.0333666 C96,78.8725705 97.0669617,76.2707438 99.200885,75.2278862 C105.359487,73.15635 108.925124,71.350668 109.897796,69.8108403 C111.356804,67.5010987 117.054592,65.0573666 117.054592,59.1277537 C122.310708,57.6240821 126.922038,57.6240821 130.888583,59.1277537 Z" id="Path-91" fill="url(#linearGradient-1)"></path>
                    </g>
                    <g id="face" transform="translate(55.000000, 30.000000)">
                        <path d="M29.4632614,44.7647367 C32.0468058,47.8117203 33.7278791,50.0097772 34.5064816,51.3589072 C35.285084,52.7080373 34.9153088,56.593422 33.3971562,63.0150613 L43.9595447,74.8089657 L58.3858087,63.0150613 C58.3858087,59.9784509 58.3858087,57.6551525 58.3858087,56.0451663 C58.3858087,54.43518 58.3858087,51.8081596 58.3858087,48.1641051 C52.7176014,48.1641051 48.8903374,48.1641051 46.9040164,48.1641051 C44.9176955,48.1641051 39.1041105,47.0309823 29.4632614,44.7647367 Z" id="Path-93" fill="#FEE8D8"></path>
                        <path d="M28.7475754,45 C36.2279094,47.1004526 41.0884675,48.1506789 43.3292498,48.1506789 C45.570032,48.1506789 49.0773817,47.7462302 53.8512988,46.9373328 L63.3317756,43.6512753 L56.9913563,52.6500826 C49.9407642,52.6500826 45.7081054,52.6500826 44.29338,52.6500826 C42.8786545,52.6500826 37.6967196,50.100055 28.7475754,45 Z" id="Path-94" fill="#EFBE9A" transform="translate(46.039675, 48.150679) scale(-1, 1) translate(-46.039675, -48.150679) "></path>
                    </g>
                    <g id="cup" transform="translate(211.000000, 166.000000)">
                        <path d="M0.21452226,22.2773841 L0.21452226,54.3490539 C8.6730667,55.4070721 14.1506556,55.9360811 16.647289,55.9360811 C19.1439224,55.9360811 24.5795079,55.6775271 32.9540456,55.160419 L32.1258793,22.2773841 C25.4109412,22.980007 20.2304094,23.3313185 16.584284,23.3313185 C12.9381585,23.3313185 7.48157123,22.980007 0.21452226,22.2773841 Z" id="Path-101" fill="#FFBABA"></path>
                        <path d="M8.6950987,0 C6.75662608,1.80165314 5.27667565,3.69560046 4.25524743,5.68184195 C2.72310508,8.66120419 8.51729235,10.3817682 10.243164,12.4517527 C11.9690357,14.5217371 9.97074071,19.1270102 8.6950987,19.1270102" id="Path-103" stroke="#E47272"></path>
                        <path d="M15.6950987,0 C13.7566261,1.80165314 12.2766757,3.69560046 11.2552474,5.68184195 C9.72310508,8.66120419 15.5172923,10.3817682 17.243164,12.4517527 C18.9690357,14.5217371 16.9707407,19.1270102 15.6950987,19.1270102" id="Path-103-Copy" stroke="#E47272"></path>
                        <path d="M22.6950987,0 C20.7566261,1.80165314 19.2766757,3.69560046 18.2552474,5.68184195 C16.7231051,8.66120419 22.5172923,10.3817682 24.243164,12.4517527 C25.9690357,14.5217371 23.9707407,19.1270102 22.6950987,19.1270102" id="Path-103-Copy-2" stroke="#E47272"></path>
                    </g>
                    <g id="ipad" transform="translate(15.000000, 188.000000)">
                        <path d="M44.8989754,2.70521528 L2.0798249,41.5942962 L68.0509232,47.0556986 L102.835554,4.84301044 L44.8989754,2.70521528 Z" id="Rectangle-5" stroke="#414141" stroke-width="4" fill="#FFFFFF"></path>
                        <path d="M84.6537699,37.1848437 L108.659387,9.40942662" id="Path-104" stroke="#979797"></path>
                    </g>
                    <g id="desk" transform="translate(0.000000, 188.000000)" stroke="#979797">
                        <path d="M0.448457108,1.26926929 L59.7661614,1.26926929"></path>
                        <path d="M123.5,3.0329956 L164.150554,3.0329956" id="Path-106"></path>
                    </g>
                    <g id="cloth" transform="translate(25.000000, 93.000000)"></g>
                    <path d="M66.8965006,35.2895332 C82.1214216,31.9699011 91.0949992,29.5502452 93.8172333,28.0305655 C97.9005845,25.751046 114.146707,11.0600009 116.157106,7.78110049 C119.002505,13.1678655 121.548236,15.0400682 127.186664,21.5353169 C130.945617,25.8654826 134.565402,29.5439415 138.046022,32.5706934 C138.363147,46.7501679 137.149925,55.3309757 134.406355,58.3131168 C130.291,62.7863283 124.902608,77.836685 102.495905,77.836685 C80.0892016,77.836685 66.8965006,60.4937165 66.8965006,58.3131168 C66.8965006,56.8593836 66.8965006,49.1848558 66.8965006,35.2895332 Z" id="Path-85" fill="#FEDBC2" opacity="0.631361607"></path>
                    <path d="M73.982906,106.065754 C70.8885649,106.312216 66.1339971,107.947287 59.7192029,110.970968 C50.0970115,115.50649 45.0866547,116.18313 42.4564082,127.981931 C39.8261616,139.780732 37.0738147,151.73131 34.8064777,157.478509 C32.5391408,163.225708 27.7823119,175.746089 26.3840925,181.054065 C25.4519463,184.592716 25.4519463,187.488644 26.3840925,189.741849 L61.5939531,188.15624 L63.9808467,188.15624 L124.228077,191.191792 L162.215722,189.741849 C166.088453,190.585812 169.319027,192.025014 171.907442,194.059456 C174.495858,196.093898 180.10202,198.087074 188.725927,200.038985 L198.464284,204.727132 L202.229894,204.727132 C203.236658,201.601701 204.308711,200.038985 205.446053,200.038985 C206.583396,200.038985 208.1984,199.671553 210.291066,198.936689 L210.291066,189.741849 L211.626539,186.415461 C206.263165,184.529688 201.875747,183.586801 198.464284,183.586801 C195.05282,183.586801 192.911824,182.1199 192.041293,179.186099 L192.041293,174.675166 L188.725927,174.675166 C184.775753,166.580361 181.830645,160.15412 179.890605,155.396443 C176.980545,148.259928 172.302573,133.568873 166.005922,125.596733 C159.709271,117.624593 163.238712,119.203798 153.454609,113.86306 C143.670507,108.522322 139.132987,110.970968 130.597588,108.1871 C124.907321,106.331188 120.926712,104.984176 118.655761,104.146064 L107.461315,120.977267 L97.9815739,110.970968 L87.6700239,120.977267 L73.982906,106.065754 Z" id="Path-95" fill="#0F9EC7"></path>
                    <polyline id="Path-98" stroke="#096A86" stroke-width="2" opacity="0.672154018" points="148.511412 158.460272 152.111203 178.455698 165.515031 190.585499"></polyline>
                    <polyline id="Path-99" stroke="#096A86" stroke-width="2" points="62.3105749 186.857436 64.4168109 176.625498 62.3105749 169.319381"></polyline>
                    <path d="M187.670064,174.645757 L186.678218,173 C186.78668,174.447059 186.352532,175.676597 185.375775,176.688612 C184.399017,177.700627 183.273759,178.812888 182,180.025394 L187.670064,174.645757 Z" id="Path-107" stroke="#0C89AC"></path>
                    <path d="M193.670064,182.171292 L193.301627,181 C193.341917,182.029878 193.180646,182.904944 192.817814,183.625199 C192.454982,184.345455 192.036986,185.137055 191.563828,186 L193.670064,182.171292 Z" id="Path-107-Copy" stroke="#0C89AC"></path>
                    <path d="M88.7220982,93.5393838 C85.9032806,96.988799 83.9896238,99.2377773 82.9811278,100.286319 C81.9726319,101.33486 78.9911016,103.11204 74.0365372,105.617861 L87.5994502,121.269341 L98.2114424,110.736749 L99.3064729,105.617861 L88.7220982,93.5393838 Z" id="Path-96" fill="url(#linearGradient-3)"></path>
                    <polygon id="Path-97" fill="url(#linearGradient-3)" points="99.8215378 105.360328 113.115871 93.6346639 118.36249 103.826871 107.70631 120.529194 98.7168411 110.852052"></polygon>
                    <g id="earphone" transform="translate(55.000000, 0.000000)">
                        <path d="M11.1050308,30.0085551 C13.7752878,19.0914239 15.5871152,12.9989123 16.5405128,11.7310205 C17.9706093,9.82918274 26.323451,2.91340908 31.4442839,2.11446991 C34.8581725,1.58184379 37.6494246,1.11196159 39.8180402,0.704823303 C33.4441881,-0.234941101 28.6586865,-0.234941101 25.4615355,0.704823303 C20.665809,2.11446991 14.5982401,8.45776344 11.9188426,11.7310205 C10.1325776,13.9131919 8.15963003,20.0057034 6,30.0085551 L11.1050308,30.0085551 Z" id="Path-92" fill="#194F6A"></path>
                        <path d="M62.1382899,33.0085551 C64.8085469,22.0914239 66.6203743,15.9989123 67.5737719,14.7310205 C69.0038684,12.8291827 74.9853119,4.58386761 80.1061449,3.78492843 C83.5200335,3.25230232 87.0906653,2.12058604 90.8180402,0.389779594 C84.6675642,1.30002183 79.9937507,2.22502515 76.7965997,3.16478955 C72.0008732,4.57443616 65.6314992,11.4577634 62.9521017,14.7310205 C61.1658367,16.9131919 59.1928891,23.0057034 57.0332591,33.0085551 L62.1382899,33.0085551 Z" id="Path-92-Copy" fill="#194F6A" transform="translate(73.925650, 16.699167) scale(-1, 1) translate(-73.925650, -16.699167) "></path>
                        <g id="Group-15" transform="translate(0.000000, 30.000000)">
                            <ellipse id="Oval-7" fill="#194F6A" cx="55.5" cy="42.5" rx="7.5" ry="5.5"></ellipse>
                            <path d="M62.853152,43.1428155 C65.8644402,43.1428155 67.9661605,43.1428155 69.1583127,43.1428155 C70.9465411,43.1428155 81.8173799,34.8343092 84.1661848,32.7350616" id="Path-86" stroke="#194F6A"></path>
                            <path d="M83.4567116,3.61250133 C87.4909548,2.79583289 90.120931,2.79583289 91.3466401,3.61250133 C93.1852037,4.83750398 95.7062083,15.8990872 94.445706,20.2634241 C93.1852037,24.627761 91.9586116,30.9021907 87.2371589,31.7488837 C82.5157061,32.5955767 80,30.5811043 80,29.4731975 C80,28.734593 80,27.6724295 80,26.286707 C81.8332652,23.6681843 82.9855024,20.7311561 83.4567116,17.4756224 C83.9279209,14.2200887 83.9279209,9.59904833 83.4567116,3.61250133 Z" id="Path-87" fill="#194F6A"></path>
                            <path d="M3.45671164,0.612501327 C7.49095482,-0.204167109 10.120931,-0.204167109 11.3466401,0.612501327 C13.1852037,1.83750398 15.7062083,12.8990872 14.445706,17.2634241 C13.1852037,21.627761 11.9586116,27.9021907 7.23715885,28.7488837 C2.51570614,29.5955767 3.46455904e-17,27.5811043 0,26.4731975 C0,25.734593 0,24.6724295 0,23.286707 C1.83326522,20.6681843 2.98550243,17.7311561 3.45671164,14.4756224 C3.92792085,11.2200887 3.92792085,6.59904833 3.45671164,0.612501327 Z" id="Path-87-Copy" fill="#194F6A" transform="translate(7.392667, 14.475622) scale(-1, 1) translate(-7.392667, -14.475622) "></path>
                        </g>
                    </g>
                    <g id="hand" transform="translate(203.000000, 196.000000)" fill="#FEE8D8">
                        <path d="M7.87645128,3.44983249 C5.45522867,2.86259347 3.8746186,2.86259347 3.13462106,3.44983249 C2.02462474,4.33069102 1.35131217,3.90414222 0.665661411,5.40851991 C-0.0199893483,6.91289761 -0.0627323584,8.32870473 1.24423432,9.58499671 C2.551201,10.8412887 6.08829525,14.0218974 6.98237326,15.1310124 C7.87645128,16.2401274 10.28372,15.9347573 10.28372,15.1310124 C10.28372,14.3272676 11.6184476,12.4271866 10.28372,10.2869515 C9.39390158,8.86012814 7.54229201,7.67154931 4.72889127,6.72121503" id="Path-100"></path>
                        <path d="M41.9895844,0.00206929285 C38.4976262,1.7135015 36.3900562,3.0514085 35.6668746,4.01579028 C34.5821021,5.46236297 30.6487812,10.2756875 30.6487812,12.5350544 C30.6487812,14.7944213 38.6737106,24.2747172 40.8168743,24.2747172 C42.2456501,24.2747172 44.1149512,22.7054507 46.4247775,19.5669177 C46.4247775,11.8200384 46.4247775,7.29146399 46.4247775,5.98119451 C46.4247775,4.67092502 44.9463798,2.67788329 41.9895844,0.00206929285 Z" id="Path-102"></path>
                    </g>
                </g>
            </g>
        </g>
    </g>
</svg>