<?xml version="1.0" encoding="UTF-8"?>
<svg width="225px" height="396px" viewBox="0 0 225 396" version="1.1" xmlns="http://www.w3.org/2000/svg" xmlns:xlink="http://www.w3.org/1999/xlink">
    <!-- Generator: Sketch 51.3 (57544) - http://www.bohemiancoding.com/sketch -->
    <title>enginner</title>
    <desc>Created with Sketch.</desc>
    <defs>
        <linearGradient x1="50%" y1="0%" x2="50%" y2="100%" id="linearGradient-1">
            <stop stop-color="#FFF6DE" offset="0%"></stop>
            <stop stop-color="#FFBABA" offset="100%"></stop>
        </linearGradient>
    </defs>
    <g id="Page-1" stroke="none" stroke-width="1" fill="none" fill-rule="evenodd">
        <g id="Superbil-LandingPage" transform="translate(-722.000000, -358.000000)">
            <g id="enginner" transform="translate(722.000000, 358.000000)">
                <path d="" id="Path-8" stroke="#979797"></path>
                <path d="M114.041395,32.6869632 C114.041395,43.5914502 114.041395,50.7239448 114.041395,54.0844471 C114.041395,59.1252005 118.672529,75.4856719 132.120773,78.8056486 C145.569017,82.1256254 157.939905,81.68982 161.416996,78.8056486 C164.894087,75.9214773 171.863233,65.1849478 174.277931,61.0479814 C176.69263,56.9110151 180.80566,46.7430901 177.541796,41.4086824 C174.277931,36.0742747 173.690623,33.5641852 171.101976,37.4864338 C169.376212,40.1012662 168.11805,43.3520378 167.32749,47.2387486 C167.527,34.3940235 166.591795,26.4366783 164.521876,23.366713 C162.451956,20.2967476 145.625129,23.4034977 114.041395,32.6869632 Z" id="Path-9" fill="#FEDBC2"></path>
                <path d="M112.81041,53.09971 C108.912752,46.1466025 106.963924,39.8702689 106.963924,34.270709 C106.963924,25.8713691 110.298477,15.0062643 115.454549,12.0777749 C118.891931,10.1254487 121.879528,8.92474354 124.417343,8.47565954 L115.454549,8.47565954 C119.95868,4.65005141 124.820259,2.73724734 130.039287,2.73724734 C137.867828,2.73724734 149.104372,-0.349680553 155.475489,1.1937834 C161.846606,2.73724734 172.765223,6.92694928 176.625457,12.0777749 C179.198946,15.5116587 181.742356,17.2258025 184.255688,17.2202065 C181.952908,17.3807015 180.801518,19.0392345 180.801518,22.1958054 C180.801518,26.9306618 184.97758,51.4932904 180.801518,50.1449891 C176.625457,48.7966878 179.554995,43.629074 178.090226,41.3616195 C176.625457,39.094165 177.184713,36.2013505 174.03378,36.2013505 C170.882847,36.2013505 167.873565,42.3028072 167.873565,46.2238982 C167.873565,50.1449891 167.467731,29.9657186 165.540237,25.2272528 C164.255242,22.0682756 156.381362,22.3191303 141.9186,25.9798168 L115.454549,32.5079493 L115.454549,53.09971 L112.81041,53.09971 Z" id="Path-10" fill="#6999E1"></path>
                <path d="M133.09269,78.1988757 C133.09269,83.3960845 131.158311,89.4971897 133.09269,94.4187244 C135.027069,99.340259 141.264374,101.628859 144.091384,101.628859 C146.918393,101.628859 149.582336,102.087432 151.816714,100.663286 C154.051092,99.2391397 157.661524,95.140976 157.661524,91.5171515 C157.661524,89.1012686 157.661524,85.3491308 157.661524,80.2607381 C149.471912,79.6888834 141.282301,79.0015959 133.09269,78.1988757 Z" id="Path-11" fill="#FEDBC2"></path>
                <path d="M132.306292,78.282677 C139.1049,80.4011324 143.530915,81.3086907 145.584339,81.005352 C147.637762,80.7020132 151.397523,80.3997133 156.863623,80.0984522 C150.327527,83.7939214 146.07963,85.8555399 144.119933,86.2833075 C142.160235,86.7110752 138.222355,87.0847955 132.306292,87.4044685 L132.306292,78.282677 Z" id="Path-12" fill="#E1A77D"></path>
                <path d="" id="Path-15" stroke="#979797"></path>
                <polygon id="Path-16" fill="#5DB3C3" points="126.169874 239.375186 144.248831 222.022415 126.169874 222.022415"></polygon>
                <path d="" id="Path-18" stroke="#979797"></path>
                <path d="M88.8943602,142.358562 L84.0426199,176.372408 L101.119994,177.679446 L105.40477,160.019004 L107.119754,147.262638 C104.92436,148.088371 101.920007,147.675951 98.1066951,146.02538 C94.2933833,144.374809 91.222605,143.152536 88.8943602,142.358562 Z" id="Path-19" fill="#FEDBC2"></path>
                <g id="Group-13" transform="translate(28.000000, 244.000000)">
                    <path d="M56.0889761,2.95324197 C52.4528085,2.65653611 48.9152347,7.39864314 45.4762548,17.1795631 C42.0372749,26.960483 30.9110222,56.6826833 12.0974967,106.346164 C12.4279462,111.817792 14.2415758,114.553607 17.5383856,114.553607 C22.4836002,114.553607 24.8162418,118.429664 29.4547391,112.387914 C34.0932364,106.346164 78.0077559,33.3696657 78.0077559,25.2746144 C78.0077559,17.1795631 78.356457,12.1783362 71.6446825,7.56578909 C67.1701662,4.49075768 61.9849307,2.95324197 56.0889761,2.95324197 Z" id="Path-20" fill="#FEDBC2"></path>
                    <path d="M10.9353293,1.09850292 C22.7257999,-1.38362813 27.9879734,13.2683233 29.3522406,18.9905889 C30.2617521,22.8054327 32.1362274,31.6339585 34.9756665,45.4761663 L53.789329,105.91738 C52.8682166,108.399511 51.104878,110.285587 48.4993133,111.575609 C45.8937485,112.86563 42.0782087,112.86563 37.0526937,111.575609 C19.0044594,76.5004843 8.89264082,56.2740628 6.71723787,50.8963442 C4.54183492,45.5186256 2.38452939,35.3527467 0.245321285,20.3987076 C-0.488320367,9.18665852 3.07501565,2.75325696 10.9353293,1.09850292 Z" id="Path-22" fill="#FEDBC2"></path>
                    <polygon id="Path-23" fill="#E1A77D" points="46.6439309 84.883463 34.2004334 105.017638 35.7672468 108.043886"></polygon>
                    <path d="M35.715528,45.4771223 L22.0274272,81.4422589" id="Path-24" stroke="#E7B38C"></path>
                </g>
                <g id="Group-12" transform="translate(0.000000, 348.000000)" fill="#194F6A">
                    <path d="M39.6967128,2.28535145 C33.3615429,9.60344614 28.3551736,13.2624935 24.6776049,13.2624935 C19.1612518,13.2624935 4.81085149,17.5816338 2.25554856,21.5803114 C-0.299754367,25.578989 -0.988490883,31.0242717 5.13389864,35.3143378 C11.2562882,39.6044039 15.352526,41.7927253 23.3447124,39.8680104 C31.3368988,37.9432955 40.5547261,34.5732676 44.6012146,28.0767895 C47.2988737,23.7458041 51.1570591,17.7271018 56.1757709,10.0206825 C53.4156729,11.0363427 50.6090477,11.0363427 47.7558953,10.0206825 C43.4761667,8.49719217 40.2601621,6.39206339 40.2601621,3.60868917 C40.2601621,1.75310636 40.0723457,1.31199379 39.6967128,2.28535145 Z" id="Path-25"></path>
                    <path d="M64.3086959,6.05572536 C65.1100645,21.0279512 66.2433398,29.9433594 67.7085218,32.80195 C69.9062949,37.0898357 78.0233833,45.0126349 83.6552707,45.7021618 C89.2871581,46.3916886 95.6526379,49.3085326 98.6921646,46.3986991 C101.731691,43.4888656 105.120738,34.1063926 101.906451,30.4118905 C99.7635935,27.9488892 92.9993531,18.0753515 81.6137303,0.791277705 C79.2206638,3.34248213 77.0616972,5.09729801 75.1368306,6.05572536 C73.2119639,7.01415271 69.6025857,7.01415271 64.3086959,6.05572536 Z" id="Path-26"></path>
                </g>
                <path d="M193.9978,119.698437 C206.081657,119.958498 214.259203,123.714405 218.530439,130.966157 C224.937292,141.843785 224.144524,182.801625 224.144524,194.141251 C224.144524,205.480878 216.765864,264.403185 192.342883,278.933654 C167.919902,293.464123 163.209312,294.144964 143.75326,296.699436 C130.782558,298.402417 114.476139,297.138126 94.8340025,292.906561 L104.640801,273.274018 C144.573725,260.442197 167.364544,250.896543 173.013256,244.637058 C176.090951,232.602191 180.208341,192.718195 185.365424,124.985069 L193.9978,119.698437 Z" id="Path-27" fill="url(#linearGradient-1)"></path>
                <path d="" id="Path-28" stroke="#979797"></path>
                <path d="" id="Path-29" stroke="#979797"></path>
                <g id="Group-6" transform="translate(82.000000, 90.000000)" fill="#FFFFFF">
                    <path d="M50.0306717,2.59103131 C43.4853506,7.11503918 39.2704531,11.4073975 37.3859793,15.4681063 C34.5592685,21.5591695 30.9093222,30.0796206 29.2643173,37.0364373 C27.6193124,43.993254 26.5013835,58.5087363 24.8263227,65.0748276 C23.7096156,69.4522219 21.6997871,77.7840301 18.7968373,90.0702521 L40.676916,93.0570754 L40.676916,123.545544 C49.5446641,114.303065 55.6012849,108.393257 58.8467783,105.816119 C62.0922718,103.238982 68.6862661,99.6851164 78.6287613,95.1545238 L80.2259188,58.0399663 C88.7978729,58.5543529 94.4374762,58.1674787 97.1447287,56.8793435 C99.8519811,55.5912083 104.170704,53.4237149 110.100896,50.3768631 C110.542853,34.2465482 108.49398,23.0026895 103.95428,16.645287 C97.1447287,7.10918319 84.8527963,2.59103131 82.5393576,2.59103131 C80.9970651,2.59103131 78.7392943,2.59103131 75.7660454,2.59103131 C76.9324354,2.44828567 76.59225,3.32870162 74.7454892,5.23227916 C71.975348,8.08764547 68.1824941,11.1406654 63.731922,11.1406654 C59.2813499,11.1406654 56.1687548,9.70981512 53.3172919,6.65732509 C51.4163167,4.62233174 50.3207766,3.26690048 50.0306717,2.59103131 Z" id="Path-13"></path>
                    <path d="M47.9492598,3.63966482 C39.6768009,2.74523498 33.3791779,3.96977278 29.0563909,7.31327821 C22.5722105,12.3285364 12.8215304,38.099623 8.81577496,40.7602467 C6.14527131,42.5339958 3.29547488,44.7107904 0.266385652,47.2906306 C14.6719948,54.4576928 23.0717313,58.0412239 25.4655951,58.0412239 C25.4655951,51.6128364 28.5699466,35.4016784 31.1285739,30.6988652 C33.6872012,25.996052 38.2238609,13.1863521 40.0685135,11.6189205 C41.2982819,10.5739661 43.9251973,7.91421418 47.9492598,3.63966482 Z" id="Path-30" stroke="#FFFFFF"></path>
                    <path d="M49.5381003,3.90066644 C48.5934118,3.04170498 48.8925941,1.74148283 50.4356475,-1.42108547e-14 L63.2330206,6.24161582 L63.2330206,11.6360571 C58.959803,10.8097953 56.1465729,10.0250521 54.7933302,9.28182766 C51.2980003,7.36213144 50.1357261,4.4440598 49.5381003,3.90066644 Z" id="Path-36" stroke="#FFFFFF"></path>
                    <path d="M63.5381003,3.90066644 C62.5934118,3.04170498 62.8925941,1.74148283 64.4356475,-1.42108547e-14 L77.2330206,6.24161582 L77.2330206,11.6360571 C72.959803,10.8097953 70.1465729,10.0250521 68.7933302,9.28182766 C65.2980003,7.36213144 64.1357261,4.4440598 63.5381003,3.90066644 Z" id="Path-36-Copy" stroke="#FFFFFF" transform="translate(70.116510, 5.818029) scale(-1, 1) translate(-70.116510, -5.818029) "></path>
                </g>
                <path d="M37.7505864,172.703557 C91.5894083,176.261792 120.75886,178.528628 125.258941,179.504064 C125.258941,185.491812 125.258941,205.753666 125.258941,240.289625 L118.794474,243.248931 L40.3516459,235.740835 L35.7538324,229.637442 L37.7505864,172.703557 Z" id="Path-14" fill="#ACF2FF"></path>
                <path d="" id="Path-32" stroke="#979797"></path>
                <path d="M162.894882,147.474243 L178.148878,147.474243 L188.575219,143.018221 C185.387825,176.333914 182.853254,193.857115 180.971504,195.587823 C179.089753,197.318532 160.586872,207.779797 125.46286,226.971618 L125.46286,212.240596 C135.407718,200.148321 142.549354,193.327574 146.887767,191.778354 C151.22618,190.229134 155.909362,187.967989 160.937312,184.994919 L162.894882,147.474243 Z" id="Path-17" fill="#FEDBC2"></path>
                <g id="Group-14" transform="translate(24.000000, 195.000000)">
                    <path d="M155.327135,0.794957132 C159.403386,9.83756816 161.441512,15.9522591 161.441512,19.1390298 C161.441512,23.9191859 160.441354,36.8008297 156.024512,41.4160329 C151.60767,46.031236 148.420668,51.5025242 137.837925,56.743435 C127.255183,61.9843459 87.9580959,75.5216255 84.9416141,77.1586272 C82.9306263,78.2499616 81.7875556,78.2499616 81.5124019,77.1586272 L81.5124019,63.2399373 C79.0188513,58.6477023 75.741136,55.6771568 71.6792561,54.3283008 C67.6173762,52.9794449 62.7996358,52.3286811 57.226035,52.3760094 C56.5935993,52.997309 55.1292067,54.9632886 52.8328572,58.2739481 C50.5365077,61.5846075 47.697275,69.1190839 44.3151591,80.877377 L39.6491476,92.934952 C38.2492514,85.624125 37.2043172,79.8858032 36.5143452,75.7199867 C35.4793871,69.4712619 33.5841679,63.2030491 29.172198,56.743435 C24.760228,50.283821 19.5353253,49.4555762 14.8505217,49.8696986 C10.1657182,50.283821 8.3011232,53.511888 5.22130508,56.743435 C2.14148696,59.9749821 3.98728982,73.4398773 5.22130508,77.1586272 C6.04398192,79.6377937 6.55484892,82.0886562 6.7539061,84.5112144 C2.82948132,82.5894857 0.867268927,80.1386233 0.867268927,77.1586272 C0.867268927,72.6886329 0.867268927,58.7869031 0.867268927,54.3283008 C0.867268927,51.3558994 5.5283532,47.05181 14.8505217,41.4160329 L96.5877978,47.6598856 L101.481165,45.7091507 L120.304457,27.4468629 L109.940403,26.9109464 L155.327135,0.794957132 Z" id="Path-31" fill="#194F6A"></path>
                    <path d="M35.0053326,48.384768 C38.051451,52.500327 39.5745102,55.6269293 39.5745102,57.7645747 C39.5745102,59.9022202 40.2321889,63.4422846 41.5475462,68.384768 C44.1101705,63.6454003 45.3914827,61.2757165 45.3914827,61.2757165 C45.3914827,61.2757165 46.1903564,56.3999524 43.8689513,54.0227092 C42.3213479,52.4378805 39.3668083,50.5585667 35.0053326,48.384768 Z" id="Path-34" fill="#0E374C"></path>
                    <polyline id="Path-35" stroke="#124056" stroke-width="3" points="42.6020705 62.5898487 55.148039 48.0119665 70.5245911 48.0119665 82.3367409 53.4997316 87.6428071 62.5898487 85.0288738 77.0722815"></polyline>
                    <path d="M6.40603861,83.7846728 L1.44976627,79.1145079 L1.44976627,52.7162555 L7.36004786,47.2619304 C13.7368105,46.1257698 18.5537238,45.5576895 21.8107878,45.5576895" id="Path-33" stroke="#0E374C" stroke-width="2"></path>
                </g>
                <polygon id="Path-37" fill="#DBDBDB" points="162.08607 123.474038 162.08607 147.199177 159.583029 147.199177"></polygon>
                <g id="eye" transform="translate(124.000000, 40.000000)">
                    <g transform="translate(0.000000, 3.000000)">
                        <circle id="Oval-4" fill="#FFFFFF" cx="5" cy="5" r="5"></circle>
                        <ellipse id="Oval-6" fill="#184D67" cx="4.5" cy="6" rx="3.5" ry="3"></ellipse>
                        <ellipse id="Oval-4-Copy" fill="#FFFFFF" cx="5.5" cy="5" rx="1.5" ry="2"></ellipse>
                    </g>
                    <g id="eye-copy" transform="translate(26.000000, 0.000000)">
                        <circle id="Oval-4" fill="#FFFFFF" cx="5" cy="5" r="5"></circle>
                        <ellipse id="Oval-6" fill="#184D67" cx="4.5" cy="6" rx="3.5" ry="3"></ellipse>
                        <ellipse id="Oval-4-Copy" fill="#FFFFFF" cx="5.5" cy="5" rx="1.5" ry="2"></ellipse>
                    </g>
                </g>
            </g>
        </g>
    </g>
</svg>