<?xml version="1.0" encoding="UTF-8"?>
<svg width="44px" height="25px" viewBox="0 0 44 25" version="1.1" xmlns="http://www.w3.org/2000/svg" xmlns:xlink="http://www.w3.org/1999/xlink">
    <!-- Generator: Sketch 51.3 (57544) - http://www.bohemiancoding.com/sketch -->
    <title>字體-iOS</title>
    <desc>Created with Sketch.</desc>
    <defs></defs>
    <g id="Page-1" stroke="none" stroke-width="1" fill="none" fill-rule="evenodd">
        <g id="Superbil-LandingPage" transform="translate(-435.000000, -3734.000000)" fill-rule="nonzero">
            <g id="footer" transform="translate(0.000000, 3594.000000)">
                <g id="內容" transform="translate(296.000000, 128.000000)">
                    <g id="字體-iOS" transform="translate(139.000000, 12.000000)">
                        <g id="i-41259" transform="translate(0.000000, 7.000000)" fill="#FFFFFF">
                            <path d="M2.55461538,4.61688312 C2.54847076,4.42258659 2.42867366,4.25066997 2.25,4.17974026 C2.15147444,4.12319589 2.05735473,4.05911353 1.96846154,3.98805195 C1.54384615,3.75428571 1.18846154,3.92493506 0.835384615,4.18207792 C0.748336604,4.39654224 0.687875371,4.62111254 0.655384615,4.85064935 C0.655384615,5.39766234 0.655384615,5.94233766 0.655384615,6.48701299 C0.655384615,6.66935065 0.745384615,6.86337662 0.703846154,7.02935065 C0.597692308,7.44545455 0.669230769,7.8638961 0.636923077,8.28 C0.604615385,8.6961039 0.722307692,9.05376623 0.657692308,9.44883117 C0.636923077,9.57038961 0.777692308,9.72 0.844615385,9.85324675 C0.800769231,9.88831169 0.673846154,9.94207792 0.671538462,9.99818182 C0.652595467,10.3691237 0.659535807,10.7409577 0.692307692,11.1109091 C0.692307692,11.2044156 0.759230769,11.2698701 0.72,11.3984416 C0.588461538,11.8379221 0.500769231,12.2914286 0.823846154,12.7075325 C0.846923077,12.7355844 0.789230769,12.8314286 0.768461538,12.8945455 L0.895384615,12.9109091 C0.916153846,12.9109091 0.950769231,12.9272727 0.950769231,12.9366234 C0.950769231,13.0114286 0.936923077,13.0090909 0.893076923,12.9366234 C0.874615385,12.9085714 0.821538462,12.9038961 0.782307692,12.8898701 C0.743076923,12.8758442 0.666923077,12.9179221 0.666923077,12.9342857 C0.648461538,13.3457143 0.639230769,13.7571429 0.625384615,14.1685714 C0.611538462,14.58 0.6,15.0031169 0.583846154,15.4215584 C0.582101678,15.466723 0.571922012,15.5111434 0.553846154,15.5524675 C0.46928683,15.7890233 0.361029537,16.0161829 0.230769231,16.2303896 C0.0369230769,16.4781818 0.0761538462,16.7657143 0.0276923077,17.0322078 C-0.0207692308,17.2987013 0.306923077,17.7849351 0.565384615,17.8831169 C1.00472752,18.0529511 1.50202302,17.9258444 1.80923077,17.5651948 C1.88313492,17.4769071 1.9430778,17.3775449 1.98692308,17.2706494 C2.13692308,16.8779221 2.49923077,16.545974 2.33769231,16.0574026 C2.33769231,16.0293506 2.4,15.9802597 2.40230769,15.9381818 C2.43230769,15.5314286 2.71153846,15.1620779 2.58923077,14.7319481 C2.67844493,14.5159315 2.69625527,14.2764696 2.64,14.0493506 C2.59417798,13.8311785 2.58481726,13.6067646 2.61230769,13.3854545 C2.67,13.0979221 2.66538462,12.8501299 2.47384615,12.6841558 C2.54769231,12.5181818 2.67,12.3802597 2.64692308,12.2774026 C2.57076923,11.9477922 2.69076923,11.6345455 2.67692308,11.3096104 C2.62382997,10.991167 2.61916053,10.666368 2.66307692,10.3464935 C2.71384615,10.1548052 2.54307692,10.072987 2.41384615,9.94675325 C2.49230769,9.69662338 2.57307692,9.43480519 2.64461538,9.17532468 C2.47615385,8.66337662 2.58,8.13038961 2.55,7.60909091 C2.51538462,7.00831169 2.68615385,6.39818182 2.61461538,5.78571429 C2.76923077,5.37662338 2.52461538,5.01194805 2.55461538,4.61688312 Z M0.33,17.2168831 C0.319370585,17.1826448 0.319370585,17.1459267 0.33,17.1116883 C0.33,17.1116883 0.385384615,17.0953247 0.39,17.1116883 C0.408229295,17.1497326 0.42440693,17.188751 0.438461538,17.2285714 C0.394615385,17.2192208 0.343846154,17.2332468 0.33,17.2168831 Z M1.96846154,4.01142857 C1.97072585,4.04411565 1.97072585,4.07692331 1.96846154,4.10961039 C1.96213766,4.13010113 1.95194943,4.14915444 1.93846154,4.16571429 C1.92230769,4.13532468 1.88769231,4.09558442 1.89461538,4.07922078 C1.91244164,4.05003337 1.9380382,4.02653523 1.96846154,4.01142857 Z M1.93846154,10.7532468 L1.93846154,10.8093506 C1.92230769,10.8093506 1.89923077,10.821039 1.89230769,10.8093506 C1.88384178,10.7933621 1.87836523,10.7759265 1.87615385,10.7579221 L1.93846154,10.7532468 Z M1.84615385,9.97948052 C1.81615385,9.99818182 1.78846154,10.0192208 1.76076923,10.0402597 L1.76076923,9.94207792 L1.84615385,9.97948052 Z M1.76769231,11.541039 C1.74292732,11.5496244 1.71743535,11.5558845 1.69153846,11.5597403 C1.69153846,11.5597403 1.69153846,11.5316883 1.67538462,11.5176623 L1.76769231,11.541039 Z M1.61538462,6.92649351 C1.63376285,6.91829023 1.65469868,6.91829023 1.67307692,6.92649351 C1.69615385,6.96155844 1.72615385,7.0012987 1.72153846,7.0387013 C1.71692308,7.0761039 1.68461538,7.11818182 1.66615385,7.15792208 L1.50461538,7.1438961 L1.66846154,7.1438961 C1.63615385,7.10883117 1.59,7.08077922 1.57846154,7.0387013 C1.56692308,6.99662338 1.59230769,6.96623377 1.61538462,6.92649351 Z M1.65,13.1096104 L1.62,13.1563636 L1.61538462,13.0909091 L1.65,13.1096104 Z M1.56461538,6.39584416 C1.57615385,6.41922078 1.54153846,6.46597403 1.52769231,6.50103896 C1.48846154,6.48 1.42846154,6.46831169 1.41923077,6.43792208 C1.41,6.40753247 1.44692308,6.35844156 1.46307692,6.3187013 C1.49538462,6.34207792 1.54384615,6.36077922 1.56,6.39584416 L1.56461538,6.39584416 Z M1.41461538,4.29194805 C1.44923077,4.29194805 1.48846154,4.31766234 1.52307692,4.33402597 C1.50230769,4.36207792 1.48384615,4.41116883 1.45846154,4.41350649 C1.43307692,4.41584416 1.38461538,4.38545455 1.34769231,4.36909091 C1.36615385,4.34103896 1.38461538,4.29194805 1.41,4.28961039 L1.41461538,4.29194805 Z M0.775384615,9.46051948 L0.800769231,9.41376623 L0.819230769,9.46519481 L0.775384615,9.46051948 Z M0.860769231,7.87558442 C0.860769231,7.84051948 0.823846154,7.79376623 0.837692308,7.77038961 C0.851538462,7.74701299 0.902307692,7.72597403 0.936923077,7.70727273 L0.966923077,7.82181818 C0.923076923,7.84051948 0.897692308,7.85922078 0.860769231,7.87558442 Z M0.969230769,5.32987013 C1.00846154,5.30415584 1.04538462,5.26207792 1.08461538,5.26441558 C1.12384615,5.26675325 1.15384615,5.30883117 1.19076923,5.33454545 C1.15153846,5.35792208 1.11230769,5.39766234 1.07538462,5.4 C1.03846154,5.40233766 1.00384615,5.35324675 0.969230769,5.32987013 Z M1.2,5.94 C1.24645318,5.90149902 1.29765171,5.86928083 1.35230769,5.84415584 C1.36384615,5.89558442 1.38923077,5.95168831 1.37538462,5.96103896 C1.32759784,5.99561186 1.27658545,6.02536406 1.22307692,6.04987013 C1.20692308,6.01246753 1.17923077,5.95636364 1.19307692,5.94 L1.2,5.94 Z M1.35461538,10.8654545 C1.35461538,10.8654545 1.32923077,10.8350649 1.31769231,10.821039 C1.34927711,10.8036449 1.38252475,10.7895466 1.41692308,10.778961 C1.41692308,10.778961 1.44461538,10.807013 1.45615385,10.8233766 C1.42108253,10.8401135 1.38482821,10.8541785 1.34769231,10.8654545 L1.35461538,10.8654545 Z M1.56,11.138961 L1.46076923,11.0781818 C1.47461538,11.0594805 1.49538462,11.0244156 1.5,11.0267532 C1.5359043,11.0455354 1.57059003,11.0666171 1.60384615,11.0898701 L1.56,11.138961 Z M1.60846154,14.1779221 C1.60846154,14.1779221 1.64769231,14.1358442 1.65923077,14.1405195 C1.73769231,14.1732468 1.81153846,14.2106494 1.87615385,14.241039 C1.87615385,14.3041558 1.87615385,14.3415584 1.85769231,14.3485714 C1.83923077,14.3555844 1.74923077,14.4046753 1.74,14.392987 C1.68730279,14.3291776 1.6409259,14.2602748 1.60153846,14.1872727 L1.60846154,14.1779221 Z M2.00538462,16.0480519 C1.9859871,16.0588657 1.96247444,16.0588657 1.94307692,16.0480519 C1.87384615,15.9966234 1.80923077,15.9405195 1.73769231,15.8797403 C1.88076923,15.7535065 1.96846154,15.8236364 2.02384615,15.9335065 C2.03076923,15.9638961 2.01,16.012987 1.99846154,16.0480519 L2.00538462,16.0480519 Z M1.96615385,7.90597403 C1.96615385,7.90597403 1.96615385,7.87792208 1.95,7.8638961 L2.04461538,7.88727273 C2.0171289,7.89742161 1.98840102,7.90371371 1.95923077,7.90597403 L1.96615385,7.90597403 Z M2.17846154,10.8116883 L2.23153846,10.778961 L2.28923077,10.8046753 L2.20846154,10.8607792 L2.17846154,10.8116883 Z M2.35615385,11.6696104 C2.33769231,11.6696104 2.31230769,11.6836364 2.30538462,11.6696104 C2.29846154,11.6555844 2.28923077,11.6322078 2.28230769,11.6111688 L2.36769231,11.6111688 C2.35615385,11.6251948 2.35384615,11.6462338 2.34923077,11.6696104 L2.35615385,11.6696104 Z M2.64230769,9.16597403 C2.43,9.06779221 2.37,9.37402597 2.15769231,9.35064935 C2.13923077,9.1612987 2.21769231,9.05844156 2.40461538,9.06779221 C2.48662183,9.08657419 2.56473253,9.11980675 2.63538462,9.16597403 L2.64230769,9.16597403 Z" id="Shape"></path>
                            <path d="M2.70230769,1.2974026 C2.63923307,1.26893022 2.59205999,1.21334129 2.57373954,1.14589741 C2.55541908,1.07845353 2.56787673,1.00624305 2.60769231,0.949090909 C2.69076923,0.794805195 2.56615385,0.715324675 2.51076923,0.598441558 C2.37230769,0.245454545 2.03076923,0.194025974 1.74,0.100519481 C1.51504437,0.0211241956 1.26503802,0.0823803818 1.10076923,0.257142857 C1.00634339,0.320365845 0.901669829,0.366260709 0.791538462,0.392727273 C0.510688098,0.515082185 0.33673969,0.803762522 0.357692308,1.11272727 C0.357692308,1.20155844 0.429230769,1.30909091 0.399230769,1.37688312 C0.24,1.74857143 0.466153846,2.01974026 0.646153846,2.26987013 C0.88603879,2.55730863 1.24423239,2.71540559 1.61538462,2.69766234 C2.12538462,2.71168831 2.66769231,2.19974026 2.79230769,1.67844156 C2.82461538,1.54519481 2.84076923,1.38623377 2.70230769,1.2974026 Z M1.19769231,1.63636364 C1.18153846,1.59896104 1.16538462,1.5638961 1.15384615,1.52883117 C1.17039526,1.51741114 1.1882092,1.50799621 1.20692308,1.50077922 C1.221986,1.53425334 1.2350857,1.56859876 1.24615385,1.60363636 C1.24615385,1.60363636 1.21384615,1.63636364 1.19769231,1.63636364 Z M1.15384615,1.19688312 C1.11,1.17818182 1.08923077,1.10337662 0.994615385,0.963116883 L1.52538462,1.11974026 C1.40538462,1.29506494 1.27153846,1.24831169 1.15384615,1.19688312 Z M2.05153846,1.52415584 C2.0761572,1.48941964 2.12130072,1.47668374 2.16010068,1.49352825 C2.19890065,1.51037276 2.2209298,1.55227082 2.21307692,1.59428571 C2.20193657,1.67799135 2.18497124,1.76079495 2.16230769,1.84207792 C2.11215852,1.77952287 2.0681068,1.71219571 2.03076923,1.64103896 C2.01739128,1.60138882 2.02430794,1.55759827 2.04923077,1.52415584 L2.05153846,1.52415584 Z M2.36307692,1.8561039 C2.29623254,1.86075339 2.22915207,1.86075339 2.16230769,1.8561039 L2.35153846,1.78597403 C2.37,1.78597403 2.39307692,1.78597403 2.41384615,1.78597403 C2.39538462,1.80935065 2.37923077,1.85376623 2.36076923,1.8561039 L2.36307692,1.8561039 Z M2.41615385,0.815844156 C2.41615385,0.839220779 2.34923077,0.839220779 2.31461538,0.850909091 C2.31461538,0.797142857 2.31461538,0.724675325 2.34692308,0.691948052 C2.38837982,0.65475104 2.43714134,0.626866884 2.49,0.61012987 C2.46844812,0.680095211 2.44302324,0.748775401 2.41384615,0.815844156 L2.41615385,0.815844156 Z" id="Shape"></path>
                        </g>
                        <g id="O-41239" transform="translate(6.000000, 0.000000)">
                            <polygon id="Shape" fill="#231815" points="7.49282051 0.471698113 7.49282051 0.471698113 7.46846154 0.455188679"></polygon>
                            <polygon id="Shape" fill="#231815" points="7.48551282 0.742924528 7.48551282 0.731132075 7.48551282 0.731132075 7.48551282 0.747641509"></polygon>
                            <path d="M18.7564103,13.4221698 C18.7235096,13.146357 18.7235096,12.867794 18.7564103,12.5919811 C18.7870545,12.3119557 18.7689396,12.0289363 18.7028205,11.754717 C18.6003489,11.4445557 18.5501757,11.1204312 18.5542308,10.7948113 C18.5298718,10.4410377 18.4592308,10.1037736 18.4105128,9.75707547 C18.3715385,9.4740566 18.1498718,9.21462264 18.2911538,8.89858491 C18.3155128,8.84198113 18.2448718,8.71462264 18.1815385,8.66273585 C18.0524359,8.54245283 18.0914103,8.42688679 18.1133333,8.27830189 C18.1352564,8.12971698 18.0475641,8.12971698 17.9452564,8.14150943 C17.9918435,7.8054508 17.9447459,7.46344366 17.8088462,7.1509434 C17.6827193,6.74771626 17.5272446,6.35364791 17.3435897,5.97169811 C17.1365385,5.61556604 17.1341026,5.13915094 16.7126923,4.9009434 C16.6420513,4.3490566 16.2255128,4.00471698 15.8869231,3.61556604 C15.8138462,3.53066038 15.7797436,3.37971698 15.6189744,3.48820755 C15.6166771,3.38312221 15.6069104,3.27831467 15.5897436,3.1745283 C15.5568035,3.03540048 15.4486993,2.9244154 15.3071795,2.88443396 C15.1805128,2.84198113 14.9905128,2.73113208 14.9832051,2.64858491 C14.9515385,2.25707547 14.5691026,2.21933962 14.3644872,2.01179245 C14.0916667,1.83018868 13.6702564,1.84433962 13.5679487,1.4245283 C13.5484615,1.34198113 13.3779487,1.29009434 13.2707692,1.23584906 C12.9029487,1.05660377 12.54,0.875 12.1624359,0.70990566 C11.9560979,0.586563684 11.7254624,0.50623761 11.4852564,0.474056604 C11.0370513,0.471698113 10.6741026,0.235849057 10.2307692,0.235849057 C9.98717949,0.235849057 9.74358974,0.125 9.45615385,0.176886792 C9.17352948,0.198312136 8.88934884,0.190405525 8.60846154,0.153301887 C8.53551552,0.149934761 8.4628098,0.163690166 8.39653846,0.193396226 C8.15408961,0.30010825 7.88716356,0.343994932 7.62192308,0.320754717 C7.58538462,0.320754717 7.54153846,0.405660377 7.50012821,0.45754717 C7.64871795,0.549528302 7.54641026,0.643867925 7.48794872,0.738207547 C7.42948718,0.83254717 7.38807692,0.922169811 7.33935897,1.01650943 C7.34049862,1.02116189 7.34049862,1.02600793 7.33935897,1.03066038 C7.23948718,1.11792453 7.13961538,1.18632075 7.04217949,1.01179245 L7.06166667,1.03301887 L7.04948718,1.01415094 C7.00320513,0.922169811 6.95448718,0.83254717 6.90820513,0.742924528 C6.71739959,0.721630492 6.52500993,0.716894662 6.33333333,0.728773585 C6.06538462,0.764150943 5.81448718,0.851415094 5.75846154,1.16981132 C5.72192308,1.37971698 5.53679487,1.34669811 5.39064103,1.375 C5.40022996,1.36599866 5.4069869,1.35454976 5.41012821,1.34198113 C5.41681515,1.32366863 5.41681515,1.30368986 5.41012821,1.28537736 C4.98384615,1.28537736 4.80358974,1.58490566 4.655,1.90566038 C4.41141026,1.83962264 4.25551282,2.00471698 4.10448718,2.14150943 C3.8925641,2.34669811 3.61730769,2.55424528 3.58564103,2.8490566 C3.56128205,3.04481132 3.56615385,3.13915094 3.34205128,3.17924528 C3.28115385,3.17924528 3.22512821,3.31603774 3.20076923,3.4009434 C3.17641026,3.48584906 3.21782051,3.58962264 3.20076923,3.67688679 C3.15205128,3.84198113 3.04,3.89386792 2.87435897,3.79009434 C2.84269231,3.77122642 2.78423077,3.79009434 2.70628205,3.79009434 C2.3774359,4.32783019 2.14358974,4.93396226 1.81961538,5.49528302 C1.67991075,5.75513687 1.56258963,6.02570895 1.46884615,6.30424528 C1.32920324,6.55201312 1.24379447,6.82498588 1.21794872,7.10613208 C1.25448718,7.45990566 0.974358974,7.65801887 0.911025641,7.94339623 C0.906170194,7.96674686 0.906170194,7.99080031 0.911025641,8.01415094 C0.953649974,8.11848543 0.975151598,8.22978356 0.974358974,8.34198113 C0.95,8.43160377 0.730769231,8.4245283 0.784358974,8.59198113 C0.847692308,8.59198113 0.911025641,8.59198113 0.974358974,8.59198113 C1.01110412,8.58288866 1.05011444,8.58959492 1.08138081,8.61037922 C1.11264717,8.63116353 1.13312644,8.66400297 1.1375641,8.7004717 L0.786794872,8.60377358 C0.811153846,8.70990566 0.896410256,8.86556604 0.850128205,8.91981132 C0.693155608,9.12547523 0.603240542,9.37186519 0.591923077,9.62735849 C0.545641026,10.0849057 0.428717949,10.5377358 0.348333333,11.0212264 C0.306923077,11.0849057 0.779487179,11.1037736 0.401923077,11.2429245 C0.379978217,11.2523839 0.363173071,11.2703677 0.355641026,11.2924528 C0.338589744,11.6438679 0.146153846,11.9599057 0.170512821,12.3231132 C0.197307692,12.7216981 0.170512821,13.125 0.170512821,13.5259434 C0.170512821,13.9268868 0.0925641026,14.3042453 0.197307692,14.6533019 C0.321538462,15.0683962 0.0998717949,15.4339623 0.165641026,15.8325472 C0.192435897,15.990566 0.192435897,16.1533019 0.204615385,16.3254717 L0.718589744,16.4221698 L0.367820513,16.5589623 C0.304236822,16.7535379 0.333715503,16.96544 0.448205128,17.1367925 C0.501249124,17.3289184 0.514495077,17.5293095 0.487179487,17.7264151 C0.487179487,17.7476415 0.501794872,17.7806604 0.518846154,17.7877358 C0.789230769,17.8962264 0.716153846,18.129717 0.762435897,18.3349057 C0.793097695,18.6127199 0.875634522,18.8828293 1.00602564,19.1320755 C1.12051282,19.3160377 1.17653846,19.5141509 1.27397436,19.6957547 C1.52374081,20.1776213 1.80021206,20.6460712 2.10217949,21.0990566 C2.22884615,21.2853774 2.43346154,21.4056604 2.52115385,21.6438679 C2.60884615,21.8820755 2.90115385,21.879717 3.00833333,22.115566 C3.08871795,22.2783019 3.35179487,22.3514151 3.53448718,22.4669811 C3.56858974,22.4410377 3.60025641,22.3962264 3.63923077,22.3915094 C3.68821828,22.3926317 3.73639068,22.40389 3.78051282,22.4245283 C3.76102564,22.4575472 3.74884615,22.5141509 3.71961538,22.5235849 C3.6564658,22.5372165 3.59186955,22.54355 3.52717949,22.5424528 C3.63539599,22.7222413 3.76995744,22.8858925 3.92666667,23.0283019 C4.39485723,23.3892262 4.89821229,23.7051806 5.42961538,23.9716981 C5.58307692,24.0377358 5.73166667,24.1108491 5.88025641,24.1839623 C6.02884615,24.2570755 6.12384615,24.3278302 6.28217949,24.2334906 C6.50628205,24.0966981 6.45512821,24.4882075 6.67192308,24.4268868 C6.88871795,24.365566 7.04705128,24.7311321 7.3174359,24.5872642 C7.53910256,24.7028302 7.75346154,24.8679245 8.02628205,24.6933962 C8.04820513,24.6792453 8.13589744,24.7146226 8.14564103,24.7429245 C8.21628205,24.9551887 8.38923077,24.9528302 8.56217949,24.9245283 C8.94705128,24.8608491 9.38551282,25.1108491 9.72653846,24.75 C9.76558976,24.7275938 9.81415383,24.7275938 9.85320513,24.75 C10.1723077,25.0306604 10.5157692,24.9339623 10.8714103,24.8301887 C11.1685897,24.7429245 11.4755128,24.6839623 11.7775641,24.615566 C12.5083333,24.4481132 13.2391026,24.2334906 13.7896154,23.6721698 C13.9065385,23.6721698 14.0648718,23.7075472 14.1355128,23.6485849 C14.6226923,23.2617925 15.1780769,22.9669811 15.5142308,22.4575472 L15.4338462,21.9339623 L15.7553846,22.2193396 C15.9968699,22.0934646 16.1874088,21.8923604 16.2961538,21.6485849 C16.3577444,21.4506385 16.4680893,21.2701464 16.6176923,21.1226415 C16.9855128,20.8349057 17.0902564,20.4150943 17.2802564,20.0424528 C17.3392396,19.8694986 17.4108739,19.7008326 17.4946154,19.5377358 C17.8064103,19.1108491 17.8819231,18.5943396 18.1230769,18.1367925 C18.0719231,17.879717 18.3666667,17.6650943 18.2229487,17.3962264 C18.415524,17.0802274 18.483041,16.7072746 18.4129487,16.3466981 C18.6711538,16.0943396 18.5761538,15.7759434 18.595641,15.4764151 C18.6073249,15.2679518 18.6350081,15.0606188 18.6784615,14.8561321 C18.7271795,14.6391509 18.5444872,14.4363208 18.7052564,14.2004717 C18.8173077,14.0353774 18.5542308,14.120283 18.4616667,14.0117925 C18.6765983,13.8933622 18.7938252,13.6588547 18.7564103,13.4221698 Z M0.531025641,11.875 C0.542455768,11.89097 0.553025432,11.9075015 0.562692308,11.9245283 L0.543205128,11.9764151 C0.523590432,11.9587106 0.507129709,11.9379916 0.494487179,11.9150943 C0.494487179,11.9150943 0.518846154,11.8891509 0.531025641,11.875 Z M0.397051282,12.5825472 C0.377564103,12.5542453 0.355641026,12.5283019 0.338589744,12.5 L0.384871795,12.4646226 L0.418974359,12.5212264 L0.397051282,12.5825472 Z M0.487179487,15.9410377 C0.484641171,15.9230395 0.484641171,15.9047907 0.487179487,15.8867925 C0.487179487,15.8867925 0.513974359,15.8867925 0.528589744,15.8867925 L0.545641026,15.9386792 L0.487179487,15.9410377 Z M16.9294872,6.43632075 C16.9441026,6.45518868 16.9294872,6.51179245 16.9075641,6.54716981 C16.885641,6.58254717 16.8661538,6.54716981 16.8247436,6.55896226 C16.7756245,6.5228376 16.7314269,6.48083697 16.6932051,6.43396226 C16.6761538,6.40801887 16.6932051,6.35613208 16.7126923,6.31839623 C16.7317688,6.30874904 16.7545133,6.30874904 16.7735897,6.31839623 C16.8334093,6.35013666 16.8883442,6.38983014 16.9367949,6.43632075 L16.9294872,6.43632075 Z M16.6858974,5.67924528 L16.7857692,5.75943396 C16.7385536,5.78798364 16.6888313,5.81244933 16.6371795,5.83254717 C16.6371795,5.83254717 16.5982051,5.77122642 16.5762821,5.73584906 L16.6858974,5.67924528 Z M16.4423077,8.57075472 L16.4934615,8.58962264 C16.4934615,8.60377358 16.4934615,8.62735849 16.4934615,8.63207547 C16.4759319,8.6368024 16.4574015,8.6368024 16.4398718,8.63207547 L16.4423077,8.57075472 Z M16.2279487,6.13207547 L16.2084615,6.18867925 L16.1621795,6.16745283 L16.2279487,6.13207547 Z M16.1280769,7.56839623 C16.1426923,7.56839623 16.1767949,7.61792453 16.1987179,7.64386792 L16.0744872,7.69339623 C16.0597809,7.67907634 16.0467137,7.66326149 16.0355128,7.64622642 C16.0596216,7.61479429 16.0914328,7.58966768 16.1280769,7.57311321 L16.1280769,7.56839623 Z M15.5142308,5.66037736 L15.5824359,5.81839623 C15.5410256,5.81839623 15.4898718,5.85141509 15.460641,5.83726415 C15.4304458,5.80996437 15.4143747,5.77106346 15.4167949,5.73113208 C15.4192308,5.69811321 15.4679487,5.67924528 15.5142308,5.66037736 Z M15.3315385,4.24528302 C15.334992,4.26558652 15.334992,4.28630027 15.3315385,4.30660377 C15.3315385,4.30660377 15.3047436,4.31839623 15.2876923,4.32311321 C15.2791236,4.30366745 15.2741756,4.28290729 15.2730769,4.26179245 C15.2730769,4.26179245 15.3144872,4.23113208 15.3315385,4.22641509 L15.3315385,4.24528302 Z M15.3461538,4.71698113 L15.3071795,4.77122642 C15.3071795,4.73113208 15.3071795,4.69339623 15.319359,4.65566038 L15.3461538,4.71698113 Z M15.1025641,5.61320755 C15.1025641,5.61320755 15.1244872,5.64150943 15.1342308,5.65566038 C15.1439744,5.66981132 15.0855128,5.68867925 15.0830769,5.68396226 C15.0649101,5.66387127 15.0493659,5.641692 15.0367949,5.61792453 C15.0610484,5.60667626 15.0879289,5.60179632 15.1147436,5.60377358 L15.1025641,5.61320755 Z M14.7858974,5.05424528 L14.6860256,5.11556604 C14.6975512,5.09125118 14.7105658,5.06762424 14.725,5.04481132 C14.725,5.04481132 14.7664103,5.0495283 14.7858974,5.05424528 Z M14.3498718,2.0259434 C14.3498718,2.14386792 14.3669231,2.29716981 14.1062821,2.23820755 L14.3498718,2.0259434 Z M13.1319231,2.68396226 C13.1465385,2.68396226 13.1684615,2.68396226 13.1757692,2.68396226 C13.1832071,2.70048248 13.1881302,2.71796011 13.1903846,2.73584906 L13.1124359,2.73584906 L13.1319231,2.68396226 Z M12.8323077,1.85613208 C12.8569941,1.88568735 12.8789989,1.9172511 12.8980769,1.9504717 C12.8980769,1.9504717 12.8664103,1.99764151 12.8566667,1.99292453 C12.8178702,1.98064054 12.7803543,1.96484759 12.7446154,1.94575472 L12.8323077,1.85613208 Z M12.1307692,1.10141509 C12.1819231,1.13679245 12.2330769,1.1745283 12.2891026,1.21933962 C12.2379487,1.24292453 12.1819231,1.28066038 12.1746154,1.27358491 C12.1384301,1.23252795 12.1088651,1.18640911 12.0869231,1.13679245 C12.0869231,1.13679245 12.1185897,1.0990566 12.1234615,1.10141509 L12.1307692,1.10141509 Z M11.1564103,2.10377358 C11.1564103,2.10377358 11.1223077,2.12735849 11.1028205,2.12971698 C11.0833333,2.13207547 11.0516667,2.11556604 11.0516667,2.10849057 C11.0516667,2 11.0662821,1.89386792 11.0735897,1.78537736 C11.0979487,1.88679245 11.1271795,1.99764151 11.1515385,2.10377358 L11.1564103,2.10377358 Z M10.7447436,1.68396226 C10.8665385,1.5754717 10.9420513,1.66037736 11.0175641,1.74764151 C11.0354263,1.76131551 11.0541365,1.77391771 11.0735897,1.78537736 L11.0102564,1.81132075 C10.900641,1.86084906 10.7910256,1.89622642 10.7325641,1.74764151 C10.7234894,1.72661604 10.7262516,1.70254622 10.7398718,1.68396226 L10.7447436,1.68396226 Z M10.520641,0.492924528 L10.5571795,0.554245283 L10.5011538,0.535377358 L10.520641,0.492924528 Z M9.38307692,0.964622642 L9.53166667,1.0990566 C9.4975641,1.12971698 9.45615385,1.19575472 9.43423077,1.18867925 C9.37889878,1.16722467 9.3302316,1.13229039 9.29294872,1.08726415 C9.29294872,1.08726415 9.33679487,1.01650943 9.37820513,0.95990566 L9.38307692,0.964622642 Z M8.32589744,0.919811321 C8.3624359,0.908018868 8.40871795,0.936320755 8.45012821,0.945754717 C8.42576923,0.978773585 8.40628205,1.02358491 8.37217949,1.04009434 C8.33807692,1.05660377 8.30153846,1.0259434 8.265,1.01650943 C8.28205128,0.976415094 8.29423077,0.922169811 8.32102564,0.91509434 L8.32589744,0.919811321 Z M7.98487179,1.86320755 C7.99948718,1.86320755 8.02628205,1.86320755 8.02628205,1.88443396 C8.02969715,1.90315702 8.02969715,1.92231468 8.02628205,1.94103774 C8.00923077,1.94103774 7.9824359,1.92924528 7.9824359,1.92216981 C7.97713449,1.89893092 7.97630869,1.87494422 7.98,1.85141509 L7.98487179,1.86320755 Z M7.66089744,1.14150943 C7.81435897,1.09669811 7.87769231,1.16037736 7.84115385,1.30424528 C7.79022913,1.44847379 7.73002584,1.589473 7.66089744,1.72641509 L7.66089744,1.14150943 Z M7.61217949,2.07311321 C7.66777301,2.10211256 7.72146484,2.13440666 7.77294872,2.16981132 L7.66820513,2.26415094 L7.55128205,2.0990566 C7.57076923,2.08490566 7.5975641,2.05660377 7.60730769,2.06132075 L7.61217949,2.07311321 Z M6.99102564,1.43160377 L6.97397436,1.48113208 L6.9374359,1.46462264 L6.99102564,1.43160377 Z M6.55012821,2.21933962 C6.58179487,2.24056604 6.61102564,2.26886792 6.64269231,2.29481132 L6.57692308,2.35849057 C6.55287253,2.32609315 6.53245801,2.29130535 6.51602564,2.25471698 C6.51602564,2.25471698 6.54525641,2.21698113 6.55012821,2.21933962 Z M5.26397436,1.48584906 C5.28102564,1.45283019 5.32487179,1.43160377 5.35897436,1.40330189 C5.39581984,1.4490869 5.42162074,1.50227227 5.43448718,1.55896226 C5.43448718,1.60613208 5.38089744,1.66509434 5.33461538,1.7004717 C5.2943384,1.70257042 5.25486789,1.68898242 5.225,1.66273585 C5.22456311,1.60173214 5.23786319,1.54136915 5.26397436,1.48584906 Z M5.16653846,2.49292453 C5.18624261,2.49436002 5.20537485,2.49999784 5.2225641,2.50943396 L5.20064103,2.55896226 L5.14461538,2.53301887 C5.15192308,2.51886792 5.15679487,2.49528302 5.16653846,2.49292453 Z M5.10076923,3.53773585 C5.10076923,3.58254717 5.10076923,3.625 5.10076923,3.66745283 C5.0845564,3.6687229 5.06826411,3.6687229 5.05205128,3.66745283 C5.05205128,3.625 5.05205128,3.58018868 5.05205128,3.53773585 L5.10076923,3.53773585 Z M4.9375641,2.12264151 C4.8425641,2.05424528 4.75487179,1.99056604 4.66474359,1.92924528 L4.76948718,1.91745283 C4.90589744,1.88679245 4.99602564,1.93160377 4.9375641,2.12264151 Z M4.33833333,2.52358491 C4.33833333,2.56603774 4.36269231,2.61084906 4.37730769,2.65330189 C4.34076923,2.66509434 4.28474359,2.69339623 4.275,2.68396226 C4.24877519,2.64727497 4.22901969,2.60662858 4.21653846,2.56367925 L4.33833333,2.52358491 Z M3.70012821,3.70283019 C3.90434525,3.85152166 4.04759514,4.06541699 4.10448718,4.30660377 C4.03141026,4.34433962 3.97538462,4.39386792 3.95589744,4.38207547 C3.72448718,4.22641509 3.65384615,4.02122642 3.70012821,3.69575472 L3.70012821,3.70283019 Z M4.08012821,4.84669811 L4.05576923,4.90801887 L3.99487179,4.82311321 L4.04602564,4.79009434 L4.08012821,4.84669811 Z M3.34935897,5.46933962 C3.36884615,5.46933962 3.38102564,5.49528302 3.39807692,5.50943396 L3.33230769,5.53301887 L3.29089744,5.49056604 C3.30064103,5.47641509 3.3225641,5.45990566 3.33961538,5.46226415 L3.34935897,5.46933962 Z M2.88410256,4.24528302 C2.90602564,4.23113208 2.95717949,4.26650943 2.99615385,4.27830189 C2.97423077,4.31603774 2.96205128,4.36792453 2.93038462,4.38207547 C2.89871795,4.39622642 2.85487179,4.36320755 2.81589744,4.35141509 C2.83782051,4.30896226 2.85,4.24528302 2.88410256,4.24528302 Z M2.70628205,6.66037736 C2.72089744,6.66037736 2.73064103,6.68632075 2.74038462,6.70283019 L2.71846154,6.75235849 L2.66,6.68396226 C2.67948718,6.66981132 2.69410256,6.6509434 2.70628205,6.65330189 L2.70628205,6.66037736 Z M2.72333333,8.15801887 C2.76961538,8.24764151 2.82564103,8.30660377 2.81346154,8.3490566 C2.80128205,8.39150943 2.71846154,8.40801887 2.66730769,8.43632075 C2.64538462,8.39858491 2.60153846,8.35613208 2.60884615,8.3254717 C2.6367366,8.26154503 2.67542829,8.20256205 2.72333333,8.1509434 L2.72333333,8.15801887 Z M2.27269231,7.28537736 C2.29112244,7.33922337 2.30497205,7.39443897 2.31410256,7.4504717 C2.31410256,7.4504717 2.23128205,7.49056604 2.21423077,7.47877358 C2.18057918,7.45087603 2.16030864,7.41076992 2.15820513,7.36792453 C2.16064103,7.33726415 2.21910256,7.31132075 2.27269231,7.27830189 L2.27269231,7.28537736 Z M2.33358974,8.91745283 C2.29217949,8.91745283 2.24346154,8.9504717 2.21179487,8.93867925 C2.18012821,8.92688679 2.17282051,8.87264151 2.15576923,8.83726415 C2.19717949,8.83726415 2.24589744,8.79481132 2.27512821,8.80660377 C2.30435897,8.81839623 2.31653846,8.87028302 2.33358974,8.91037736 L2.33358974,8.91745283 Z M2.11192308,8.09433962 C2.14358974,8.10849057 2.15820513,8.16037736 2.1825641,8.19575472 C2.14115385,8.19575472 2.0924359,8.23113208 2.05833333,8.21933962 C2.02423077,8.20754717 2.01448718,8.15801887 1.995,8.12264151 C2.03397436,8.10613208 2.08269231,8.0754717 2.11192308,8.08726415 L2.11192308,8.09433962 Z M1.92192308,9.40330189 C1.92192308,9.375 1.97307692,9.35377358 2.00230769,9.32783019 L2.07294872,9.49528302 C2.01935897,9.50943396 1.96333333,9.53066038 1.95846154,9.52122642 C1.93077995,9.48534723 1.91776719,9.44082988 1.92192308,9.39622642 L1.92192308,9.40330189 Z M2.02910256,12.6603774 C2.02635406,12.6769556 2.02058028,12.6929279 2.01205128,12.7075472 C2.01205128,12.7075472 1.97794872,12.6957547 1.97794872,12.6886792 C1.98089205,12.6724552 1.9857976,12.656623 1.9925641,12.6415094 C1.9925641,12.6415094 2.02910256,12.6462264 2.02910256,12.6533019 L2.02910256,12.6603774 Z M0.996282051,14.6084906 C1.05323503,14.5596609 1.11724276,14.5191396 1.18628205,14.4882075 C1.31051282,14.4575472 1.42987179,14.4481132 1.75141026,14.4033019 C1.41282051,14.6391509 1.11564103,14.6910377 1.10102564,14.9811321 C1.06448718,14.8584906 1.03038462,14.7311321 0.996282051,14.6014151 L0.996282051,14.6084906 Z M1.02307692,13.0235849 C1.02307692,13.0235849 1.02307692,12.9929245 1.04012821,12.9929245 C1.05717949,12.9929245 1.07179487,12.9929245 1.08884615,12.9929245 C1.10589744,12.9929245 1.08884615,13.0283019 1.07179487,13.0283019 C1.05489577,13.0276231 1.03831782,13.0236103 1.02307692,13.0165094 L1.02307692,13.0235849 Z M1.53461538,12.5188679 L1.58333333,12.5188679 L1.55410256,12.5731132 L1.53461538,12.5188679 Z M1.70512821,11.6485849 C1.72705128,11.6816038 1.73435897,11.754717 1.70512821,11.7712264 C1.67589744,11.7877358 1.56628205,11.8632075 1.53217949,11.8443396 C1.42494042,11.7706103 1.32613319,11.6860119 1.2374359,11.5919811 C1.48589744,11.4764151 1.6125641,11.5070755 1.70512821,11.6485849 Z M1.51025641,10.2334906 L1.39333333,10.1886792 L1.44205128,10.0801887 C1.48243926,10.092785 1.5203273,10.1119245 1.55410256,10.1367925 C1.55410256,10.1367925 1.52,10.1933962 1.50538462,10.2264151 L1.51025641,10.2334906 Z M1.32512821,8.69575472 C1.32999418,8.72781526 1.32999418,8.76039229 1.32512821,8.79245283 C1.32512821,8.81839623 1.28371795,8.83962264 1.26179487,8.86084906 C1.24607333,8.84768379 1.23215683,8.83262432 1.22038462,8.81603774 C1.20333333,8.78537736 1.18871795,8.75235849 1.17166667,8.72169811 L1.32512821,8.69575472 Z M0.952435897,12.1933962 C0.967051282,12.1933962 0.988974359,12.1933962 0.991410256,12.1933962 C0.999419832,12.2095946 1.00358148,12.227324 1.00358974,12.245283 L0.935384615,12.245283 L0.952435897,12.1933962 Z M0.796538462,12.5424528 C0.896410256,12.4882075 1.09128205,12.5212264 1.10346154,12.5990566 C1.10346154,12.634434 1.05230769,12.7122642 1.03525641,12.7099057 C0.951671673,12.6926469 0.87007175,12.6673647 0.791666667,12.634434 C0.772179487,12.634434 0.764871795,12.5990566 0.75025641,12.5801887 C0.763236961,12.5650392 0.778911034,12.5522595 0.796538462,12.5424528 Z M0.67474359,13.2075472 L0.708846154,13.2523585 L0.689358974,13.3018868 L0.635769231,13.2358491 L0.67474359,13.2075472 Z M0.694230769,15.1108491 L0.633333333,14.990566 C0.682664297,14.9692609 0.733069724,14.9503692 0.784358974,14.9339623 C0.784358974,14.9339623 0.820897436,14.9693396 0.818461538,14.9716981 C0.781923077,15.0235849 0.730769231,15.0683962 0.694230769,15.1179245 L0.694230769,15.1108491 Z M0.774615385,17.2570755 L0.794102564,17.1933962 C0.811153846,17.1933962 0.837948718,17.1933962 0.842820513,17.1933962 C0.853281544,17.2124519 0.859895292,17.2332635 0.862307692,17.254717 L0.774615385,17.2570755 Z M0.923205128,18.0165094 C0.923198143,17.997031 0.927344508,17.9777609 0.935384615,17.9599057 C0.935384615,17.9599057 0.967051282,17.9599057 0.984102564,17.9481132 L1.00115385,18.004717 L0.923205128,18.0165094 Z M1.10346154,16.5731132 C1.10346154,16.5542453 1.07666667,16.5330189 1.08153846,16.5141509 C1.08641026,16.495283 1.10833333,16.4811321 1.12294872,16.4669811 L1.14974359,16.5283019 L1.10346154,16.5731132 Z M1.2325641,14.9858491 C1.18966079,14.9904446 1.14636485,14.9904446 1.10346154,14.9858491 L1.23012821,14.9646226 L1.30076923,14.9528302 C1.27641026,14.9646226 1.25692308,14.990566 1.2325641,14.9929245 L1.2325641,14.9858491 Z M1.83179487,19.9150943 L1.86102564,19.879717 L1.86102564,19.9268868 L1.83179487,19.9150943 Z M1.83179487,19.5589623 L1.77576923,19.5400943 C1.79483459,19.5214868 1.81518034,19.5041515 1.83666667,19.4882075 C1.83666667,19.4882075 1.86346154,19.5117925 1.87807692,19.5235849 L1.83179487,19.5589623 Z M1.87807692,16.9316038 C1.81230769,16.9316038 1.75628205,16.8349057 1.69782051,16.7806604 C1.76570916,16.7322072 1.8403379,16.6932995 1.91948718,16.6650943 C1.96089744,16.6650943 2.01935897,16.7264151 2.12166667,16.7948113 C2.00717949,16.8561321 1.93410256,16.9363208 1.87320513,16.9268868 L1.87807692,16.9316038 Z M2.42128205,19.6226415 C2.40179487,19.6226415 2.36525641,19.5919811 2.36769231,19.5872642 C2.37914753,19.5520681 2.39732564,19.5192673 2.42128205,19.490566 C2.42128205,19.490566 2.46025641,19.504717 2.48217949,19.5141509 L2.42128205,19.6226415 Z M2.67948718,19.4056604 L2.755,19.3443396 L2.79641026,19.3962264 L2.73794872,19.4292453 L2.67948718,19.4056604 Z M2.89628205,20.2971698 L2.79397436,20.1768868 C2.82807692,20.1580189 2.86705128,20.120283 2.89384615,20.1273585 C2.92064103,20.134434 2.945,20.1839623 2.97179487,20.2146226 L2.89628205,20.2971698 Z M4.32858974,23.0613208 C4.32858974,23.0400943 4.30179487,23.0212264 4.30423077,23.0023585 C4.30666667,22.9834906 4.32615385,22.9669811 4.34076923,22.9481132 C4.34076923,22.9693396 4.36512821,22.990566 4.36512821,23.009434 C4.36512821,23.0283019 4.34076923,23.0448113 4.32858974,23.0613208 Z M4.53807692,22.6745283 C4.53807692,22.6415094 4.51128205,22.6014151 4.52589744,22.5801887 C4.55481328,22.5493828 4.58850758,22.5231248 4.62576923,22.5023585 C4.64282051,22.5353774 4.65987179,22.5683962 4.69153846,22.625 L4.53807692,22.6745283 Z M5.01064103,23.1132075 L4.95461538,23.0754717 C4.97354681,23.0625023 4.99515212,23.0536521 5.01794872,23.0495283 C5.035,23.0495283 5.05448718,23.0731132 5.07153846,23.0849057 L5.01064103,23.1132075 Z M6.42102564,22.7358491 C6.42102564,22.7358491 6.365,22.7193396 6.365,22.7099057 C6.36759195,22.6745354 6.37496246,22.6396469 6.38692308,22.6061321 L6.50141026,22.6627358 C6.47725723,22.6875968 6.45029288,22.7097486 6.42102564,22.7287736 L6.42102564,22.7358491 Z M6.80589744,23.3962264 C6.80589744,23.3962264 6.80589744,23.3632075 6.80589744,23.3443396 L6.86679487,23.3278302 L6.87897436,23.4127358 C6.85309392,23.4102932 6.82811547,23.4022317 6.80589744,23.3891509 L6.80589744,23.3962264 Z M7.59025641,24.0896226 C7.57303767,24.0961932 7.5538854,24.0961932 7.53666667,24.0896226 C7.52297299,24.0711157 7.516109,24.0486859 7.51717949,24.0259434 C7.51717949,23.9433962 7.53179487,23.8584906 7.53910256,23.7759434 C7.57218817,23.8472755 7.60066188,23.9205299 7.62435897,23.995283 C7.63166667,24.009434 7.60730769,24.0566038 7.59025641,24.0825472 L7.59025641,24.0896226 Z M7.54153846,23.7688679 L7.86307692,23.7146226 C7.79487179,23.990566 7.65115385,23.7712264 7.55128205,23.7617925 L7.54153846,23.7688679 Z M8.27230769,23.240566 C8.25383363,23.2443193 8.23475611,23.2443193 8.21628205,23.240566 L8.22846154,23.1745283 L8.27961538,23.1910377 C8.2674359,23.2075472 8.28205128,23.2287736 8.2625641,23.2334906 L8.27230769,23.240566 Z M9.04935897,24.8207547 C8.95923077,24.7334906 8.88371795,24.6933962 8.88128205,24.6485849 C8.88599858,24.5854613 8.91671957,24.5268217 8.96653846,24.4858491 C8.98846154,24.4693396 9.11025641,24.5188679 9.11025641,24.5424528 C9.09724389,24.635132 9.07354912,24.7261082 9.03961538,24.8136792 L9.04935897,24.8207547 Z M9.19307692,23.8113208 C9.17903445,23.8267364 9.15817022,23.8346412 9.13705128,23.8325472 C9.13705128,23.8325472 9.11269231,23.7900943 9.12,23.7830189 C9.13770966,23.7715366 9.15757074,23.7635241 9.17846154,23.759434 C9.17358974,23.7688679 9.19064103,23.7948113 9.18333333,23.8042453 L9.19307692,23.8113208 Z M10.8738462,23.0070755 L11.1174359,23.0518868 C10.9737179,23.1674528 10.9055128,23.125 10.8641026,23 L10.8738462,23.0070755 Z M11.2173077,24.3514151 C11.0005128,24.375 10.9883333,24.2264151 11.0321795,24.0966981 C11.0760256,23.9669811 11.2124359,24.0306604 11.3147436,24.0377358 C11.3077502,24.1006918 11.2955312,24.1630002 11.2782051,24.2240566 C11.2587297,24.2667509 11.234207,24.3071148 11.2051282,24.3443396 L11.2173077,24.3514151 Z M11.3269231,24.0023585 C11.2757692,23.8679245 11.2221795,23.7334906 11.1588462,23.5660377 C11.4487179,23.7051887 11.4487179,23.7099057 11.3171795,23.995283 L11.3269231,24.0023585 Z M11.7337179,24.2759434 C11.6989953,24.262294 11.6655765,24.245721 11.6338462,24.2264151 C11.6536296,24.2009942 11.6747695,24.1765899 11.6971795,24.1533019 C11.7215385,24.1792453 11.7507692,24.2051887 11.7726923,24.2334906 C11.7946154,24.2617925 11.7312821,24.2712264 11.7239744,24.2688679 L11.7337179,24.2759434 Z M11.8408974,23.0966981 C11.8019231,23.0966981 11.7361538,23.0377358 11.685,23 C11.6338462,22.9622642 11.6703846,22.9575472 11.6630769,22.9363208 C11.7044872,22.9198113 11.7507692,22.8867925 11.7897436,22.8891509 C11.8528399,22.9028368 11.9141292,22.9234086 11.9724359,22.9504717 C11.9188462,22.9858491 11.8847436,23.0636792 11.8311538,23.0801887 L11.8408974,23.0966981 Z M12.1064103,24.0566038 C12.0724783,24.0260012 12.0429799,23.9910932 12.0187179,23.9528302 C11.9773077,23.8632075 11.9578205,23.7712264 12.1283333,23.7334906 C12.16,23.7570755 12.2525641,23.8089623 12.2476923,23.8231132 C12.207721,23.9047837 12.1604468,23.9829117 12.1064103,24.0566038 Z M12.6885897,22.5400943 C12.6502945,22.5284027 12.6128589,22.5142195 12.5765385,22.4976415 C12.6114986,22.4793162 12.6482081,22.4643092 12.6861538,22.4528302 C12.6861538,22.4528302 12.7251282,22.4787736 12.7251282,22.495283 C12.7251282,22.5117925 12.6958974,22.5495283 12.6885897,22.5471698 L12.6885897,22.5400943 Z M13.7896154,23.6674528 C13.4802564,23.6816038 13.4778205,23.6674528 13.3925641,23.2948113 C13.5435897,23.1863208 13.560641,23.384434 13.655641,23.4056604 C13.750641,23.4268868 13.8553846,23.4646226 13.9528205,23.495283 C13.845641,23.5023585 13.8066667,23.5849057 13.7896154,23.6745283 L13.7896154,23.6674528 Z M13.989359,23.5 L14.0039744,23.5 L13.989359,23.5 Z M15.0733333,20.5377358 C15.0587179,20.5377358 15.0026923,20.5165094 14.9661538,20.504717 L15.0148718,20.3820755 L15.1269231,20.4245283 C15.118002,20.4678275 15.0997406,20.5088155 15.0733333,20.5448113 L15.0733333,20.5377358 Z M15.5605128,21.9528302 C15.5177161,21.9462057 15.4759682,21.9343171 15.4362821,21.9174528 L15.5629487,21.9174528 C15.5845307,21.9149921 15.6057688,21.9102467 15.6262821,21.9033019 C15.5897436,21.9339623 15.5897436,21.9693396 15.555641,21.9669811 L15.5605128,21.9528302 Z M15.6896154,20.5377358 L15.6896154,20.504717 L15.7261538,20.5259434 L15.6896154,20.5377358 Z M15.8162821,19.8490566 C15.8162821,19.8490566 15.7870513,19.8254717 15.77,19.8113208 L15.8747436,19.7688679 L15.9210256,19.8089623 C15.8861645,19.8268767 15.8494148,19.8411094 15.8114103,19.8514151 L15.8162821,19.8490566 Z M15.9039744,19.5424528 C15.8820513,19.3066038 15.8747436,19.2476415 15.8698718,19.1839623 L15.9673077,19.1839623 C15.9526923,19.2570755 15.9405128,19.3183962 15.8991026,19.5448113 L15.9039744,19.5424528 Z M16.1962821,19.1768868 C16.1788791,19.1404773 16.1650158,19.1025779 16.1548718,19.0636792 C16.1548718,19.0471698 16.1719231,19.0283019 16.1816667,19.009434 C16.2035897,19.0306604 16.2474359,19.0542453 16.245,19.0754717 C16.2425641,19.0966981 16.2084615,19.1462264 16.1914103,19.1792453 L16.1962821,19.1768868 Z M16.6834615,14.5778302 C16.5114724,14.7739095 16.4296429,15.0294876 16.4569231,15.2853774 C16.4569231,15.5212264 16.3789744,15.7570755 16.3862821,15.9929245 C16.3862821,16.3561321 16.2498718,16.7193396 16.4301282,17.0683962 C16.3034615,17.1014151 16.1865385,17.0966981 16.1524359,17.1462264 C16.0833573,17.2418915 16.0352729,17.3502554 16.0111538,17.4646226 C15.8552564,18.1226415 15.485,18.7075472 15.319359,19.3514151 C15.2779487,19.5117925 15.0489744,19.620283 14.985641,19.7806604 C14.7615385,20.3372642 14.2987179,20.7075472 13.9114103,21.134434 C13.5843038,21.5127318 13.1728835,21.8143139 12.7080769,22.0165094 C12.3329487,22.1698113 11.9919231,22.4056604 11.6192308,22.5731132 C11.4189625,22.6415795 11.2114456,22.6882504 11.0005128,22.7122642 C10.8494872,22.7429245 10.8397436,22.8466981 10.8373077,22.9481132 C10.6349954,22.8943362 10.4277961,22.859584 10.2185897,22.8443396 C9.81179487,22.8443396 9.39525641,22.9504717 9.00064103,22.884434 C8.69371795,22.8301887 8.70833333,23.0542453 8.56948718,23.1533019 L8.22358974,22.8773585 C8.1724359,22.8325472 8.11884615,22.7476415 8.07012821,22.75 C7.72910256,22.7688679 7.48307692,22.5306604 7.18589744,22.4622642 C6.84,22.3820755 6.58910256,22.1438679 6.27974359,22.0330189 C5.98269405,21.9317795 5.71874091,21.7559765 5.51487179,21.5235849 C5.37358974,21.3632075 5.14461538,21.3443396 4.97166667,21.1933962 C4.50456486,20.7667804 4.10412317,20.2765731 3.78294872,19.7382075 C3.67089744,19.5589623 3.53935897,19.3938679 3.4175641,19.2169811 C3.29576923,19.0400943 3.18858974,18.8820755 3.08871795,18.7075472 C3.03323101,18.6090311 2.98989938,18.5045403 2.95961538,18.3962264 C2.93069993,18.2368146 2.89165136,18.0792825 2.84269231,17.9245283 C2.53540539,17.1596912 2.33946885,16.3571935 2.26051282,15.5400943 C2.24833333,15.4433962 2.12653846,15.3632075 2.06564103,15.2877358 C2.12166667,15.2028302 2.22641026,15.1132075 2.23858974,15.0141509 C2.27265858,14.6929443 2.28242821,14.3697559 2.26782051,14.0471698 C2.26782051,13.9292453 2.14602564,13.8113208 2.06076923,13.6674528 C2.14350277,13.5822146 2.20953458,13.4831177 2.25564103,13.375 C2.30579431,13.2164139 2.31000731,13.0475382 2.26782051,12.8867925 C2.16064103,12.5754717 2.26782051,12.2830189 2.28974359,11.9858491 C2.28974359,11.7759434 2.33358974,11.5707547 2.35794872,11.3632075 C2.3725641,11.245283 2.35794872,11.0990566 2.40910256,11.0188679 C2.67948718,10.6768868 2.4724359,10.2169811 2.72576923,9.87264151 C2.75054226,9.80635581 2.74339371,9.73281616 2.70628205,9.67216981 C2.59910256,9.5 2.68679487,9.37028302 2.7574359,9.21698113 C2.9934583,8.71974868 3.14324262,8.18825765 3.20076923,7.64386792 L2.87435897,7.74292453 C2.93525641,7.50707547 3.09846154,7.67924528 3.20320513,7.64150943 L3.08628205,7.42924528 C3.21825775,7.34265959 3.33854769,7.24045349 3.44435897,7.125 C3.5248308,6.98210686 3.59090493,6.83204332 3.64166667,6.67688679 C3.89987179,6.125 4.15564103,5.56839623 4.43089744,5.0259434 C4.53178222,4.87459457 4.64674795,4.73249365 4.77435897,4.60141509 C4.96435897,4.36556604 5.27615385,4.21698113 5.33217949,3.87971698 C5.33217949,3.83490566 5.43935897,3.80424528 5.49538462,3.76886792 C5.59769231,3.70990566 5.73897436,3.67216981 5.795,3.58490566 C6.12628205,3.11320755 6.66217949,2.92216981 7.125,2.64150943 C7.3125641,2.52358491 7.63653846,2.58018868 7.7875641,2.44103774 C7.95793441,2.29406777 8.19044248,2.23450306 8.41358974,2.28066038 C8.53051282,2.28066038 8.65717949,2.24528302 8.76435897,2.24292453 C9.05152032,2.20865516 9.34194122,2.20865516 9.62910256,2.24292453 C9.83493528,2.29008638 10.0492955,2.29008638 10.2551282,2.24292453 C10.6164383,2.19942453 10.9801254,2.30369602 11.2587179,2.53066038 C11.7142308,2.83726415 12.1819231,3.125 12.6447436,3.41981132 C12.9370513,3.32075472 12.990641,3.55424528 13.1319231,3.71226415 C13.4143086,4.03201199 13.7160805,4.33521999 14.035641,4.62028302 C14.1586921,4.71582149 14.2522319,4.84228946 14.3060256,4.98584906 C14.3376923,5.07311321 14.5203846,5.10849057 14.6470513,5.16273585 C14.6202564,5.24764151 14.559359,5.35141509 14.5885897,5.41273585 C14.8321795,5.89622642 15.1025641,6.36792453 15.3583333,6.83962264 C15.4301077,6.93045198 15.50738,7.01708192 15.5897436,7.0990566 C15.6346751,7.1487013 15.6597379,7.21229603 15.6603846,7.27830189 C15.5678205,7.69339623 15.9039744,8.03301887 15.8723077,8.43632075 C16.2230769,9.06839623 16.1573077,9.80660377 16.4374359,10.4599057 C16.4803846,10.6439275 16.493533,10.8332944 16.4764103,11.0212264 C16.5202564,11.5731132 16.5494872,12.1273585 16.6152564,12.6721698 C16.6712821,13.1438679 16.7126923,13.6391509 16.7760256,14.120283 C16.8210104,14.2795131 16.7858024,14.449959 16.6810256,14.5801887 L16.6834615,14.5778302 Z M16.8978205,17.7830189 C16.8588462,17.759434 16.790641,17.7429245 16.7857692,17.7122642 C16.7753958,17.5780178 16.7753958,17.4432086 16.7857692,17.3089623 C16.8512995,17.4320305 16.9090552,17.5588359 16.9587179,17.6886792 C16.9660256,17.7075472 16.9173077,17.75 16.8953846,17.7853774 L16.8978205,17.7830189 Z M17.3508974,14.8584906 C17.3286018,14.8208916 17.3098507,14.7814238 17.2948718,14.740566 C17.2948718,14.740566 17.3289744,14.7122642 17.3460256,14.6981132 C17.3681234,14.734991 17.3868692,14.7736585 17.4020513,14.8136792 C17.4020513,14.8136792 17.3703846,14.8419811 17.3508974,14.8584906 Z M17.9671795,11.4033019 L18.025641,11.4221698 C18.025641,11.4386792 18.025641,11.4599057 18.025641,11.4646226 C18.0065097,11.474514 17.9859966,11.481664 17.9647436,11.4858491 L17.9671795,11.4033019 Z M17.6285897,15.4787736 L17.6529487,15.4386792 L17.6675641,15.4858491 L17.6285897,15.4787736 Z M17.6480769,8.31839623 C17.6748718,8.26650943 17.694359,8.19575472 17.740641,8.1745283 C17.7950783,8.15501509 17.853389,8.14775623 17.9111538,8.15330189 C17.8813509,8.20603287 17.8462678,8.25580036 17.8064103,8.30188679 C17.7742817,8.32868246 17.7357762,8.34732337 17.694359,8.35613208 C17.694359,8.35613208 17.645641,8.32311321 17.6480769,8.31839623 Z M17.8746154,10.8915094 L17.8258974,10.875 L17.8453846,10.8372642 L17.8746154,10.8915094 Z M17.7820513,14.9481132 C17.7820513,14.9481132 17.7333333,14.9080189 17.7382051,14.9033019 C17.7762243,14.8305224 17.8219391,14.7617581 17.8746154,14.6981132 C17.8746154,14.6981132 17.9525641,14.7193396 17.9866667,14.740566 C18.0207692,14.7617925 17.9866667,14.7830189 17.9866667,14.8066038 C17.9355128,14.8584906 17.8648718,14.9033019 17.7820513,14.9481132 Z M18.0621795,13.620283 C18.0176701,13.5755602 17.976941,13.5274496 17.9403846,13.4764151 C17.9769231,13.4551887 18.025641,13.4080189 18.05,13.4174528 C18.1024315,13.446523 18.1493814,13.4840059 18.1888462,13.5283019 C18.1523192,13.5617687 18.1132336,13.5925166 18.0719231,13.620283 L18.0621795,13.620283 Z M18.3057692,12.6957547 C18.2692308,12.6745283 18.2497436,12.625 18.2229487,12.5872642 C18.2667949,12.5872642 18.3203846,12.5471698 18.3544872,12.5636792 C18.3885897,12.5801887 18.3934615,12.6367925 18.4129487,12.6768868 C18.3812821,12.6863208 18.3325641,12.7099057 18.310641,12.6957547 L18.3057692,12.6957547 Z" id="Shape" fill="#FFFFFF"></path>
                            <path d="M7.03974359,1.01886792 L7.33205128,1.01886792 C7.35884615,0.912735849 7.33205128,0.783018868 7.47820513,0.735849057 L7.47820513,0.462264151 C7.05679487,0.422169811 7.05435897,0.426886792 6.90820513,0.745283019 L6.89358974,0.726415094 L6.89358974,0.745283019 C6.94474359,0.837264151 6.99346154,0.926886792 7.03974359,1.01886792 Z" id="Shape" fill="#231815"></path>
                            <polygon id="Shape" fill="#231815" points="7.47333333 0.445754717 7.47333333 0.471698113 7.49282051 0.471698113"></polygon>
                        </g>
                        <g id="S-41243" transform="translate(28.000000, 0.000000)">
                            <path d="M9.22117647,12.7004717 C9.21642337,12.7062 9.21246586,12.7125469 9.20941176,12.7193396 L9.22117647,12.7004717 Z" id="Shape" fill="#231815"></path>
                            <path d="M15.7152941,17.254717 C15.6978945,17.2116026 15.6978945,17.1633974 15.7152941,17.120283 C15.8668405,16.9252303 15.8332381,16.6441988 15.64,16.490566 C15.64,15.8537736 15.1929412,15.379717 14.9976471,14.8113208 C14.877227,14.4046733 14.590918,14.0680022 14.2094118,13.884434 C13.88,14.0566038 13.88,14.0566038 13.7082353,13.8632075 L14.1388235,13.490566 C13.9035294,13.3042453 13.7670588,13.0471698 13.4847059,12.9410377 C13.2023529,12.8349057 13.1152941,12.5377358 12.88,12.3962264 C12.3858824,12.0966981 11.9247059,11.7264151 11.32,11.6627358 C11.3458824,11.6981132 11.3905882,11.7287736 11.3976471,11.7665094 C11.407045,11.8243042 11.407045,11.883243 11.3976471,11.9410377 C11.3976471,11.9410377 11.3458824,11.9410377 11.3411765,11.9410377 C11.3023535,11.8935419 11.2728174,11.8391314 11.2541176,11.7806604 C11.2534148,11.7143406 11.2629389,11.6483101 11.2823529,11.5849057 C10.9435294,11.3899371 10.6039216,11.1949686 10.2635294,11 C10.1602641,10.9395747 10.0515483,10.8890369 9.93882353,10.8490566 C8.90526001,10.4992454 7.91024299,10.0440303 6.96941176,9.49056604 C6.43294118,9.16745283 5.86588235,8.89150943 5.28235294,8.57783019 C5.21882353,8.57783019 5.17647059,8.76650943 5.00470588,8.6745283 C5.02117647,8.3254717 4.79529412,8.16981132 4.48705882,8.09433962 C4.54697506,8.02719324 4.54697506,7.92563695 4.48705882,7.85849057 C4.32705882,7.65566038 4.17176471,7.44811321 3.99529412,7.26179245 C3.90267902,7.16394597 3.83207226,7.0473309 3.78823529,6.91981132 C3.64250391,6.58381605 3.55803115,6.2243595 3.53882353,5.85849057 C3.50354002,5.39519344 3.54811287,4.92926596 3.67058824,4.48113208 C3.81133451,3.85807386 4.20086246,3.32014408 4.74823529,2.99292453 C5.16235294,2.70518868 5.56941176,2.40801887 5.98588235,2.11084906 C6.17886166,2.17671496 6.3821288,2.20707719 6.58588235,2.2004717 C7.19989841,2.03915753 7.84581748,2.04567267 8.45647059,2.21933962 C8.73647059,2.09433962 8.92705882,2.40330189 9.19058824,2.37735849 C9.40705882,2.35613208 9.58352941,2.51886792 9.76941176,2.56367925 C10.0047059,2.62264151 10.0729412,2.86084906 10.2564706,2.92688679 C10.7411765,3.10141509 10.9435294,3.52358491 11.1788235,3.91981132 C11.2502448,4.09407564 11.3401747,4.26012667 11.4470588,4.41509434 C11.5940955,4.62643123 11.799297,4.79032404 12.0376471,4.88679245 C12.3812979,4.96659112 12.742124,4.91970705 13.0541176,4.75471698 C13.1362539,4.71083446 13.205892,4.6467137 13.2564706,4.56839623 C13.4042488,4.38136538 13.4696651,4.14207543 13.4376471,3.90566038 C13.3717647,3.63207547 13.3364706,3.30188679 13.1764706,3.13207547 C13.0138334,2.98818219 12.9057788,2.79239215 12.8705882,2.57783019 C12.8447354,2.46286091 12.7756214,2.36232471 12.6776471,2.29716981 C12.5458824,2.20990566 12.3529412,2.2004717 12.2447059,2.09669811 C12.1364706,1.99292453 12.12,1.81367925 12.0541176,1.66981132 C12.0319278,1.62785312 11.9995615,1.59216627 11.96,1.56603774 L10.6588235,0.726415094 C10.6211765,0.700471698 10.5717647,0.66509434 10.5341176,0.669811321 C10.4281279,0.706701987 10.318472,0.73200606 10.2070588,0.745283019 C10.1576471,0.745283019 10.1341176,0.594339623 10.0705882,0.549528302 C9.97089487,0.488457018 9.86319058,0.441622164 9.75058824,0.410377358 C9.4,0.294811321 9.04470588,0.141509434 8.67294118,0.318396226 C8.63764706,0.337264151 8.55529412,0.257075472 8.49647059,0.221698113 C7.61882353,-0.0754716981 6.74352941,0.0589622642 5.86823529,0.235849057 C5.77176471,0.254716981 5.75058824,0.358490566 5.81882353,0.452830189 C5.46033795,0.335995209 5.0689215,0.38073569 4.74588235,0.575471698 C4.15294118,0.910377358 3.43294118,1.07783019 3.07294118,1.75471698 C2.43764706,2.10849057 2.15294118,2.74056604 1.86588235,3.35141509 C1.72415669,3.71183513 1.61240345,4.08338382 1.53176471,4.46226415 C1.68705882,4.69811321 1.46117647,4.90566038 1.45882353,5.12971698 C1.73647059,5.45518868 1.73647059,5.45518868 1.40941176,5.78301887 C1.53176471,6.36792453 1.45647059,7.00471698 1.88,7.50943396 C1.90352941,7.53773585 1.88,7.60377358 1.88,7.64622642 C2.00470588,8.10377358 2.37411765,8.41981132 2.56470588,8.83962264 C3.01882353,9.125 3.29411765,9.60141509 3.70823529,9.92924528 C3.84705882,10.0424528 4.04470588,10.1061321 4.14117647,10.245283 C4.36341615,10.5638309 4.75000582,10.7239859 5.13176471,10.6556604 C5.22117647,10.8066038 5.26352941,10.9764151 5.36705882,11.0330189 C5.77176471,11.2688679 6.20235294,11.4316038 6.60235294,11.6698113 C6.64636297,11.6862614 6.6948135,11.6862614 6.73882353,11.6698113 C6.83294118,11.6391509 6.91529412,11.615566 6.97411765,11.7358491 C7.04941176,11.9363208 7.24235294,11.990566 7.40705882,12.0683962 C7.87764706,12.2830189 8.34823529,12.4976415 8.81882353,12.6886792 C8.95357269,12.7160722 9.09192372,12.7208541 9.22823529,12.7028302 C9.30117647,12.5589623 9.39529412,12.6061321 9.49647059,12.6886792 L9.23764706,12.7193396 C9.28470588,12.8466981 9.40705882,12.8349057 9.51058824,12.8537736 C9.61978145,13.0371696 9.80917287,13.1578962 10.0211765,13.1792453 C10.1335261,13.1891061 10.2417667,13.2263509 10.3364706,13.2877358 C10.9152941,13.7264151 11.5811765,14.0306604 12.1364706,14.5070755 C12.3082353,14.6533019 12.5364706,14.7051887 12.6211765,14.9787736 C12.6776471,15.1580189 12.9788235,15.2146226 12.9952941,15.4764151 C13.0074321,15.5467222 13.0431207,15.6107805 13.0964706,15.6580189 C13.2941176,15.8514151 13.3152941,16.129717 13.4658824,16.3514151 C13.6124027,16.6053694 13.703806,16.887459 13.7341176,17.1792453 C13.7882353,17.4292453 13.7341176,17.7028302 13.7788235,17.9528302 C13.9223529,18.6603774 13.4705882,19.2570755 13.4447059,19.9292453 C13.1388235,20.1462264 13.0164706,20.5165094 12.7552941,20.7735849 C12.5463658,20.926995 12.3835641,21.1350567 12.2847059,21.375 C12.2847059,21.4150943 12.2258824,21.4787736 12.2023529,21.4764151 C11.8658824,21.4363208 11.7741176,21.8443396 11.4964706,21.8726415 C11.2188235,21.9009434 11.3011765,22.2264151 11.1223529,22.3254717 C10.8259666,22.268945 10.5191959,22.3243948 10.2611765,22.4811321 C10.1976471,22.509434 10.1317647,22.5330189 10.0682353,22.5589623 C9.25076367,22.7928139 8.39713344,22.8727806 7.55058824,22.7948113 C7.27143052,22.732029 6.97897313,22.7748671 6.72941176,22.9150943 C6.55058824,22.7358491 6.41647059,22.5212264 6.20235294,22.8066038 C6.20235294,22.8066038 6.16941176,22.8066038 6.15294118,22.8066038 C6.05023192,22.6489971 5.88800596,22.5400238 5.70352941,22.504717 C5.43294118,22.4551887 5.16941176,22.3679245 4.90117647,22.2948113 C4.65472686,22.0926694 4.39095829,21.9127259 4.11294118,21.7570755 C3.67058824,21.5495283 3.37647059,21.1816038 3.04941176,20.8514151 C2.72455194,20.5298414 2.48233638,20.1340989 2.34352941,19.6981132 C2.27294118,19.4764151 2.18117647,19.2617925 2.10823529,19.0424528 C2.08470588,18.9811321 2.04,18.8985849 2.06117647,18.8514151 C2.22117647,18.5212264 1.94588235,18.1863208 2.08470588,17.8466981 C2.16941176,17.6415094 2.14588235,17.3915094 2.21882353,17.1768868 C2.29176471,16.9622642 2.15529412,16.759434 2.35294118,16.5849057 C2.55058824,16.4103774 2.47764706,16.1650943 2.58823529,16.0141509 C2.77444409,15.8051049 2.86861338,15.5295841 2.84941176,15.25 C2.81882353,14.9292453 2.59058824,14.7122642 2.40235294,14.4787736 C2.32705882,14.3820755 2.22352941,14.4268868 2.16705882,14.5754717 C2.14117647,14.6320755 2.12235294,14.6933962 2.09882353,14.759434 C1.56941176,14.2240566 1.36705882,14.245283 1,14.8679245 C0.823529412,14.8679245 0.764705882,15.004717 0.734117647,15.125 C0.581176471,15.7358491 0.0870588235,16.2570755 0.249411765,16.9528302 C0.249411765,16.9693396 0.225882353,16.990566 0.218823529,17.0117925 C0.0188235294,17.5424528 0.0682352941,18.0990566 0.0705882353,18.6485849 C0.0928806213,18.8065409 0.137237069,18.9605667 0.202352941,19.1061321 L0.181176471,19.1061321 L0.181176471,19.1438679 L0.197647059,19.1226415 C0.369411765,19.3066038 0.369411765,19.375 0.197647059,19.5424528 L0.181176471,19.5212264 L0.181176471,19.5613208 L0.192941176,19.5613208 C0.192941176,19.8113208 0.155294118,20.0731132 0.4,20.25 C0.371764706,20.5613208 0.574117647,20.8042453 0.668235294,21.0778302 C0.804850428,21.3727551 0.989313503,21.6429295 1.21411765,21.8773585 C1.53176471,22.2759434 1.86352941,22.629717 2.37176471,22.7759434 C2.32705882,22.9976415 2.33647059,23.1792453 2.60705882,23.2735849 C2.78325423,23.3286891 2.9443248,23.4239449 3.07764706,23.5518868 C3.28545661,23.7469654 3.52395383,23.9063385 3.78352941,24.0235849 C4.28,24.2971698 4.83529412,24.4080189 5.36,24.6037736 C5.5979416,24.6943561 5.84606832,24.755346 6.09882353,24.7853774 C6.48503691,24.8691606 6.88157631,24.894599 7.27529412,24.8608491 C7.59401476,24.8080262 7.91987601,24.8168324 8.23529412,24.8867925 C8.55294118,24.9646226 8.85411765,24.6650943 9.15294118,24.8867925 C9.43529412,24.7429245 9.76470588,24.8231132 10.0447059,24.7311321 C10.3647059,24.625 10.8282353,24.6933962 10.9129412,24.1485849 C11.1406993,24.2900265 11.4287124,24.2900265 11.6564706,24.1485849 C12.0376471,23.9882075 12.3082353,23.6108491 12.7552941,23.6014151 C13.0094118,23.1933962 13.5176471,23.1014151 13.8094118,22.7240566 C13.9916283,22.5182102 14.1180222,22.2688868 14.1764706,22 C14.3082353,21.9764151 14.5105882,22 14.5505882,21.9245283 C14.708584,21.6183544 14.8961479,21.3284455 15.1105882,21.0589623 C15.2447059,20.8962264 15.1976471,20.5872642 15.3152941,20.4033019 C15.4804633,20.2154966 15.6082517,19.997744 15.6917647,19.7617925 C15.7708198,19.3557358 15.8265975,18.9454722 15.8588235,18.5330189 C15.9145925,18.1015518 15.8653474,17.662965 15.7152941,17.254717 Z M12.5576471,4.2240566 L12.6164706,4.24528302 C12.6164706,4.26179245 12.6164706,4.28537736 12.6164706,4.29245283 C12.5973202,4.30224051 12.5766213,4.30862444 12.5552941,4.31132075 C12.5529412,4.28301887 12.5552941,4.24528302 12.5576471,4.2240566 Z M12.4705882,2.43396226 C12.5011765,2.45754717 12.5082353,2.50707547 12.5247059,2.54481132 C12.4870588,2.55660377 12.4329412,2.58962264 12.4164706,2.57783019 C12.4,2.56603774 12.3835294,2.50235849 12.3717647,2.46226415 C12.4,2.4504717 12.4517647,2.42216981 12.4705882,2.43396226 Z M12,2.16273585 C11.9505882,2.43160377 11.7270588,2.36792453 11.5294118,2.5259434 C11.5294118,2.3254717 11.5152941,2.25707547 11.5105882,2.16273585 L12,2.16273585 Z M11.12,2.44575472 L11.0070588,2.50471698 L10.8988235,2.43632075 C10.9364706,2.41745283 10.9741176,2.38443396 11.0117647,2.38443396 C11.0494118,2.38443396 11.0917647,2.4245283 11.1294118,2.44575472 L11.12,2.44575472 Z M10.9411765,2.12264151 C10.9581039,2.12952175 10.9733523,2.1399795 10.9858824,2.15330189 L10.9341176,2.17688679 L10.8894118,2.14386792 C10.9052896,2.133801 10.9228121,2.12661578 10.9411765,2.12264151 Z M10.7858824,1.17924528 C10.8047059,1.17924528 10.8470588,1.21226415 10.88,1.23113208 C10.8588235,1.26650943 10.8423529,1.32783019 10.8188235,1.33018868 C10.7334328,1.33603322 10.6477437,1.33603322 10.5623529,1.33018868 C10.6376471,1.28301887 10.7082353,1.22877358 10.7858824,1.17924528 Z M10.5882353,1.19103774 C10.5842295,1.23528354 10.5747448,1.27885751 10.56,1.32075472 C10.56,1.2759434 10.56,1.23349057 10.56,1.19103774 C10.56,1.14858491 10.56,1.14386792 10.5458824,1.12028302 C10.5576471,1.15330189 10.5882353,1.17924528 10.5882353,1.2004717 L10.5882353,1.19103774 Z M10.0917647,1.60377358 C10.1451685,1.57702484 10.2038414,1.56252341 10.2635294,1.56132075 C10.2823529,1.56132075 10.3247059,1.63443396 10.3176471,1.66273585 C10.3087769,1.70749822 10.2782207,1.74487853 10.2361796,1.76239754 C10.1941384,1.77991654 10.1461501,1.77526657 10.1082353,1.75 L10.0023529,1.69811321 C10.0241072,1.66235582 10.0549685,1.6330499 10.0917647,1.61320755 L10.0917647,1.60377358 Z M9.96,1.83962264 L9.99529412,1.72169811 C10.0142005,1.75323988 10.0254815,1.78877835 10.0282353,1.8254717 C10.0159959,1.90575232 9.99630248,1.98471159 9.96941176,2.06132075 C9.96941176,2.06132075 9.92941176,2.06132075 9.90823529,2.06132075 C9.92470588,1.98113208 9.94352941,1.91037736 9.96,1.83962264 Z M9.51058824,0.896226415 C9.5319632,0.85938206 9.56950235,0.834880316 9.61176471,0.830188679 C9.63529412,0.830188679 9.67058824,0.884433962 9.68,0.919811321 C9.68637255,0.977812086 9.68637255,1.03633886 9.68,1.09433962 L9.58588235,1.18867925 C9.54969538,1.13820943 9.5181915,1.08452652 9.49176471,1.02830189 C9.48407492,0.985695199 9.49069477,0.941735246 9.51058824,0.903301887 L9.51058824,0.896226415 Z M9.18117647,0.974056604 L9.18117647,1.04245283 C9.16415427,1.04646986 9.14643397,1.04646986 9.12941176,1.04245283 C9.12941176,1.04245283 9.12941176,1.01415094 9.12941176,1 L9.18117647,0.974056604 Z M8.49411765,0.252358491 L8.48,0.405660377 L8.39764706,0.363207547 L8.49411765,0.252358491 Z M7.70117647,1.83490566 L7.74823529,1.85377358 C7.74823529,1.86792453 7.74823529,1.89150943 7.74823529,1.89622642 C7.74823529,1.9009434 7.71529412,1.89622642 7.69647059,1.89622642 L7.70117647,1.83490566 Z M7.54588235,0.349056604 C7.58728448,0.420344065 7.62194518,0.495356164 7.64941176,0.573113208 C7.64941176,0.608490566 7.61647059,0.653301887 7.6,0.691037736 C7.54649072,0.651859356 7.49755473,0.60676371 7.45411765,0.556603774 C7.44235294,0.54245283 7.48235294,0.488207547 7.54588235,0.349056604 Z M7.04235294,1.33962264 L7.05882353,1.4009434 L7.01176471,1.41745283 L7.04235294,1.33962264 Z M6.88705882,0.264150943 C6.90117647,0.297169811 6.91529412,0.330188679 6.92705882,0.363207547 L6.88941176,0.405660377 C6.87116547,0.373438127 6.85618859,0.339463142 6.84470588,0.304245283 C6.84470588,0.304245283 6.87294118,0.278301887 6.88705882,0.264150943 Z M5.61647059,0.634433962 C5.68063594,0.573273322 5.74819438,0.515791953 5.81882353,0.462264151 C5.79766771,0.542651637 5.77093599,0.621459767 5.73882353,0.698113208 C5.73882353,0.721698113 5.66117647,0.719339623 5.62117647,0.731132075 C5.61882353,0.70754717 5.59764706,0.650943396 5.61647059,0.634433962 Z M5.64705882,1.6509434 C5.67529412,1.63915094 5.72,1.66981132 5.76,1.68160377 C5.73882353,1.71698113 5.72470588,1.77358491 5.69647059,1.78066038 C5.66823529,1.78773585 5.61411765,1.76179245 5.57411765,1.74764151 C5.60705882,1.70990566 5.62352941,1.6509434 5.64705882,1.6509434 Z M5.17647059,1.17924528 L5.19529412,1.23113208 L5.14823529,1.23113208 L5.17647059,1.17924528 Z M4.48705882,2.13679245 L4.52705882,2.18867925 C4.51294118,2.2240566 4.49647059,2.26179245 4.48,2.29716981 C4.46588235,2.28066038 4.43764706,2.25943396 4.44,2.24528302 C4.45204722,2.20876452 4.46699711,2.17327337 4.48470588,2.13915094 L4.48705882,2.13679245 Z M1.92941176,5.03537736 L1.94352941,5.08018868 L1.90823529,5.08018868 L1.92941176,5.03537736 Z M1.96,5.97877358 C1.88389175,6.0073038 1.80503946,6.02785375 1.72470588,6.04009434 C1.71058824,6.04009434 1.69176471,6.01650943 1.67529412,6.00235849 C1.65882353,5.98820755 1.70823529,5.91509434 1.73882353,5.90566038 C1.81093126,5.88406586 1.8850344,5.86984243 1.96,5.86320755 C1.95764706,5.89622642 1.97176471,5.9740566 1.96,5.97877358 Z M2.19529412,5.58490566 C2.19529412,5.58490566 2.19529412,5.55424528 2.19529412,5.54009434 L2.24705882,5.52358491 L2.24705882,5.5990566 C2.24,5.59669811 2.21647059,5.59669811 2.20470588,5.58490566 L2.19529412,5.58490566 Z M2.30352941,4.69811321 C2.30352941,4.66509434 2.32,4.61792453 2.33176471,4.5754717 L2.49176471,4.67688679 C2.45411765,4.71226415 2.42823529,4.75471698 2.40235294,4.75471698 C2.36586704,4.74947318 2.33334313,4.72888332 2.31294118,4.69811321 L2.30352941,4.69811321 Z M2.41882353,7.4009434 C2.41882353,7.4009434 2.34588235,7.35377358 2.34823529,7.33254717 C2.35360697,7.29164751 2.37806642,7.25574741 2.41411765,7.23584906 C2.43764706,7.23584906 2.48235294,7.25471698 2.54117647,7.27358491 C2.5063866,7.31849948 2.46865635,7.36104612 2.42823529,7.4009434 L2.41882353,7.4009434 Z M2.35294118,5.85141509 L2.37176471,5.80896226 L2.40235294,5.87028302 L2.35294118,5.85141509 Z M2.45411765,5.12735849 L2.32941176,4.97877358 C2.34823529,4.96462264 2.37176471,4.93867925 2.38588235,4.94339623 C2.43975063,4.96390932 2.49238786,4.98753382 2.54352941,5.01415094 L2.45411765,5.12735849 Z M2.61882353,3.78301887 L2.63764706,3.67688679 C2.63764706,3.69575472 2.66352941,3.71933962 2.66117647,3.73584906 C2.65882353,3.75235849 2.64235294,3.77358491 2.62823529,3.77358491 L2.61882353,3.78301887 Z M2.83058824,8.13443396 L2.82352941,8.06603774 C2.84,8.06603774 2.86117647,8.06603774 2.87529412,8.06603774 C2.88941176,8.06603774 2.87529412,8.09198113 2.88705882,8.10377358 L2.83058824,8.13443396 Z M3.00941176,5.49764151 C2.99294118,5.52830189 2.94588235,5.54716981 2.91294118,5.57075472 C2.89647059,5.53773585 2.85647059,5.48113208 2.86352941,5.4740566 C2.90420723,5.44165164 2.94840948,5.41396008 2.99529412,5.39150943 C3.01176471,5.4245283 3.03294118,5.47169811 3.01882353,5.49764151 L3.00941176,5.49764151 Z M2.93882353,4.31839623 C2.88951433,4.30258777 2.84215286,4.28122484 2.79764706,4.25471698 C2.81411765,4.24056604 2.83058824,4.21698113 2.84470588,4.21698113 C2.91655999,4.22229983 2.98805017,4.23174934 3.05882353,4.24528302 C3.00235294,4.28537736 2.97176471,4.32783019 2.94823529,4.3254717 L2.93882353,4.31839623 Z M3.02117647,3.74292453 C3.01736659,3.72663593 3.01736659,3.70968482 3.02117647,3.69339623 C3.02117647,3.69339623 3.04941176,3.69339623 3.06352941,3.69339623 L3.07764706,3.74292453 L3.02117647,3.74292453 Z M3.05882353,3.30188679 C3.04430639,3.26689858 3.03327244,3.23055866 3.02588235,3.19339623 C3.02588235,3.19339623 3.05176471,3.16745283 3.06823529,3.15566038 L3.10352941,3.25943396 L3.05882353,3.30188679 Z M3.17647059,7.54716981 C3.17180139,7.46075515 3.17180139,7.37415051 3.17647059,7.28773585 C3.17647059,7.27122642 3.24235294,7.25943396 3.28,7.25 C3.28,7.25 3.30823529,7.29245283 3.30117647,7.30660377 C3.26117647,7.36320755 3.21882353,7.44339623 3.17882353,7.52358491 L3.17647059,7.54716981 Z M3.17647059,7.54716981 L3.21882353,7.54716981 L3.17647059,7.54716981 Z M3.29411765,2.52122642 C3.21882353,2.54245283 3.14352941,2.55896226 3.05882353,2.57311321 C3.05882353,2.57311321 3.03764706,2.52358491 3.04235294,2.52122642 C3.10601749,2.4782983 3.17200048,2.43893008 3.24,2.40330189 C3.25176471,2.40330189 3.27764706,2.41745283 3.33882353,2.44103774 C3.30588235,2.48820755 3.29411765,2.51650943 3.29411765,2.52122642 Z M3.41882353,4.4504717 C3.41882353,4.4504717 3.4,4.4245283 3.39058824,4.41273585 L3.43764706,4.38443396 L3.48941176,4.40330189 C3.46300047,4.42078254 3.43549245,4.43653848 3.40705882,4.4504717 L3.41882353,4.4504717 Z M3.65411765,9.23349057 C3.63759017,9.21180194 3.62264924,9.18894357 3.60941176,9.16509434 C3.60941176,9.16509434 3.63058824,9.14622642 3.64470588,9.13679245 L3.67294118,9.18396226 L3.65411765,9.23349057 Z M3.74352941,8.56367925 L3.69176471,8.54481132 C3.71018782,8.52693768 3.72984432,8.51038728 3.75058824,8.49528302 C3.75058824,8.49528302 3.77647059,8.51886792 3.79058824,8.53066038 L3.74352941,8.56367925 Z M3.74352941,8.18160377 L3.76235294,8.125 C3.77647059,8.125 3.80235294,8.125 3.80705882,8.125 C3.80951945,8.14457671 3.80951945,8.16438556 3.80705882,8.18396226 L3.74352941,8.18160377 Z M4.32705882,9.07311321 L4.35058824,9.02830189 L4.37176471,9.0754717 L4.32705882,9.07311321 Z M4.47058824,8.23113208 C4.46827952,8.19815376 4.46827952,8.16505379 4.47058824,8.13207547 L4.49882353,8.25707547 C4.49882353,8.25707547 4.47058824,8.24056604 4.47058824,8.23113208 Z M4.54588235,10.0117925 L4.49647059,9.99056604 L4.55764706,9.93632075 L4.59294118,9.98113208 L4.54588235,10.0117925 Z M6.10352941,10.9551887 C6.08704807,10.9623902 6.06961156,10.9671568 6.05176471,10.9693396 L6.05176471,10.8985849 L6.10352941,10.9174528 C6.10352941,10.9174528 6.11764706,10.9457547 6.11764706,10.9504717 L6.10352941,10.9551887 Z M6.37176471,10.1415094 C6.33813722,10.145154 6.30421572,10.145154 6.27058824,10.1415094 C6.26743074,10.102265 6.26743074,10.0628294 6.27058824,10.0235849 C6.31764706,9.91981132 6.37647059,9.83018868 6.50588235,9.86084906 C6.52,9.86084906 6.53647059,9.89386792 6.54117647,9.91273585 C6.58823529,10.0400943 6.48470588,10.0966981 6.37176471,10.1415094 Z M8.75764706,11.3042453 C8.70338567,11.365307 8.64605649,11.4235585 8.58588235,11.4787736 C8.54823529,11.4481132 8.51294118,11.4316038 8.51529412,11.4221698 C8.51593408,11.3616764 8.53214334,11.302373 8.56235294,11.25 C8.6,11.2146226 8.67529412,11.2146226 8.73176471,11.2004717 C8.74117647,11.2264151 8.76941176,11.2759434 8.75764706,11.2948113 L8.75764706,11.3042453 Z M9.19294118,11.1650943 C9.16470588,11.1650943 9.15058824,11.0990566 9.12941176,11.0660377 C9.18826706,11.0469374 9.24901368,11.0342849 9.31058824,11.0283019 C9.32705882,11.0283019 9.34588235,11.0943396 9.37411765,11.1533019 C9.31416511,11.16296 9.25312373,11.1637546 9.19294118,11.1556604 L9.19294118,11.1650943 Z M9.59294118,12.3443396 C9.57882353,12.3443396 9.55294118,12.3608491 9.54823529,12.3443396 C9.53838284,12.3274826 9.5312367,12.3091771 9.52705882,12.2900943 L9.60235294,12.2735849 L9.59294118,12.3443396 Z M9.93176471,11.3679245 C9.90823529,11.4386792 9.87764706,11.509434 9.84,11.6037736 C9.79764706,11.4481132 9.76470588,11.3396226 9.93176471,11.3561321 L9.93176471,11.3679245 Z M9.98823529,11.3018868 L10.0258824,11.2193396 C10.0258824,11.2193396 10.04,11.2523585 10.0258824,11.2570755 L9.98823529,11.3018868 Z M10.4588235,12.0613208 C10.2470588,11.8443396 10.3788235,11.6957547 10.36,11.5636792 L10.1882353,11.5212264 L10.3529412,11.5 C10.6235294,11.6179245 10.4541176,11.7924528 10.4564706,12.0495283 L10.4588235,12.0613208 Z M10.9952941,12.7287736 C10.9458824,12.7641509 10.8847059,12.8278302 10.8447059,12.8160377 C10.8047059,12.8042453 10.7670588,12.7240566 10.7317647,12.6745283 C10.7843067,12.645794 10.84051,12.6243705 10.8988235,12.6108491 C10.9341176,12.6108491 10.9741176,12.6438679 11.0141176,12.6650943 C11.0047059,12.6745283 11.0070588,12.7051887 10.9929412,12.7169811 L10.9952941,12.7287736 Z M10.9458824,12.1933962 C10.9157263,12.1606607 10.8910901,12.123221 10.8729412,12.0825472 C10.9152941,12.0825472 10.9623529,12.0400943 10.9952941,12.0518868 C11.0282353,12.0636792 11.0258824,12.1226415 11.0423529,12.1627358 C11.0070588,12.1627358 10.9576471,12.1933962 10.9435294,12.1816038 L10.9458824,12.1933962 Z M12.7058824,14.5117925 L12.6658824,14.4410377 C12.6847059,14.4410377 12.7058824,14.4268868 12.72,14.4410377 C12.7341176,14.4551887 12.7364706,14.4693396 12.7458824,14.4834906 L12.7058824,14.5117925 Z M12.7717647,13.6792453 C12.7270588,13.6556604 12.7011765,13.5825472 12.6776471,13.5259434 C12.6776471,13.5259434 12.7529412,13.4599057 12.7811765,13.4669811 C12.8480107,13.4986391 12.9098464,13.5399602 12.9647059,13.5896226 C12.8705882,13.6462264 12.8023529,13.7051887 12.7717647,13.6792453 Z M2.21411765,15.495283 L2.23294118,15.5566038 L2.18588235,15.5566038 L2.21411765,15.495283 Z M0.503529412,18.5377358 C0.394954686,18.5001635 0.32931205,18.3895041 0.348235294,18.2759434 C0.355988677,18.2373384 0.367008911,18.1994656 0.381176471,18.1627358 C0.430588235,18.1910377 0.463529412,18.1981132 0.468235294,18.2146226 C0.498823529,18.3113208 0.527058824,18.4103774 0.552941176,18.509434 C0.552941176,18.5235849 0.515294118,18.5518868 0.503529412,18.5471698 L0.503529412,18.5377358 Z M0.931764706,19.245283 L0.96,19.2075472 L0.96,19.254717 L0.931764706,19.245283 Z M0.995294118,14.8537736 C1.0284957,14.8522105 1.06158477,14.8586821 1.09176471,14.8726415 C1.11990886,14.9015526 1.13805348,14.9387541 1.14352941,14.9787736 C1.14352941,14.9787736 1.12,15.0117925 1.10588235,15.0306604 C1.08,15.0070755 1.04470588,14.9858491 1.03058824,14.9575472 C1.01572186,14.9306433 1.00388449,14.9021666 0.995294118,14.8726415 L0.995294118,14.8537736 Z M1.10117647,17.7028302 C1.08235294,17.6886792 1.04941176,17.6674528 1.05176471,17.6603774 C1.06566353,17.6234522 1.08299468,17.5879185 1.10352941,17.5542453 L1.16,17.5943396 C1.14117647,17.6485849 1.12,17.6886792 1.10117647,17.7216981 L1.10117647,17.7028302 Z M1.48705882,16.0731132 C1.45176471,16.0731132 1.41647059,16.0400943 1.37882353,16.0235849 L1.50117647,15.9764151 L1.56235294,16.004717 C1.53647059,16.0495283 1.51294118,16.0919811 1.48705882,16.0919811 L1.48705882,16.0731132 Z M1.92941176,19.8466981 L1.90823529,19.8042453 L1.94588235,19.8042453 L1.92941176,19.8466981 Z M1.92941176,16.1320755 C1.94963008,16.128301 1.97036992,16.128301 1.99058824,16.1320755 C1.99058824,16.1320755 1.99058824,16.1627358 2.00705882,16.1768868 L1.95294118,16.2051887 L1.92941176,16.1320755 Z M1.98588235,20.2287736 L2.24470588,20.3018868 L2.20941176,20.4221698 L1.95294118,20.3254717 L1.98588235,20.2287736 Z M2.05647059,21.759434 L2.07294118,21.6674528 C2.07294118,21.6863208 2.09882353,21.7051887 2.09647059,21.7216981 C2.09411765,21.7382075 2.07058824,21.7665094 2.05647059,21.7783019 L2.05647059,21.759434 Z M2.19294118,20.9504717 C2.28,20.9009434 2.36941176,20.8490566 2.45882353,20.8042453 C2.45882353,20.8042453 2.49411765,20.8278302 2.51294118,20.8419811 C2.53176471,20.8561321 2.51294118,20.8891509 2.49882353,20.8938679 C2.40470588,20.9316038 2.31294118,20.9646226 2.21882353,20.9976415 C2.20944308,20.9889283 2.20078696,20.979463 2.19294118,20.9693396 L2.19294118,20.9504717 Z M2.42823529,22.2830189 C2.40705882,22.2830189 2.35294118,22.2358491 2.35764706,22.2240566 C2.36996086,22.1848983 2.39583011,22.1514399 2.43058824,22.129717 C2.44941176,22.129717 2.49176471,22.1462264 2.66588235,22.2051887 C2.58988253,22.2448534 2.5103131,22.27723 2.42823529,22.3018868 L2.42823529,22.2830189 Z M3.08470588,22.9551887 C3.06755847,22.935918 3.05183078,22.9154238 3.03764706,22.8938679 C3.03764706,22.8938679 3.06117647,22.8679245 3.07529412,22.8537736 L3.10117647,22.9033019 L3.08470588,22.9551887 Z M3.14823529,22.0117925 L3.09411765,21.995283 C3.11365882,21.9767677 3.13493349,21.9601817 3.15764706,21.9457547 C3.15764706,21.9457547 3.18352941,21.9693396 3.19764706,21.9834906 L3.14823529,22.0117925 Z M3.58352941,23.5849057 C3.56482165,23.58191 3.54661254,23.5763551 3.52941176,23.5683962 C3.52941176,23.5542453 3.52941176,23.5306604 3.54823529,23.5306604 C3.56711072,23.5312095 3.58561526,23.5360482 3.60235294,23.5448113 C3.59764706,23.5613208 3.59058824,23.5849057 3.58352941,23.5849057 Z M3.61882353,23.2617925 C3.61171117,23.2412847 3.60774445,23.2198139 3.60705882,23.1981132 C3.60705882,23.1981132 3.63529412,23.1863208 3.65176471,23.1792453 C3.65871005,23.2007163 3.66344068,23.2228446 3.66588235,23.245283 C3.66588235,23.245283 3.63529412,23.2570755 3.61882353,23.2641509 L3.61882353,23.2617925 Z M3.74823529,22.3183962 C3.76301375,22.2821877 3.79474502,22.2556826 3.83294118,22.2476415 C3.86352941,22.2476415 3.89882353,22.2783019 3.93176471,22.2971698 C3.88941176,22.3419811 3.84941176,22.3867925 3.80470588,22.4386792 C3.77882353,22.3773585 3.74352941,22.3396226 3.74823529,22.3089623 L3.74823529,22.3183962 Z M3.91294118,23.2877358 C3.91294118,23.2712264 3.88941176,23.2523585 3.88941176,23.2382075 C3.88941176,23.2240566 3.91058824,23.2075472 3.92,23.1910377 C3.92941176,23.1745283 3.94352941,23.2264151 3.94352941,23.2429245 C3.94352941,23.259434 3.92470588,23.2617925 3.91294118,23.2783019 L3.91294118,23.2877358 Z M4.89647059,22.3207547 C4.92,22.4363208 4.94352941,22.5566038 4.98352941,22.759434 C4.76235294,22.5566038 4.78823529,22.4339623 4.89647059,22.3113208 L4.89647059,22.3207547 Z M4.19058824,22.2358491 C4.18725213,22.2163372 4.18725213,22.1963986 4.19058824,22.1768868 C4.19058824,22.1768868 4.21882353,22.1768868 4.23529412,22.1627358 L4.24941176,22.2216981 L4.19058824,22.2358491 Z M4.83764706,24.1981132 L4.80235294,24.129717 C4.82117647,24.129717 4.84235294,24.129717 4.85647059,24.129717 C4.87058824,24.129717 4.87529412,24.1603774 4.88235294,24.1745283 L4.83764706,24.1981132 Z M4.95529412,23.0471698 C4.82588235,23.0683962 4.69411765,23.0849057 4.56470588,23.1037736 L4.56470588,22.9575472 C4.69411765,22.9575472 4.82588235,22.9575472 4.95529412,22.9575472 C4.97176471,22.9575472 4.98823529,22.9811321 5.00705882,22.995283 C5.02588235,23.009434 4.97176471,23.0353774 4.95294118,23.0377358 L4.95529412,23.0471698 Z M6.08705882,23.1226415 L6,23.1957547 C6.00614582,23.1705712 6.01481741,23.1460754 6.02588235,23.1226415 C6.02588235,23.1226415 6.06352941,23.1132075 6.08470588,23.1132075 L6.08705882,23.1226415 Z M5.86588235,23.2358491 C5.89393293,23.2312708 5.92253766,23.2312708 5.95058824,23.2358491 C5.92801238,23.2597167 5.90362569,23.2817954 5.87764706,23.3018868 C5.86352941,23.3018868 5.83764706,23.3018868 5.81882353,23.3018868 C5.8,23.3018868 5.84235294,23.2334906 5.86352941,23.2264151 L5.86588235,23.2358491 Z M5.70588235,23.8514151 C5.69411765,23.8514151 5.65882353,23.8514151 5.64470588,23.8278302 C5.56,23.7334906 5.64470588,23.6816038 5.70117647,23.6226415 C5.71529412,23.6108491 5.71529412,23.5872642 5.72,23.5660377 C5.71638952,23.5863178 5.71638952,23.6070784 5.72,23.6273585 C5.75294118,23.6957547 5.80941176,23.7783019 5.70352941,23.8419811 L5.70588235,23.8514151 Z M5.72,23.5613208 L6.19058824,23.5778302 L5.72,23.5613208 Z M6.85176471,24.3443396 L6.79058824,24.1957547 C6.82588235,24.1957547 6.88,24.1533019 6.89647059,24.1674528 C6.91294118,24.1816038 6.92705882,24.240566 6.94117647,24.2806604 L6.85176471,24.3443396 Z M7.00470588,23.6367925 C6.97176471,23.6367925 6.94352941,23.5566038 6.93647059,23.509434 C6.92941176,23.4622642 7.01411765,23.4363208 7.03294118,23.4457547 C7.09129938,23.4877806 7.14494546,23.5360178 7.19294118,23.5896226 C7.10823529,23.5966981 7.05882353,23.634434 7.00235294,23.620283 L7.00470588,23.6367925 Z M7.17176471,24.4245283 C7.15389063,24.3896684 7.13893722,24.35338 7.12705882,24.3160377 C7.12705882,24.3160377 7.15294118,24.2853774 7.16705882,24.2688679 C7.1849329,24.3037279 7.19988631,24.3400162 7.21176471,24.3773585 C7.21176471,24.3773585 7.18352941,24.3915094 7.16941176,24.4080189 L7.17176471,24.4245283 Z M7.61647059,24.5424528 C7.59942831,24.518986 7.58371719,24.4945763 7.56941176,24.4693396 C7.56941176,24.4693396 7.59529412,24.4504717 7.60941176,24.4386792 L7.63764706,24.4882075 L7.61647059,24.5424528 Z M7.58823529,23.759434 C7.60705882,23.7429245 7.62117647,23.7169811 7.64470588,23.7099057 C7.68305351,23.7063093 7.72165237,23.7063093 7.76,23.7099057 L7.64705882,23.75 L7.58823529,23.759434 Z M7.66117647,23.9504717 C7.69028904,23.8699467 7.72407214,23.791196 7.76235294,23.7146226 L7.80470588,24.0919811 C7.65647059,24.1014151 7.62823529,24.0353774 7.65882353,23.9339623 L7.66117647,23.9504717 Z M8.20470588,24.365566 L8.04470588,24.2971698 C8.06352941,24.259434 8.07764706,24.1886792 8.09647059,24.1886792 C8.15239706,24.1914756 8.20737674,24.2042546 8.25882353,24.2264151 L8.20470588,24.365566 Z M8.98117647,23.259434 L9.00941176,23.2169811 L9.00941176,23.2688679 L8.98117647,23.259434 Z M9.74352941,24.1745283 L9.74352941,24.1320755 L9.78588235,24.1556604 L9.74352941,24.1745283 Z M9.94117647,22.9103774 C9.94117647,22.9103774 9.88235294,22.8773585 9.88235294,22.8773585 C9.88190773,22.8168237 9.89309158,22.7567689 9.91529412,22.7004717 C9.95384757,22.6461482 10.0016347,22.5990467 10.0564706,22.5613208 C10.0592817,22.6262275 10.053746,22.691227 10.04,22.754717 C10.016597,22.8078233 9.98209441,22.8552757 9.93882353,22.8938679 L9.94117647,22.9103774 Z M10.52,24.1816038 L10.4729412,24.1556604 L10.5223529,24.134434 L10.52,24.1816038 Z M10.7788235,23.1816038 C10.7788235,23.1816038 10.7647059,23.1533019 10.76,23.1367925 L10.8235294,23.1132075 L10.8423529,23.1627358 C10.8208243,23.1683133 10.7983413,23.1691181 10.7764706,23.1650943 L10.7788235,23.1816038 Z M11.2494118,23.3419811 L11.1882353,23.3183962 L11.2517647,23.2523585 L11.2964706,23.2995283 L11.2494118,23.3419811 Z M12.8635294,21.9339623 C12.8258824,21.8962264 12.7717647,21.8632075 12.7529412,21.8160377 C12.7341176,21.7688679 12.7811765,21.7382075 12.7976471,21.6981132 L12.9388235,21.8018868 L12.8635294,21.9339623 Z M13.2752941,22.3561321 C13.2752941,22.3679245 13.2517647,22.3773585 13.24,22.3867925 C13.2282353,22.3962264 13.2094118,22.3443396 13.2141176,22.3419811 C13.231969,22.3272912 13.2508401,22.3138926 13.2705882,22.3018868 C13.2764062,22.3217744 13.2780092,22.342662 13.2752941,22.3632075 L13.2752941,22.3561321 Z M13.5105882,20.3466981 C13.5105882,20.3679245 13.5105882,20.3891509 13.5105882,20.4103774 C13.5086732,20.3915737 13.5078875,20.3726717 13.5082353,20.3537736 L13.5105882,20.3466981 Z M13.6776471,20.3466981 L13.52,20.2830189 L13.6847059,20.3113208 L13.6776471,20.3466981 Z M13.48,13.3867925 C13.427842,13.3459103 13.3804803,13.2992281 13.3388235,13.2476415 C13.3741176,13.2311321 13.4235294,13.1886792 13.4447059,13.1981132 C13.5006172,13.2342374 13.5519696,13.277 13.5976471,13.3254717 C13.5411765,13.3514151 13.4894118,13.3915094 13.4776471,13.3820755 L13.48,13.3867925 Z M13.8329412,16.3207547 C13.8164706,16.3207547 13.7858824,16.3089623 13.7858824,16.3018868 C13.7891538,16.2809117 13.7946761,16.2603522 13.8023529,16.240566 C13.8188235,16.240566 13.8447059,16.240566 13.8447059,16.259434 C13.8429565,16.2789215 13.8381937,16.2980177 13.8305882,16.3160377 L13.8329412,16.3207547 Z M13.9835294,19.7382075 C13.9607249,19.7166042 13.940938,19.6920105 13.9247059,19.6650943 C13.9247059,19.6650943 13.9529412,19.634434 13.9694118,19.6179245 L14.0023529,19.6792453 L13.9835294,19.7382075 Z M14.0258824,19.3396226 L14.0094118,19.259434 C14.0303036,19.2545118 14.0520494,19.2545118 14.0729412,19.259434 C14.0729412,19.259434 14.0729412,19.2900943 14.0870588,19.3066038 L14.0258824,19.3396226 Z M14.2329412,18.6320755 L13.9741176,18.7311321 C13.8658824,18.634434 13.8776471,18.6084906 14.2705882,18.1273585 C14.2541176,18.3278302 14.2447059,18.4716981 14.2329412,18.6320755 Z M13.9105882,17.4528302 C13.9294118,17.4528302 13.9529412,17.4221698 13.9647059,17.4268868 C13.9764706,17.4316038 13.9882353,17.4599057 13.9976471,17.4787736 L13.9694118,17.5377358 L13.9105882,17.4528302 Z M14.4164706,19.884434 C14.4,19.884434 14.3717647,19.9009434 14.3647059,19.884434 C14.354237,19.866382 14.3478138,19.8462621 14.3458824,19.8254717 L14.4258824,19.8113208 L14.4164706,19.884434 Z M14.3035294,16.2311321 C14.2588235,16.1603774 14.2117647,16.1132075 14.2211765,16.0966981 C14.255145,16.0398425 14.2989702,15.9895243 14.3505882,15.9481132 C14.3505882,15.9481132 14.4352941,15.9976415 14.4329412,16.0023585 C14.3976471,16.0636792 14.3529412,16.1320755 14.3035294,16.2193396 L14.3035294,16.2311321 Z M14.3505882,15.3537736 C14.3223529,15.7146226 14.3223529,15.7146226 13.8588235,15.5731132 L13.6235294,15.8301887 L13.6235294,15.4787736 L14.3294118,15.3372642 L14.5458824,15.3372642 L14.5458824,15.3584906 L14.3505882,15.3537736 Z M14.5223529,16.6273585 L14.6070588,16.5660377 L14.6729412,16.6367925 C14.6390357,16.6513282 14.6034742,16.6616257 14.5670588,16.6674528 C14.5529412,16.6580189 14.5364706,16.629717 14.5223529,16.615566 L14.5223529,16.6273585 Z M14.6470588,19.1037736 L14.6705882,19.0518868 L14.6894118,19.1084906 L14.6470588,19.1037736 Z M14.6470588,18.1603774 C14.6305882,18.1438679 14.5976471,18.125 14.6,18.1132075 C14.6122099,18.0725936 14.6279567,18.0331336 14.6470588,17.995283 C14.6635294,18.009434 14.6964706,18.0306604 14.6941176,18.0400943 C14.6864023,18.0851077 14.6745882,18.1293177 14.6588235,18.1721698 L14.6470588,18.1603774 Z M15.0588235,15.8018868 L15.0258824,15.7570755 L15.0752941,15.7216981 L15.1317647,15.740566 L15.0588235,15.8018868 Z M15.2305882,19.8514151 L15.2470588,19.8113208 L15.2705882,19.8608491 L15.2305882,19.8514151 Z M15.2305882,16.2334906 C15.2125748,16.2031172 15.1983507,16.1706414 15.1882353,16.1367925 C15.1882353,16.1367925 15.2282353,16.0943396 15.2329412,16.0990566 C15.2613504,16.1205848 15.2880934,16.1442373 15.3129412,16.1698113 L15.2305882,16.2334906 Z M15.4658824,17.634434 C15.4249859,17.6340656 15.3844343,17.6268926 15.3458824,17.6132075 C15.3458824,17.5801887 15.3623529,17.5188679 15.3741176,17.5165094 C15.4333745,17.5176773 15.4924189,17.5239902 15.5505882,17.5353774 C15.4941176,17.5849057 15.4752941,17.6273585 15.4494118,17.634434 L15.4658824,17.634434 Z" id="Shape" fill="#FFFFFF"></path>
                            <path d="M0.157647059,19.4929245 L0.157647059,19.115566 C0.0164705882,19.2995283 0.0141176471,19.3207547 0.157647059,19.4929245 Z" id="Shape" fill="#231815"></path>
                            <polygon id="Shape" fill="#FFFFFF" points="9.20705882 12.7193396 9.22823529 12.7193396 9.22823529 12.7028302"></polygon>
                        </g>
                    </g>
                </g>
            </g>
        </g>
    </g>
</svg>