<?xml version="1.0" encoding="UTF-8"?>
<svg width="120px" height="120px" viewBox="0 0 120 120" version="1.1" xmlns="http://www.w3.org/2000/svg" xmlns:xlink="http://www.w3.org/1999/xlink">
    <!-- Generator: Sketch 51.3 (57544) - http://www.bohemiancoding.com/sketch -->
    <title>icn_設計階段</title>
    <desc>Created with Sketch.</desc>
    <defs></defs>
    <g id="Page-1" stroke="none" stroke-width="1" fill="none" fill-rule="evenodd">
        <g id="Superbil-LandingPage" transform="translate(-911.000000, -1923.000000)" fill="#000000" fill-rule="nonzero">
            <g id="icn_設計階段" transform="translate(911.000000, 1923.000000)">
                <g id="Group">
                    <path d="M45.013125,47.7498328 L47.15625,44.676388 C41.109375,40.4679599 37.5,33.5700334 37.5,26.2207358 C37.5,13.8276923 47.593125,3.7458194 60,3.7458194 C72.406875,3.7458194 82.5,13.8276923 82.5,26.2207358 C82.5,33.4482943 78.9825,40.2844147 73.089375,44.5040803 L75.275625,47.5475585 C82.1475,42.6274247 86.25,34.6544482 86.25,26.2207358 C86.25,11.7618729 74.475,0 60,0 C45.525,0 33.75,11.7618729 33.75,26.2207358 C33.75,34.7949164 37.959375,42.8428094 45.013125,47.7498328 Z" id="Shape"></path>
                    <path d="M67.5,28.0936455 L65.625,28.0936455 L65.625,31.8394649 L67.5,31.8394649 C72.669375,31.8394649 76.875,27.6385284 76.875,22.4749164 L76.875,18.729097 C76.875,17.6933779 76.036875,16.8561873 75,16.8561873 L67.5,16.8561873 C64.43625,16.8561873 61.711875,18.3320401 60,20.6076254 C58.288125,18.3320401 55.56375,16.8561873 52.5,16.8561873 L45,16.8561873 C43.963125,16.8561873 43.125,17.6933779 43.125,18.729097 L43.125,22.4749164 C43.125,27.6385284 47.330625,31.8394649 52.5,31.8394649 L58.125,31.8394649 L58.125,43.0769231 L50.625,43.0769231 C50.09625,43.0769231 49.59,43.2997993 49.235625,43.6931104 C48.88125,44.0845485 48.706875,44.6089632 48.759375,45.1371237 L50.296875,60.4912375 C50.585625,63.3773913 52.989375,65.5518395 55.89375,65.5518395 L64.108125,65.5518395 C67.0125,65.5518395 69.41625,63.3773913 69.703125,60.4931104 L71.240625,45.1371237 C71.293125,44.6108361 71.120625,44.0845485 70.764375,43.6931104 C70.41,43.2997993 69.90375,43.0769231 69.375,43.0769231 L61.875,43.0769231 L61.875,26.2207358 C61.875,23.1229431 64.39875,20.6020067 67.5,20.6020067 L73.125,20.6020067 L73.125,22.4749164 C73.125,25.572709 70.60125,28.0936455 67.5,28.0936455 Z M65.971875,60.1222742 C65.87625,61.081204 65.07375,61.8060201 64.10625,61.8060201 L55.89375,61.8060201 C54.92625,61.8060201 54.125625,61.081204 54.03,60.1204013 L53.63625,56.187291 L61.875,56.187291 L61.875,52.4414716 L53.259375,52.4414716 L52.696875,46.8227425 L67.30125,46.8227425 L65.971875,60.1222742 Z M46.875,22.4749164 L46.875,20.6020067 L52.5,20.6020067 C55.60125,20.6020067 58.125,23.1229431 58.125,26.2207358 L58.125,28.0936455 L52.5,28.0936455 C49.39875,28.0936455 46.875,25.572709 46.875,22.4749164 Z" id="Shape"></path>
                    <path d="M24.375,37.458194 C24.375,34.3604013 26.89875,31.8394649 30,31.8394649 L30,28.0936455 C24.830625,28.0936455 20.625,32.2945819 20.625,37.458194 L20.625,54.3143813 L24.375,54.3143813 L24.375,37.458194 Z" id="Shape"></path>
                    <path d="M45.81,100.337391 L33.361875,94.2485619 L31.021875,90.7424749 C33.856875,89.2853512 35.88,86.4197993 36.121875,83.0317057 L36.69375,71.3016722 C36.71625,70.9795318 36.7275,70.6592642 36.725625,70.3389967 C36.710625,67.2580602 35.53125,64.2576589 33.41625,61.9895652 C31.085625,59.4929766 27.79125,58.0602007 24.375,58.0602007 C20.95875,58.0602007 17.664375,59.4929766 15.335625,61.9914381 C13.591875,63.8624749 12.48375,66.2317057 12.140625,68.735786 C12.024375,69.5692308 11.994375,70.4176589 12.054375,71.264214 L12.63375,83.0785284 C12.87375,86.4366555 14.895,89.2928428 17.73,90.7462207 L15.380625,94.267291 L2.77125,100.633311 C1.06125,101.635318 0,103.489498 0,105.469164 L0,117.993311 C0,119.027157 0.83625,119.864348 1.87125,119.866221 L46.87125,119.95612 C46.873125,119.95612 46.873125,119.95612 46.875,119.95612 C47.371875,119.95612 47.848125,119.759465 48.19875,119.409231 C48.553125,119.057124 48.75,118.579532 48.75,118.083211 L48.75,105.272508 C48.75,103.262876 47.664375,101.393712 45.81,100.337391 Z M15.79125,69.853913 C15.915,67.8873579 16.708125,66.0444147 18.07875,64.5723077 C19.723125,62.8080268 21.958125,61.8359866 24.373125,61.8359866 C26.788125,61.8359866 29.023125,62.8080268 30.6675,64.5723077 C32.206875,66.224214 33.015,68.340602 32.968125,70.6105686 L21.103125,67.4584615 C20.945625,67.4172575 20.7825,67.3966555 20.62125,67.3966555 C20.29875,67.3966555 19.98,67.4790635 19.696875,67.6401338 L15.79125,69.853913 Z M15.945,74.0754515 L20.88375,71.2754515 L32.78625,74.4369231 L32.379375,82.8088294 C32.1975,85.3466221 30.31875,87.4049498 27.909375,87.9087625 L20.8425,87.9087625 C18.433125,87.4068227 16.55625,85.3522408 16.37625,82.8519064 L15.945,74.0754515 Z M21.984375,91.7725753 L26.7675,91.7725753 C26.91,91.7725753 27.0525,91.7688294 27.195,91.7632107 L29.461875,95.1625418 L24.375,100.241873 L19.288125,95.1606689 L21.555,91.7613378 C21.6975,91.7688294 21.84,91.7725753 21.984375,91.7725753 Z M45,116.206555 L3.75,116.124147 L3.75,105.471037 C3.75,104.8099 4.1025,104.193712 4.569375,103.916522 L16.509375,97.8913712 L23.049375,104.42408 C23.7825,105.156388 24.9675,105.156388 25.700625,104.42408 L32.25375,97.8782609 L44.055,103.646823 C44.638125,103.980201 45,104.60388 45,105.272508 L45,116.206555 Z" id="Shape"></path>
                    <path d="M95.625,37.458194 L95.625,54.3143813 L99.375,54.3143813 L99.375,37.458194 C99.375,32.2945819 95.169375,28.0936455 90,28.0936455 L90,31.8394649 C93.10125,31.8394649 95.625,34.3604013 95.625,37.458194 Z" id="Shape"></path>
                    <path d="M80.625,78.6622074 L67.5,78.6622074 C64.39875,78.6622074 61.875,76.1412709 61.875,73.0434783 L61.875,69.2976589 L58.125,69.2976589 L58.125,73.0434783 C58.125,76.1412709 55.60125,78.6622074 52.5,78.6622074 L39.375,78.6622074 L39.375,82.4080268 L52.5,82.4080268 C55.56375,82.4080268 58.288125,80.9321739 60,78.6565886 C61.711875,80.9321739 64.43625,82.4080268 67.5,82.4080268 L80.625,82.4080268 L80.625,78.6622074 Z" id="Shape"></path>
                    <path d="M117.166875,100.395452 C117.129375,100.374849 117.095625,100.35612 117.058125,100.339264 L104.491875,94.1923746 L102.21,90.7743144 C104.71875,89.5082274 106.603125,87.1408696 107.195625,84.2828094 L114.375,84.2828094 C115.411875,84.2828094 116.25,83.4456187 116.25,82.4098997 L116.25,71.1724415 C116.25,66.0088294 112.044375,61.807893 106.875,61.807893 L104.488125,61.807893 C102.170625,59.4236789 98.956875,58.0620736 95.625,58.0620736 C92.20875,58.0620736 88.914375,59.4948495 86.585625,61.993311 C84.470625,64.2614047 83.29125,67.2636789 83.274375,70.3127759 C83.2725,70.6292977 83.281875,70.9476923 83.304375,71.264214 L83.88375,83.0785284 C84.125625,86.4591304 86.173125,89.3321739 89.04,90.7761873 L86.750625,94.2054849 L74.02125,100.631438 C72.31125,101.635318 71.25,103.489498 71.25,105.469164 L71.25,117.993311 C71.25,119.027157 72.08625,119.864348 73.12125,119.866221 L118.12125,119.95612 C118.123125,119.95612 118.123125,119.95612 118.125,119.95612 C118.621875,119.95612 119.098125,119.759465 119.44875,119.409231 C119.803125,119.057124 120,118.579532 120,118.083211 L120,105.272508 C120,103.262876 118.914375,101.393712 117.166875,100.395452 Z M87.028125,70.6086957 C87.0225,70.4232776 87.024375,70.2378595 87.031875,70.0524415 C87.03375,70.0112375 87.035625,69.9681605 87.0375,69.9269565 C87.0375,69.9213378 87.0375,69.9138462 87.039375,69.9082274 C87.151875,67.9210702 87.946875,66.0575251 89.330625,64.5704348 C90.975,62.8061538 93.21,61.8341137 95.625,61.8341137 C98.04,61.8341137 100.275,62.8061538 101.919375,64.5704348 C103.28625,66.0369231 104.075625,67.8686288 104.203125,69.8501672 L100.299375,67.636388 C99.871875,67.3929097 99.36375,67.3273579 98.893125,67.4547157 L87.028125,70.6086957 Z M112.5,71.1705686 L112.5,80.5351171 L107.49375,80.5351171 L107.94375,71.3035452 C107.960625,71.0769231 107.97,70.8521739 107.97375,70.6255518 C107.97375,70.5749833 107.97375,70.5262876 107.975625,70.4757191 C107.975625,70.4288963 107.975625,70.3839465 107.975625,70.3371237 C107.96625,68.6852174 107.623125,67.0576589 106.981875,65.5537124 C110.0325,65.6098997 112.5,68.1064883 112.5,71.1705686 Z M87.21375,74.4369231 L99.118125,71.2754515 L104.055,74.0754515 L103.629375,82.8088294 C103.4175,85.7343144 100.95375,88.0267559 98.015625,88.0267559 L93.2325,88.0267559 C90.29625,88.0267559 87.830625,85.7343144 87.624375,82.8500334 L87.21375,74.4369231 Z M98.371875,91.7725753 L100.711875,95.2805351 L95.625,100.361739 L90.538125,95.2805351 L92.878125,91.7725753 L98.371875,91.7725753 Z M116.25,116.206555 L75,116.124147 L75,105.471037 C75,104.8099 75.3525,104.193712 75.819375,103.916522 L87.759375,97.8913712 L94.299375,104.42408 C95.0325,105.156388 96.2175,105.156388 96.950625,104.42408 L103.50375,97.8782609 L115.34625,103.673043 C115.905,104.010167 116.25,104.618863 116.25,105.272508 L116.25,116.206555 Z" id="Shape"></path>
                </g>
            </g>
        </g>
    </g>
</svg>